<?xml version="1.0" standalone="no"?>
<!DOCTYPE svg PUBLIC "-//W3C//DTD SVG 1.1//EN" "http://www.w3.org/Graphics/SVG/1.1/DTD/svg11.dtd" >
<svg xmlns="http://www.w3.org/2000/svg" xmlns:xlink="http://www.w3.org/1999/xlink" version="1.1">
<metadata>
Created by FontForge 20170731 at Mon Oct 12 11:15:08 2020
 By Ahmed Shmi,,,
(c)2023, Saudi SWCC
</metadata>
<defs>
<font id="BetaManifaPro2.2.2-Regular" horiz-adv-x="0" >
  <font-face 
    font-family="Beta Manifa Pro 2.2.2"
    font-weight="300"
    font-stretch="normal"
    units-per-em="2048"
    panose-1="0 0 4 0 0 0 0 0 0 0"
    ascent="1638"
    descent="-410"
    x-height="915"
    cap-height="1278"
    bbox="-317 -1335 12481 3533"
    underline-thickness="85"
    underline-position="-255"
    unicode-range="U+0020-FEFC"
  />
<missing-glyph horiz-adv-x="723" 
d="M553 0h-382v1572h382v-1572zM362 1287q48 0 83 33.5t35 80.5q0 50 -35 85t-83 35t-83 -35t-35 -85q0 -47 35 -80.5t83 -33.5zM362 1338q-26 0 -44.5 19t-18.5 44q0 29 18.5 47t44.5 18q28 0 45.5 -18t17.5 -47q0 -26 -17.5 -44.5t-45.5 -18.5zM364 1087q53 0 84.5 31
t31.5 83q1 48 -28 77l-37 -29q13 -20 13 -42q0 -28 -17 -44t-49 -16t-51 16.5t-19 43.5q0 5 1.5 13t1.5 12q5 11 14 21l-43 24q-19 -19 -19 -35l-5 -35q0 -53 34 -86.5t88 -33.5zM258 749v-8h218v61h-177q-7 28 -7 33q0 21 8.5 29t32.5 8h143v60h-148q-9 0 -29 -4
q-7 28 -7 33q0 41 41 41h143v56h-148q-43 0 -62 -15q-24 -21 -24 -70q0 -42 16 -74q-16 -30 -16 -58q0 -41 16 -92zM362 478q60 0 90 43q24 31 24 105v79h-123q-111 0 -111 -104q0 -58 35.5 -90.5t84.5 -32.5zM360 538q-30 0 -49 16.5t-19 42.5q0 53 68 53h65v-36
q0 -76 -65 -76zM360 317h116v62h-116q-65 0 -65 56q0 11 5 34l-53 14l-3 -43q0 -63 28.5 -93t87.5 -30zM362 56q61 0 90 40q15 23 19.5 45.5t4.5 65.5v78h-123q-111 0 -111 -106q0 -59 35 -91t85 -32zM360 116q-31 0 -49.5 15.5t-18.5 42.5q0 50 68 50h65v-36q0 -72 -65 -72
z" />
    <glyph glyph-name="trademark" unicode="TM" horiz-adv-x="1228" 
d="M212 1224h-174v54h404v-54h-174v-611h-56v611zM812 777l226 501h54v-665h-56v527l-196 -432h-55l-198 432v-527h-56v665h53z" />
    <glyph glyph-name="fi" unicode="fi" horiz-adv-x="776" 
d="M247 1072v-157h106v-92h-106v-823h-104v823h-71v92h71v157q0 110 45.5 163.5t139.5 53.5q113 0 310 -67v-92q-195 61 -295 61q-58 0 -77 -31t-19 -88zM638 148q0 -42 13 -54t62 -10v-89q-43 -5 -54 -5q-127 0 -127 160v765h106v-767z" />
    <glyph glyph-name="fl" unicode="fl" horiz-adv-x="786" 
d="M650 148q0 -42 12 -54t62 -10v-89q-38 -5 -53 -5q-127 0 -127 160v1000q-136 41 -201 41q-58 0 -77 -31t-19 -88v-157h106v-92h-106v-823h-104v823h-71v92h71v157q0 110 45.5 163.5t139.5 53.5q111 0 322 -77v-1064z" />
    <glyph glyph-name="uniFEF5" unicode="&#xfedf;&#xfe82;" horiz-adv-x="1041" arabic-form="isolated" 
d="M271 1161q-77 34 -132 26t-132 -59v96q77 53 132 61.5t132 -25.5q48 -22 83.5 -30.5t78.5 -4t89 27.5v-98q-46 -24 -89.5 -28.5t-78 4.5t-83.5 30zM821 297v981h106v-981q0 -160 -56 -228.5t-188 -68.5h-620v104h405l-219 811h109l219 -811h106q78 0 108 41.5t30 151.5z
" />
    <glyph glyph-name="uniFEF6" unicode="&#xfee0;&#xfe82;" horiz-adv-x="1174" arabic-form="final" 
d="M271 1161q-77 34 -132 26t-132 -59v96q77 53 132 61.5t132 -25.5q48 -22 83.5 -30.5t78.5 -4t89 27.5v-98q-46 -24 -89.5 -28.5t-78 4.5t-83.5 30zM1145 104h46v-104h-49q-86 0 -141 20t-115 69q-55 -89 -203 -89h-620v104h405l-219 811h109l219 -811h106q78 0 108 41.5
t30 151.5v981h106v-981q0 -58 -9 -116q52 -42 102.5 -59.5t124.5 -17.5z" />
    <glyph glyph-name="uniFEF7" unicode="&#xfedf;&#xfe84;" horiz-adv-x="1041" arabic-form="isolated" 
d="M273 1120h118v-64h-302v64h118q-67 128 -30 199.5t171 71.5h67v-60h-67q-103 0 -120 -48.5t45 -162.5zM821 297v981h106v-981q0 -160 -56 -228.5t-188 -68.5h-620v104h405l-219 811h109l219 -811h106q78 0 108 41.5t30 151.5z" />
    <glyph glyph-name="uniFEF8" unicode="&#xfee0;&#xfe84;" horiz-adv-x="1174" arabic-form="final" 
d="M273 1120h118v-64h-302v64h118q-67 128 -30 199.5t171 71.5h67v-60h-67q-103 0 -120 -48.5t45 -162.5zM1145 104h46v-104h-49q-86 0 -141 20t-115 69q-55 -89 -203 -89h-620v104h405l-219 811h109l219 -811h106q78 0 108 41.5t30 151.5v981h106v-981q0 -58 -9 -116
q52 -42 102.5 -59.5t124.5 -17.5z" />
    <glyph glyph-name="uniFEF9" unicode="&#xfedf;&#xfe88;" horiz-adv-x="1041" arabic-form="isolated" 
d="M821 297v981h106v-981q0 -160 -56 -228.5t-188 -68.5h-620v104h403l-254 947h109l254 -947h108q78 0 108 41.5t30 151.5zM319 -369h118q-67 128 -29.5 200t171.5 72h66v-60h-66q-103 0 -120.5 -49t44.5 -163h118v-63h-302v63z" />
    <glyph glyph-name="uniFEFA" unicode="&#xfee0;&#xfe88;" horiz-adv-x="1174" arabic-form="final" 
d="M1145 104h46v-104h-49q-86 0 -141 20t-115 69q-55 -89 -203 -89h-620v104h403l-254 947h109l254 -947h108q78 0 108 41.5t30 151.5v981h106v-981q0 -58 -9 -116q52 -42 102.5 -59.5t124.5 -17.5zM319 -369h118q-67 128 -29.5 200t171.5 72h66v-60h-66q-103 0 -120.5 -49
t44.5 -163h118v-63h-302v63z" />
    <glyph glyph-name="uniFEFB" unicode="&#xfedf;&#xfe8e;" horiz-adv-x="1041" arabic-form="isolated" 
d="M821 297v981h106v-981q0 -160 -56 -228.5t-188 -68.5h-620v104h403l-254 947h109l254 -947h108q78 0 108 41.5t30 151.5z" />
    <glyph glyph-name="uniFEFC" unicode="&#xfee0;&#xfe8e;" horiz-adv-x="1174" arabic-form="final" 
d="M1145 104h46v-104h-49q-86 0 -141 20t-115 69q-55 -89 -203 -89h-620v104h403l-254 947h109l254 -947h108q78 0 108 41.5t30 151.5v981h106v-981q0 -58 -9 -116q52 -42 102.5 -59.5t124.5 -17.5z" />
    <glyph glyph-name="saudi_SWCC" unicode="saudiSWCC&#x23;" horiz-adv-x="10920" 
d="M3594 0h302v1307h-233v-406q-83 55 -175 55h-23q-215 0 -348.5 -132t-133.5 -351q0 -129 42 -227t120 -150q86 -58 179 -77t270 -19zM4173 1024q56 0 93.5 38t37.5 92t-38.5 94.5t-92.5 40.5q-55 0 -93.5 -39.5t-38.5 -95.5q0 -54 38.5 -92t93.5 -38zM391 -20
q214 0 335 83t121 227q0 106 -71 171.5t-244 115.5q-115 35 -159.5 59t-44.5 57q0 37 47 57.5t118 20.5q106 0 249 -42l53 213q-157 36 -295 36q-193 0 -299.5 -81.5t-106.5 -215.5q0 -32 4.5 -57.5t22.5 -60t48.5 -62t88 -57t135.5 -51.5q23 -7 50 -14.5t43.5 -12
t35.5 -10.5t30 -9.5t23 -9t18 -10t11.5 -11t7.5 -13.5t2 -16q0 -44 -64 -73.5t-154 -29.5q-134 0 -319 89v-227q156 -66 314 -66zM7615 891v-891h246v730q75 23 136 23q87 0 120.5 -35.5t33.5 -128.5v-589h244v606q0 85 -10 121q73 26 131 26q85 0 126.5 -40.5t41.5 -123.5
v-589h242v608q0 90 -16.5 148t-55.5 101q-97 107 -288 107q-169 0 -301 -59q-99 59 -239 59q-199 0 -385 -65zM9515 -19h21.5t54 5t78 15t85 34t83.5 57l-119 154q-52 -30 -90.5 -41.5t-88.5 -11.5q-121 0 -188 72t-67 203q0 135 67.5 208t190.5 73q51 0 90 -10
q48 -16 94 -50l101 175q-13 11 -28 21.5t-27 17.5t-27.5 14t-24 10t-21.5 7.5t-15 5.5q-27 8 -66 13.5t-64 6.5l-26 1q-220 0 -354 -139t-134 -366q0 -217 129.5 -346t345.5 -129zM1539 0h335v505q0 220 -112.5 336t-324.5 116q-101 0 -185.5 -27.5t-143 -73.5t-99 -108.5
t-59 -131.5t-18.5 -143q0 -130 40.5 -227.5t119.5 -149.5q87 -58 178.5 -77t268.5 -19zM5402 0h331v505q0 221 -110.5 336.5t-321.5 115.5q-127 0 -227.5 -41.5t-160.5 -111t-91 -154t-31 -177.5q0 -129 42 -227t120 -150q86 -58 179 -77t270 -19zM7142 0h333v505
q0 220 -111.5 336t-321.5 116q-127 0 -227 -41.5t-160 -111t-91 -154t-31 -177.5q0 -130 40.5 -227.5t118.5 -149.5q89 -58 181.5 -77t268.5 -19zM5868 476v-476h250v480q0 123 63 193.5t171 70.5q75 0 140 -19l58 217q-43 6 -87 9.5t-67 4.5h-22q-259 0 -382.5 -117.5
t-123.5 -362.5zM10342 -19q132 0 243.5 65t176.5 176.5t65 243.5t-65 244t-176.5 177t-243.5 65q-130 0 -241.5 -65t-177 -177t-65.5 -244t65.5 -243.5t177 -176.5t241.5 -65zM2408 -19h43q102 0 174 16.5t127 56t81.5 110t26.5 174.5v607h-251v-592q0 -88 -39 -124
t-135 -36h-12q-94 0 -131 35.5t-37 124.5v592h-245v-607q0 -102 28 -173t82.5 -110.5t124 -56.5t163.5 -17zM4052 915v-915h242v915h-242zM1632 203h-152q-154 0 -226.5 67.5t-72.5 210.5q0 121 65 194.5t172 73.5q214 0 214 -273v-273zM3663 203h-132q-155 0 -226 67
t-71 211q0 122 64.5 195t174.5 73q102 0 146 -63.5t44 -212.5v-270zM5482 203h-147q-155 0 -227.5 67.5t-72.5 210.5q0 121 65 194.5t172 73.5q109 0 159.5 -66t50.5 -207v-273zM7235 203h-152q-156 0 -227.5 67t-71.5 211q0 122 63.5 195t173.5 73q214 0 214 -273v-273z
M10342 201q-109 0 -185 78.5t-76 186.5q0 109 75.5 185t185.5 76q109 0 185.5 -76t76.5 -185q0 -108 -77 -186.5t-185 -78.5z" />
    <glyph glyph-name="SWCC" unicode="SWCC&#x23;" horiz-adv-x="6222" 
d="M2917 891v-891h245v730q75 23 137 23q88 0 121 -35t33 -129v-589h245v606q0 85 -10 121q73 26 130 26q169 0 169 -164v-589h242v608q0 90 -17 148t-56 101q-97 107 -289 107q-168 0 -300 -59q-99 59 -237 59q-201 0 -388 -65zM4816 -19h21.5t54 5t78.5 15t85.5 34
t84.5 57l-121 154q-52 -30 -90.5 -41.5t-88.5 -11.5q-121 0 -186.5 72t-65.5 203q0 136 66.5 208.5t190.5 72.5q50 0 89 -10q48 -16 94 -50l101 175q-13 11 -28 21.5t-27.5 17.5t-28 14t-24 10t-21.5 7.5t-15 5.5q-27 8 -66 13.5t-64 6.5l-25 1q-220 0 -354 -139t-134 -366
q0 -217 129 -346t345 -129zM705 0h331v505q0 220 -111 336t-321 116q-127 0 -227.5 -41.5t-160.5 -111t-91 -154t-31 -177.5q0 -129 41.5 -226.5t118.5 -150.5q87 -58 180.5 -77t270.5 -19zM2446 0h332v505q0 220 -112 336t-323 116q-126 0 -226 -41.5t-160 -111t-91 -154
t-31 -177.5q0 -130 41 -227.5t119 -149.5q87 -58 180.5 -77t270.5 -19zM1169 476v-476h251v480q0 122 63.5 193t171.5 71q74 0 139 -19l59 217q-43 6 -87 9.5t-66 4.5h-22q-259 0 -384 -117.5t-125 -362.5zM5644 -19q132 0 243.5 65t176.5 176.5t65 243.5t-65 244
t-176.5 177t-243.5 65q-130 0 -241.5 -65t-176.5 -177t-65 -244t65 -243.5t176.5 -176.5t241.5 -65zM785 203h-147q-155 0 -228.5 67.5t-73.5 210.5q0 121 65 194.5t172 73.5q110 0 161 -66t51 -207v-273zM2538 203h-154q-155 0 -226.5 67t-71.5 211q0 122 63.5 195
t173.5 73q215 0 215 -273v-273zM5644 201q-109 0 -185 78.5t-76 186.5q0 109 75.5 185t185.5 76q109 0 185 -76t76 -185q0 -108 -76.5 -186.5t-184.5 -78.5z" />
    <glyph glyph-name="saudi_SWCC.ar" unicode="saudiSWCCar&#x23;" horiz-adv-x="11159" 
d="M10919 1341h121v-95h-327v95h41q-11 24 -11 52q0 74 46.5 113t131.5 39q36 0 78 -16l21 -7v-109q-46 33 -97 33q-40 0 -53.5 -9.5t-13.5 -40.5q0 -29 13 -40t50 -15zM6678 0h-218v1278h218v-1278zM7226 85q-71 45 -109 134t-38 206q0 84 28 160.5t82.5 138.5t144 99
t201.5 37q192 0 294 -103t102 -301v-267h351q146 0 205.5 49.5t59.5 167.5q0 61 -18.5 104.5t-50.5 64.5t-65.5 30t-73.5 9h-313v190q74 74 432 474h270l-434 -476h28q120 0 211.5 -36t142.5 -96t76 -128.5t25 -143.5q0 -121 -44 -209h195v267q0 198 101.5 301t292.5 103
q113 0 202 -37t143 -99t82 -138.5t28 -160.5q0 -123 -34.5 -206t-106 -131t-169.5 -68t-237 -20h-1292q-2 -206 -119.5 -310.5t-343.5 -104.5q-112 0 -276 29v214l13 -5q132 -45 250 -45q237 0 240 222h-73q-162 0 -243.5 16t-159.5 69zM9919 1278h220v-1278h-220v1278z
M5922 0h-20q-169 0 -270 46q-78 -55 -210 -55q-136 0 -271 50q-88 -50 -208 -50q-82 0 -132 9h-1519q-8 -415 -461 -415q-113 0 -274 29v214l13 -5q127 -45 246 -45q243 0 246 222h-74q-163 0 -246 16t-162 69q-67 45 -103 134t-36 206q0 84 27 160t80.5 138.5t142.5 99.5
t202 37q191 0 291 -103t100 -301v-267h343q-45 47 -85.5 99t-77.5 129.5t-37 142.5q0 73 41.5 132.5t110 97t153.5 57.5t175 20q125 0 233 -34t179.5 -105.5t71.5 -167.5q0 -76 -52.5 -173.5t-143.5 -197.5h379v588h222v-570q0 -18 53 -18h119q45 7 63.5 39t18.5 100v449
h227v-463q0 -72 -9 -113q57 -15 115 -15q75 0 108 33.5t33 108.5v449h222v-466q0 -64 -6 -101q62 -21 112 -21h58q84 0 117 30.5t33 109.5v948h226v-953q0 -86 -9 -123q-7 -34 -34 -76.5t-75 -71.5q-36 -24 -104.5 -38.5t-141.5 -14.5zM425 978q-52 0 -86 34t-34 85
q0 50 34.5 84t85.5 34q48 0 83 -35t35 -83q0 -51 -34.5 -85t-83.5 -34zM700 978q-51 0 -86 34t-35 85q0 50 36 84t85 34q46 0 81 -35t35 -83q0 -51 -33.5 -85t-82.5 -34zM10988 1142v-1142h-221v1142h221zM1219 329v531h225v-536q0 -173 -91 -248.5t-274 -75.5h-436
q-163 0 -245 16t-159 69q-70 45 -107.5 134t-37.5 206q0 84 28 160.5t82 138.5t143.5 99t202.5 37q192 0 291 -102.5t99 -301.5v-267h125q85 0 119.5 30.5t34.5 109.5zM2336 425v-425h-809v189h586v248q0 107 -57.5 171t-155.5 64h-192v188h178q114 0 203 -37t141.5 -99.5
t79 -138t26.5 -160.5zM9994 -399v215l28 -12q1 0 21.5 -6t37 -10t45 -8t56.5 -4q95 0 151.5 63t56.5 171v767h229v-765q0 -216 -111 -321.5t-341 -105.5q-56 0 -173 16zM3907 201q25 0 91 61.5t125.5 149.5t59.5 148q0 52 -81.5 84t-186.5 32q-107 0 -190 -32t-83 -84
q0 -60 60.5 -148.5t124 -149.5t80.5 -61zM589 189h131v239q0 123 -46 183.5t-142 60.5t-152 -64t-56 -171q0 -131 63 -189.5t202 -58.5zM2935 189h127v239q0 124 -45.5 184t-140.5 60q-97 0 -152.5 -64t-55.5 -171q0 -132 61.5 -190t205.5 -58zM7520 672q-96 0 -152.5 -64
t-56.5 -171q0 -131 61.5 -189.5t199.5 -58.5h128v239q0 125 -42.5 184.5t-137.5 59.5zM9153 428v-239h135q136 0 198.5 59t62.5 189q0 107 -57 171t-151 64q-188 0 -188 -244zM1039 -184q49 0 83.5 -35.5t34.5 -84.5q0 -48 -35 -83t-83 -35q-50 0 -83.5 34.5t-33.5 83.5
q0 51 33.5 85.5t83.5 34.5zM1314 -184q50 0 85.5 -35.5t35.5 -84.5q0 -48 -35.5 -83t-85.5 -35q-51 0 -85 34.5t-34 83.5q0 51 34 85.5t85 34.5z" />
    <glyph glyph-name="SWCC.ar" unicode="SWCCar&#x23;" horiz-adv-x="4183" 
d="M3942 1343h122v-97h-330v97h43q-12 24 -12 50q0 75 46.5 113.5t132.5 38.5q37 0 79 -16l18 -7v-109q-50 34 -95 34q-40 0 -55 -10.5t-15 -40.5q0 -29 13 -40t53 -13zM239 85q-69 48 -107 135.5t-38 204.5q0 66 17 128.5t54 118.5t89.5 97.5t128.5 66t167 24.5
q191 0 292.5 -103.5t101.5 -302.5v-266h355q146 0 206 49t60 167q0 61 -18.5 104.5t-51 65.5t-66.5 31t-74 9h-314v192q52 46 434 472h269l-433 -474h29q97 0 176 -24.5t130 -64.5t85.5 -94t49 -110t14.5 -115q0 -120 -47 -208h201v266q0 199 101 302.5t292 103.5
q113 0 202 -37t142.5 -99.5t81.5 -138.5t28 -160q0 -123 -34.5 -206.5t-106.5 -131t-169.5 -67.5t-237.5 -20h-1296q-4 -207 -120.5 -312.5t-341.5 -105.5q-113 0 -277 29v215l14 -5q128 -43 249 -43q240 0 243 222h-74q-162 0 -245 16.5t-161 68.5zM2939 1278h222v-1278
h-222v1278zM4009 1142v-1142h-222v1142h222zM3012 -401v215l28 -12q2 0 16 -4t27 -7t32 -7t41.5 -6t45.5 -2q96 0 151 62t55 171v768h232v-765q0 -216 -112.5 -323t-342.5 -107q-70 0 -173 17zM532 671q-95 0 -150.5 -64.5t-55.5 -171.5q0 -131 61 -189t200 -58h130v240
q0 124 -44 183.5t-141 59.5zM2173 428v-240h131q139 0 201 58t62 189q0 107 -56 171.5t-151 64.5q-97 0 -142 -59.5t-45 -183.5z" />
    <glyph glyph-name="fulllogo" unicode="fulllogo&#x23;" horiz-adv-x="5072" 
d="M4854 1306h54v-43h-145v43h19q-5 12 -5 22q0 66 78 66q23 0 35 -6l8 -4v-48q-20 16 -43 16q-17 0 -23 -4.5t-6 -18.5q0 -13 5.5 -17t22.5 -6zM2657 717h-10q-75 0 -118 20q-34 -24 -92 -24q-61 0 -119 23q-35 -23 -93 -23q-33 0 -58 4h-667q-3 -185 -201 -185
q-46 0 -121 14v94l5 -2q53 -18 109 -18q104 0 107 97h-32q-71 0 -107.5 7t-71.5 30q-62 41 -62 149q0 79 50.5 135t147.5 56q85 0 129 -45.5t44 -133.5v-116h152q-89 95 -89 164q0 63 63.5 98.5t148.5 35.5q86 0 148.5 -35.5t62.5 -98.5q0 -74 -85 -164h165v259h99v-251
q0 -8 23 -8h52q38 7 38 59v200h97v-205q0 -33 -3 -47q24 -7 51 -7q33 0 48 14t15 45v200h97v-206q0 -22 -3 -43q27 -10 50 -10h25q36 0 50.5 14t14.5 47v417h99v-419q0 -38 -3 -52q-5 -41 -48 -67q-35 -22 -108 -22zM2990 717h-97v560h97v-560zM3229 754q-63 41 -63 149
q0 79 51.5 135t148.5 56q85 0 129.5 -45.5t44.5 -133.5v-116h155q63 0 89.5 22t26.5 73q0 92 -92 92h-137v84q15 15 190 207h117l-189 -209h12q102 0 151 -53t49 -124q0 -53 -21 -92h89v116q0 88 44 133.5t128 45.5q97 0 148.5 -56t51.5 -135q0 -104 -58.5 -145t-182.5 -41
h-568q-5 -185 -203 -185q-44 0 -123 14v94l7 -2q53 -18 109 -18q105 0 108 97h-33q-72 0 -108 7t-71 30zM4415 1277h97v-560h-97v560zM239 1145q-22 0 -36.5 15.5t-14.5 37.5t14.5 36.5t36.5 14.5t37.5 -14.5t15.5 -36.5t-15 -37.5t-38 -15.5zM360 1145q-22 0 -37.5 15.5
t-15.5 37.5t15.5 36.5t37.5 14.5q21 0 36 -15t15 -36q0 -22 -14.5 -37.5t-36.5 -15.5zM4884 1219v-502h-97v502h97zM589 860v234h99v-236q0 -75 -40.5 -108t-120.5 -33h-192q-71 0 -107 7t-69 30q-65 43 -65 149q0 79 52 135t149 56q84 0 128.5 -45.5t44.5 -133.5v-116h54
q37 0 52 14t15 47zM1080 903v-186h-355v82h256v109q0 46 -25 75t-67 29h-85v82h78q97 0 147.5 -56t50.5 -135zM4446 541v94l14 -5q2 0 9.5 -2.5t15 -4.5t20 -3.5t24.5 -1.5q42 0 67.5 27.5t25.5 74.5v338h100v-336q0 -96 -49 -143t-150 -47q-19 0 -77 9zM312 799h57v106
q0 107 -82 107q-42 0 -67 -29t-25 -75q0 -58 27.5 -83.5t89.5 -25.5zM1343 799h56v106q0 107 -81 107q-42 0 -67.5 -29t-25.5 -75q0 -58 27.5 -83.5t90.5 -25.5zM1772 806q18 0 68.5 59t50.5 98q0 23 -35 36t-81 13q-49 0 -85 -13t-36 -36q0 -38 51.5 -97.5t66.5 -59.5z
M3359 1012q-42 0 -66.5 -29t-24.5 -75q0 -58 27 -83.5t88 -25.5h56v106q0 107 -80 107zM4077 905v-106h58q61 0 88.5 25.5t27.5 83.5q0 46 -24.5 75t-65.5 29q-84 0 -84 -107zM510 635q22 0 37.5 -15.5t15.5 -37.5q0 -20 -15.5 -35.5t-37.5 -15.5t-37.5 14.5t-15.5 36.5
q0 23 15.5 38t37.5 15zM630 635q22 0 38 -15.5t16 -37.5q0 -20 -16 -35.5t-38 -15.5t-36.5 14.5t-14.5 36.5q0 23 14.5 38t36.5 15zM2219 0v517h-94v-162q-31 22 -68 22h-11q-85 0 -137 -52t-52 -139q0 -105 65 -148q34 -23 71 -30.5t106 -7.5h120zM2326 509q21 0 37 -16
t16 -37q0 -22 -15 -37t-38 -15q-22 0 -36.5 15t-14.5 37t14.5 37.5t36.5 15.5zM889 227q69 -19 97 -45t28 -68q0 -57 -47.5 -90t-131.5 -33q-58 0 -125 28v89q78 -35 126 -35q35 0 60.5 12t25.5 28q0 4 -0.5 6.5t-3 5.5t-4.5 4.5t-7 3.5t-9 3.5t-11.5 4t-14 4t-17.5 4.5
t-20 6q-50 14 -78 36t-34 38.5t-6 38.5q0 54 42 86t118 32q57 0 116 -14l-20 -84q-66 17 -99 17q-28 0 -46.5 -8.5t-18.5 -23.5q0 -13 16 -21.5t64 -24.5zM4060 381q77 0 115 -43q29 -32 29 -99v-239h-96v232q0 65 -67 65q-24 0 -51 -10q4 -16 4 -48v-239h-96v232
q0 37 -13.5 51t-47.5 14q-29 0 -55 -9v-288h-96v352l11 3q73 26 152 26q52 0 93 -24q54 24 118 24zM4444 77q36 0 72 20l48 -61q-23 -20 -55 -31t-53 -11l-20 -1q-86 0 -137 50.5t-51 137.5q0 89 53 143.5t140 54.5q37 0 61 -9q34 -7 57 -29l-40 -70q-8 7 -17.5 12t-14.5 7
l-5 2q-10 3 -36 3q-49 0 -75 -28.5t-26 -82.5q0 -51 26 -79t73 -28zM1420 0v200q0 87 -44.5 132t-129.5 45q-96 0 -147 -56t-51 -135q0 -108 63 -148q34 -23 70.5 -30.5t105.5 -7.5h133zM2942 0v200q0 87 -43.5 132t-126.5 45q-97 0 -149.5 -56t-52.5 -135q0 -105 65 -148
q34 -23 71.5 -30.5t106.5 -7.5h129zM3197 377q30 0 68 -5l-22 -85q-28 7 -57 7q-42 0 -67 -28t-25 -77v-189h-99v188q0 97 49 143t153 46zM3630 0v200q0 87 -44 132t-127 45q-97 0 -149 -56t-52 -135q0 -107 63 -148q35 -23 72 -30.5t106 -7.5h131zM4762 375q80 0 136 -56
t56 -135t-56 -135t-136 -56q-78 0 -135 56t-57 135t57 135t135 56zM1710 140v234h99v-241q0 -79 -40 -109.5t-122 -30.5h-17q-77 0 -117 31t-40 109v241h97v-234q0 -35 15 -49t52 -14h5q37 0 52.5 14.5t15.5 48.5zM2374 0h-96v362h96v-362zM1323 188v-108h-58
q-62 0 -91 26.5t-29 82.5q0 48 26 77t68 29q84 0 84 -107zM2125 186v-106h-51q-61 0 -89.5 26.5t-28.5 82.5q0 48 26 77t68 29q41 0 58 -25t17 -84zM2843 188v-108h-58q-61 0 -89 26t-28 83q0 49 25 77.5t67 28.5q43 0 63 -26t20 -81zM3536 188v-108h-61q-61 0 -89.5 26.5
t-28.5 82.5q0 49 25.5 77.5t68.5 28.5q85 0 85 -107zM4762 80q43 0 73.5 31t30.5 73t-30.5 72.5t-73.5 30.5q-42 0 -72.5 -30.5t-30.5 -72.5t30.5 -73t72.5 -31z" />
    <glyph glyph-name="uni066E.init" unicode="&#x66e;" horiz-adv-x="512" 
d="M188 0h-205v104h205q78 0 108 41.5t30 151.5v478h106v-478q0 -160 -56 -228.5t-188 -68.5z" />
    <glyph glyph-name="uni066E.fina" unicode="&#x66e;" horiz-adv-x="1658" 
d="M1632 104h44v-104h-48q-80 0 -134 18.5t-110 63.5q-56 -82 -198 -82h-862q-132 0 -188 68.5t-56 228.5v323h106v-323q0 -110 30 -151.5t108 -41.5h862q78 0 108 41.5t30 151.5v478h106v-478q0 -74 -10 -125q46 -37 94.5 -52.5t117.5 -15.5z" />
    <glyph glyph-name="uni06A1.init" unicode="&#x6a1;" horiz-adv-x="896" 
d="M474 777h308v-777h-799v104h224q-86 93 -86 289t86 290t267 94zM227 393q0 -154 57.5 -220.5t189.5 -68.5h204v567h-204q-132 0 -189.5 -64t-57.5 -214z" />
    <glyph glyph-name="uni06A1.medi" unicode="&#x6a1;" horiz-adv-x="930" 
d="M782 777v-675h165v-102h-964v104h224q-86 93 -86 289t86 290t267 94h308zM227 393q0 -154 57.5 -220.5t189.5 -68.5h204v567h-204q-132 0 -189.5 -64t-57.5 -214z" />
    <glyph glyph-name="uni06A1.fina" unicode="&#x6a1;" horiz-adv-x="1792" 
d="M1644 777v-673h165v-104h-1485q-132 0 -188 68.5t-56 228.5v323h106v-323q0 -110 30 -151.5t108 -41.5h744q-85 92 -85 289q0 196 86 290t267 94h308zM1089 393q0 -154 57.5 -220.5t189.5 -68.5h203v567h-203q-132 0 -189.5 -64t-57.5 -214z" />
    <glyph glyph-name="uniFB51" unicode="&#x671;" horiz-adv-x="602" arabic-form="final" 
d="M427 104h204v-104h-204q-132 0 -188 68.5t-56 228.5v981h105v-981q0 -110 30.5 -151.5t108.5 -41.5z" />
    <glyph glyph-name="uniFB57" unicode="&#x67e;" horiz-adv-x="1658" arabic-form="final" 
d="M1632 104h44v-104h-48q-80 0 -134 18.5t-110 63.5q-56 -82 -198 -82h-862q-132 0 -188 68.5t-56 228.5v323h106v-323q0 -110 30 -151.5t108 -41.5h862q78 0 108 41.5t30 151.5v478h106v-478q0 -74 -10 -125q46 -37 94.5 -52.5t117.5 -15.5zM621 -195q33 0 53.5 -20
t20.5 -53t-20.5 -52.5t-53.5 -19.5t-53 19.5t-20 52.5t20 53t53 20zM891 -195q33 0 53 -20t20 -53t-20 -52.5t-53 -19.5t-53.5 19.5t-20.5 52.5t20.5 53t53.5 20zM756 -449q33 0 53 -20t20 -53t-20 -52.5t-53 -19.5t-53 19.5t-20 52.5t20 53t53 20z" />
    <glyph glyph-name="uniFB58" unicode="&#x67e;" horiz-adv-x="597" arabic-form="initial" 
d="M273 0h-290v104h290q78 0 108 41.5t30 151.5v478h106v-478q0 -160 -56 -228.5t-188 -68.5zM126 -195q33 0 53.5 -20t20.5 -53t-20.5 -52.5t-53.5 -19.5t-52 19.5t-19 52.5t19 53t52 20zM396 -195q33 0 53 -20t20 -53t-20 -52.5t-53 -19.5t-52.5 19.5t-19.5 52.5t19.5 53
t52.5 20zM261 -449q33 0 53.5 -20t20.5 -53t-20.5 -52.5t-53.5 -19.5t-52.5 19.5t-19.5 52.5t19.5 53t52.5 20z" />
    <glyph glyph-name="uniFB59" unicode="&#x67e;" horiz-adv-x="742" arabic-form="medial" 
d="M715 104h44v-104h-47q-79 0 -132 18.5t-109 61.5q-56 -80 -198 -80h-290v104h290q78 0 108 41.5t30 151.5v478h106v-478q0 -77 -12 -128q48 -35 95.5 -50t114.5 -15zM121 -195q33 0 53.5 -20t20.5 -53t-20.5 -52.5t-53.5 -19.5t-53 19.5t-20 52.5t20 53t53 20zM391 -195
q33 0 53 -20t20 -53t-20 -52.5t-53 -19.5t-53.5 19.5t-20.5 52.5t20.5 53t53.5 20zM256 -449q33 0 53 -20t20 -53t-20 -52.5t-53 -19.5t-53 19.5t-20 52.5t20 53t53 20z" />
    <glyph glyph-name="uniFB7B" unicode="&#x686;" horiz-adv-x="1114" arabic-form="final" 
d="M975 321v-217h157v-104h-782q-173 0 -173 -164t173 -164h169v-104h-162q-137 0 -211 70.5t-74 199.5q0 128 74 197t211 69h513v217q0 190 -72 274t-238 84h-243v96h243q212 0 313.5 -111t101.5 -343zM707 -195q33 0 53 -20t20 -53t-20 -52.5t-53 -19.5t-53.5 19.5
t-20.5 52.5t20.5 53t53.5 20zM976 -195q33 0 53.5 -20t20.5 -53t-20.5 -52.5t-53.5 -19.5t-53 19.5t-20 52.5t20 53t53 20zM841 -449q33 0 53.5 -20t20.5 -53t-20.5 -52.5t-53.5 -19.5t-53 19.5t-20 52.5t20 53t53 20z" />
    <glyph glyph-name="uniFB7C" unicode="&#x686;" horiz-adv-x="878" arabic-form="initial" 
d="M116 775h242q212 0 313.5 -111t101.5 -343v-321h-790v104h686v217q0 190 -72.5 274t-238.5 84h-242v96zM256 -205q33 0 52.5 -20t19.5 -53t-19.5 -52.5t-52.5 -19.5t-53 19.5t-20 52.5t20 53t53 20zM526 -205q33 0 52 -20t19 -53t-19 -52.5t-52 -19.5t-53.5 19.5
t-20.5 52.5t20.5 53t53.5 20zM391 -459q33 0 52.5 -20t19.5 -53t-19.5 -52.5t-52.5 -19.5t-53.5 19.5t-20.5 52.5t20.5 53t53.5 20z" />
    <glyph glyph-name="uniFB7D" unicode="&#x686;" horiz-adv-x="913" arabic-form="medial" 
d="M773 321v-217h157v-104h-947v104h686v217q0 190 -72.5 274t-238.5 84h-242v96h242q212 0 313.5 -111t101.5 -343zM261 -205q33 0 53.5 -20t20.5 -53t-20.5 -52.5t-53.5 -19.5t-53 19.5t-20 52.5t20 53t53 20zM531 -205q33 0 53 -20t20 -53t-20 -52.5t-53 -19.5
t-53.5 19.5t-20.5 52.5t20.5 53t53.5 20zM396 -459q33 0 53 -20t20 -53t-20 -52.5t-53 -19.5t-53 19.5t-20 52.5t20 53t53 20z" />
    <glyph glyph-name="uniFB8B" unicode="&#x698;" horiz-adv-x="476" arabic-form="final" 
d="M276 1299q-33 0 -53 20t-20 53t20 53.5t53 20.5t52.5 -20.5t19.5 -53.5t-19.5 -53t-52.5 -20zM142 1044q-33 0 -53.5 20.5t-20.5 53.5t20.5 53t53.5 20t52 -20t19 -53t-19 -53.5t-52 -20.5zM411 1044q-33 0 -53 20.5t-20 53.5t20 53t53 20t52.5 -20t19.5 -53t-19.5 -53.5
t-52.5 -20.5zM449 104h44v-104h-48q-71 0 -116 32v-1q0 -228 -97 -340t-300 -119v102q154 0 223 85.5t69 271.5v744h105v-616q55 -55 120 -55z" />
    <glyph glyph-name="uniFB8F" unicode="&#x6a9;" horiz-adv-x="1612" arabic-form="final" 
d="M1585 108h45v-105h-48q-73 0 -122.5 16.5t-97.5 55.5q-82 -75 -246 -75h-792q-132 0 -188 68.5t-56 228.5v323h106v-323q0 -110 30 -151.5t108 -41.5h792q124 0 179 57.5t55 186.5t-55 186t-179 57h-481v93l526 605l76 -70l-452 -524h331q173 0 256.5 -85t83.5 -262
q0 -123 -38 -198q65 -42 167 -42z" />
    <glyph glyph-name="uniFB90" unicode="&#x6a9;" horiz-adv-x="1049" arabic-form="initial" 
d="M604 591h-481v93l526 605l76 -70l-452 -524h331q173 0 256.5 -85t83.5 -262t-83.5 -262.5t-256.5 -85.5h-621v104h621q124 0 179 57.5t55 186.5t-55 186t-179 57z" />
    <glyph glyph-name="uniFB91" unicode="&#x6a9;" horiz-adv-x="1100" arabic-form="medial" 
d="M1073 104h45v-104h-48q-74 0 -124.5 16t-102.5 54q-82 -70 -239 -70h-621v104h621q124 0 179 57.5t55 186.5t-55 186t-179 57h-481v93l526 605l76 -70l-452 -524h331q173 0 256.5 -85t83.5 -262q0 -125 -41 -205q69 -39 170 -39z" />
    <glyph glyph-name="uniFB93" unicode="&#x6af;" horiz-adv-x="1612" arabic-form="final" 
d="M1585 108h45v-105h-48q-73 0 -122.5 16.5t-97.5 55.5q-82 -75 -246 -75h-792q-132 0 -188 68.5t-56 228.5v323h106v-323q0 -110 30 -151.5t108 -41.5h792q124 0 179 57.5t55 186.5t-55 186t-179 57h-481v93l526 605l76 -70l-452 -524h331q173 0 256.5 -85t83.5 -262
q0 -123 -38 -198q65 -42 167 -42zM930 1289l56 -50l-334 -381l-56 48z" />
    <glyph glyph-name="uniFB94" unicode="&#x6af;" horiz-adv-x="1049" arabic-form="initial" 
d="M604 591h-481v93l526 605l76 -70l-452 -524h331q173 0 256.5 -85t83.5 -262t-83.5 -262.5t-256.5 -85.5h-621v104h621q124 0 179 57.5t55 186.5t-55 186t-179 57zM474 1239l-334 -381l-56 48l334 383z" />
    <glyph glyph-name="uniFB95" unicode="&#x6af;" horiz-adv-x="1100" arabic-form="medial" 
d="M1073 104h45v-104h-48q-74 0 -124.5 16t-102.5 54q-82 -70 -239 -70h-621v104h621q124 0 179 57.5t55 186.5t-55 186t-179 57h-481v93l526 605l76 -70l-452 -524h331q173 0 256.5 -85t83.5 -262q0 -125 -41 -205q69 -39 170 -39zM418 1289l56 -50l-334 -381l-56 48z" />
    <glyph glyph-name="uniFB9F" unicode="&#x6ba;" horiz-adv-x="1206" arabic-form="final" 
d="M1179 104h45v-104h-48q-63 0 -104 24q0 -239 -122 -354t-377 -115q-252 0 -372.5 115t-120.5 354v449h104v-449q0 -195 91 -280t298 -85q209 0 302 85t93 280v730h104v-607q47 -43 107 -43z" />
    <glyph glyph-name="uniFBFD" unicode="&#x6cc;" horiz-adv-x="1686" arabic-form="final" 
d="M1232 631l224 -409q38 -69 70.5 -93.5t86.5 -24.5h90v-104h-90q-86 0 -140 38t-108 136l-223 408q-40 72 -89.5 98.5t-130.5 26.5q-103 0 -149 -35.5t-46 -113.5q0 -68 37.5 -107.5t128.5 -75.5q51 -21 77 -32t65.5 -28.5t58.5 -29.5t46.5 -31t40.5 -35.5t28.5 -39.5
t22 -48.5t11.5 -57t5 -68.5q0 -139 -60.5 -206t-185.5 -67h-587q-170 0 -252.5 93t-82.5 286v333h106v-333q0 -145 54.5 -210t174.5 -65h587q73 0 105.5 39.5t32.5 129.5q0 59 -10.5 96.5t-46 66t-66 43.5t-107.5 45q-12 5 -19.5 8t-19 7.5t-21.5 8.5q-124 51 -176.5 110.5
t-52.5 165.5q0 129 75 191t231 62q44 0 81 -5.5t62.5 -12t49 -22.5t36.5 -26.5t30 -35t23.5 -35.5t22.5 -41z" />
    <glyph glyph-name="uniFBFE" unicode="&#x6cc;" horiz-adv-x="597" arabic-form="initial" 
d="M273 0h-290v104h290q78 0 108 41.5t30 151.5v478h106v-478q0 -160 -56 -228.5t-188 -68.5zM85 -432q-33 0 -52 20.5t-19 53.5t19 52t52 19t53.5 -19t20.5 -52t-20.5 -53.5t-53.5 -20.5zM355 -432q-33 0 -52.5 20.5t-19.5 53.5t19.5 52t52.5 19t53 -19t20 -52t-20 -53.5
t-53 -20.5z" />
    <glyph glyph-name="uniFBFF" unicode="&#x6cc;" horiz-adv-x="742" arabic-form="medial" 
d="M715 104h44v-104h-47q-79 0 -132 18.5t-109 61.5q-56 -80 -198 -80h-290v104h290q78 0 108 41.5t30 151.5v478h106v-478q0 -77 -12 -128q48 -35 95.5 -50t114.5 -15zM89 -287q33 0 53 -19t20 -52t-20 -53.5t-53 -20.5t-53.5 20.5t-20.5 53.5t20.5 52t53.5 19zM358 -287
q33 0 53.5 -19t20.5 -52t-20.5 -53.5t-53.5 -20.5t-53 20.5t-20 53.5t20 52t53 19z" />
    <glyph glyph-name="uniFD3C" unicode="&#xfd3c;" horiz-adv-x="614" arabic-form="final" 
d="M77 1193l225 135v-53l-225 -135v53zM77 1058l225 135v-53l-225 -135v53zM427 104h204v-104h-204q-132 0 -188 68.5t-56 228.5v618h105v-618q0 -110 30.5 -151.5t108.5 -41.5z" />
    <glyph glyph-name="uniFD3D" unicode="&#xfd3d;" horiz-adv-x="469" arabic-form="isolated" 
d="M350 1277l-227 -135v51l227 135v-51zM350 1142l-227 -135v51l227 135v-51zM287 0h-104v915h104v-915z" />
    <glyph glyph-name="uniFE82" unicode="&#x622;" horiz-adv-x="614" arabic-form="final" 
d="M505 1253v-98q-46 -24 -89 -28.5t-77 4.5t-83 30q-77 34 -132.5 26t-132.5 -59v96q77 53 132.5 61.5t132.5 -25.5q48 -22 82.5 -30.5t77.5 -4t89 27.5zM427 104h204v-104h-204q-132 0 -188 68.5t-56 228.5v618h105v-618q0 -110 30.5 -151.5t108.5 -41.5z" />
    <glyph glyph-name="uniFE84" unicode="&#x623;" horiz-adv-x="614" arabic-form="final" 
d="M254 1120h120v-64h-304v64h118q-67 128 -30 199.5t171 71.5h69v-60h-69q-103 0 -120 -48.5t45 -162.5zM427 104h204v-104h-204q-132 0 -188 68.5t-56 228.5v618h105v-618q0 -110 30.5 -151.5t108.5 -41.5z" />
    <glyph glyph-name="uniFE86" unicode="&#x624;" horiz-adv-x="964" arabic-form="final" 
d="M457 1120h118v-64h-302v64h118q-67 128 -30 199.5t171 71.5h67v-60h-67q-103 0 -120 -48.5t45 -162.5zM790 104h191v-104h-191v-34q0 -203 -99 -300.5t-305 -97.5h-120v97h120q157 0 228.5 71.5t71.5 229.5v34h-241q-178 0 -263 98t-85 303q0 207 85 306.5t263 99.5
q177 0 261 -99.5t84 -306.5v-297zM445 104h239v297q0 164 -56 235.5t-183 71.5q-129 0 -186.5 -71.5t-57.5 -235.5q0 -157 56.5 -227t187.5 -70z" />
    <glyph glyph-name="uniFE88" unicode="&#x625;" horiz-adv-x="602" arabic-form="final" 
d="M427 104h204v-104h-204q-132 0 -188 68.5t-56 228.5v981h105v-981q0 -110 30.5 -151.5t108.5 -41.5zM72 -369h117q-67 128 -29.5 200t171.5 72h68v-60h-68q-103 0 -120 -49t45 -163h119v-63h-303v63z" />
    <glyph glyph-name="uniFE8A" unicode="&#x626;" horiz-adv-x="1686" arabic-form="final" 
d="M295 572h-302v63h118q-67 128 -29.5 199.5t171.5 71.5h66v-59h-66q-103 0 -120.5 -49t44.5 -163h118v-63zM1232 631l224 -409q38 -69 70.5 -93.5t86.5 -24.5h90v-104h-90q-86 0 -140 38t-108 136l-223 408q-40 72 -89.5 98.5t-130.5 26.5q-103 0 -149 -35.5t-46 -113.5
q0 -68 37.5 -107.5t128.5 -75.5q51 -21 77 -32t65.5 -28.5t58.5 -29.5t46.5 -31t40.5 -35.5t28.5 -39.5t22 -48.5t11.5 -57t5 -68.5q0 -139 -60.5 -206t-185.5 -67h-587q-170 0 -252.5 93t-82.5 286v333h106v-333q0 -145 54.5 -210t174.5 -65h587q73 0 105.5 39.5
t32.5 129.5q0 59 -10.5 96.5t-46 66t-66 43.5t-107.5 45q-12 5 -19.5 8t-19 7.5t-21.5 8.5q-124 51 -176.5 110.5t-52.5 165.5q0 129 75 191t231 62q44 0 81 -5.5t62.5 -12t49 -22.5t36.5 -26.5t30 -35t23.5 -35.5t22.5 -41z" />
    <glyph glyph-name="uniFE8B" unicode="&#x626;" horiz-adv-x="512" arabic-form="initial" 
d="M335 932h-303v63h118q-67 128 -29.5 199.5t171.5 71.5h66v-59h-66q-103 0 -120 -49t45 -163h118v-63zM188 0h-205v104h205q78 0 108 41.5t30 151.5v478h106v-478q0 -160 -56 -228.5t-188 -68.5z" />
    <glyph glyph-name="uniFE8C" unicode="&#x626;" horiz-adv-x="657" arabic-form="medial" 
d="M201 995h118v-63h-302v63h118q-67 128 -30 199.5t171 71.5h67v-59h-67q-103 0 -120 -49t45 -163zM630 104h44v-104h-48q-79 0 -131.5 18t-108.5 62q-56 -80 -198 -80h-205v104h205q78 0 108 41.5t30 151.5v478h106v-478q0 -77 -12 -128q48 -35 95.5 -50t114.5 -15z" />
    <glyph glyph-name="uniFE8E" unicode="&#x627;" horiz-adv-x="602" arabic-form="final" 
d="M427 104h204v-104h-204q-132 0 -188 68.5t-56 228.5v981h105v-981q0 -110 30.5 -151.5t108.5 -41.5z" />
    <glyph glyph-name="uniFE90" unicode="&#x628;" horiz-adv-x="1658" arabic-form="final" 
d="M1632 104h44v-104h-48q-80 0 -134 18.5t-110 63.5q-56 -82 -198 -82h-862q-132 0 -188 68.5t-56 228.5v323h106v-323q0 -110 30 -151.5t108 -41.5h862q78 0 108 41.5t30 151.5v478h106v-478q0 -74 -10 -125q46 -37 94.5 -52.5t117.5 -15.5zM756 -287q33 0 53 -19t20 -52
t-20 -53.5t-53 -20.5t-53 20.5t-20 53.5t20 52t53 19z" />
    <glyph glyph-name="uniFE91" unicode="&#x628;" horiz-adv-x="512" arabic-form="initial" 
d="M188 0h-205v104h205q78 0 108 41.5t30 151.5v478h106v-478q0 -160 -56 -228.5t-188 -68.5zM150 -432q-33 0 -52 20.5t-19 53.5t19 52t52 19t53.5 -19t20.5 -52t-20.5 -53.5t-53.5 -20.5z" />
    <glyph glyph-name="uniFE92" unicode="&#x628;" horiz-adv-x="657" arabic-form="medial" 
d="M630 104h44v-104h-48q-79 0 -131.5 18t-108.5 62q-56 -80 -198 -80h-205v104h205q78 0 108 41.5t30 151.5v478h106v-478q0 -77 -12 -128q48 -35 95.5 -50t114.5 -15zM150 -287q33 0 53.5 -19t20.5 -52t-20.5 -53.5t-53.5 -20.5t-52 20.5t-19 53.5t19 52t52 19z" />
    <glyph glyph-name="uniFE94" unicode="&#x629;" horiz-adv-x="930" arabic-form="final" 
d="M316 1142q-33 0 -53.5 20t-20.5 53t20.5 53.5t53.5 20.5t53 -20.5t20 -53.5t-20 -53t-53 -20zM585 1142q-33 0 -53 20t-20 53t20 53.5t53 20.5t53.5 -20.5t20.5 -53.5t-20.5 -53t-53.5 -20zM799 401v-297h148v-104h-493q-178 0 -263 98t-85 303q0 207 85 306.5t263 99.5
q177 0 261 -99.5t84 -306.5zM454 104h239v297q0 164 -56 235.5t-183 71.5q-129 0 -186.5 -71.5t-57.5 -235.5q0 -157 56.5 -227t187.5 -70z" />
    <glyph glyph-name="uniFE96" unicode="&#x62a;" horiz-adv-x="1658" arabic-form="final" 
d="M621 1142q-33 0 -53 20t-20 53t20 53.5t53 20.5t53.5 -20.5t20.5 -53.5t-20.5 -53t-53.5 -20zM891 1142q-33 0 -53.5 20t-20.5 53t20.5 53.5t53.5 20.5t53 -20.5t20 -53.5t-20 -53t-53 -20zM1632 104h44v-104h-48q-80 0 -134 18.5t-110 63.5q-56 -82 -198 -82h-862
q-132 0 -188 68.5t-56 228.5v323h106v-323q0 -110 30 -151.5t108 -41.5h862q78 0 108 41.5t30 151.5v478h106v-478q0 -74 -10 -125q46 -37 94.5 -52.5t117.5 -15.5z" />
    <glyph glyph-name="uniFE97" unicode="&#x62a;" horiz-adv-x="597" arabic-form="initial" 
d="M145 1142q-33 0 -53 20t-20 53t20 53.5t53 20.5t53 -20.5t20 -53.5t-20 -53t-53 -20zM415 1142q-33 0 -53.5 20t-20.5 53t20.5 53.5t53.5 20.5t53 -20.5t20 -53.5t-20 -53t-53 -20zM273 0h-290v104h290q78 0 108 41.5t30 151.5v478h106v-478q0 -160 -56 -228.5
t-188 -68.5z" />
    <glyph glyph-name="uniFE98" unicode="&#x62a;" horiz-adv-x="742" arabic-form="medial" 
d="M148 1142q-33 0 -53 20t-20 53t20 53.5t53 20.5t53.5 -20.5t20.5 -53.5t-20.5 -53t-53.5 -20zM418 1142q-33 0 -53 20t-20 53t20 53.5t53 20.5t53.5 -20.5t20.5 -53.5t-20.5 -53t-53.5 -20zM715 104h44v-104h-47q-79 0 -132 18.5t-109 61.5q-56 -80 -198 -80h-290v104
h290q78 0 108 41.5t30 151.5v478h106v-478q0 -77 -12 -128q48 -35 95.5 -50t114.5 -15z" />
    <glyph glyph-name="uniFE9A" unicode="&#x62b;" horiz-adv-x="1658" arabic-form="final" 
d="M756 1299q-33 0 -53 20t-20 53t20 53.5t53 20.5t53 -20.5t20 -53.5t-20 -53t-53 -20zM621 1044q-33 0 -53 20.5t-20 53.5t20 53t53 20t53.5 -20t20.5 -53t-20.5 -53.5t-53.5 -20.5zM891 1044q-33 0 -53.5 20.5t-20.5 53.5t20.5 53t53.5 20t53 -20t20 -53t-20 -53.5
t-53 -20.5zM1632 104h44v-104h-48q-80 0 -134 18.5t-110 63.5q-56 -82 -198 -82h-862q-132 0 -188 68.5t-56 228.5v323h106v-323q0 -110 30 -151.5t108 -41.5h862q78 0 108 41.5t30 151.5v478h106v-478q0 -74 -10 -125q46 -37 94.5 -52.5t117.5 -15.5z" />
    <glyph glyph-name="uniFE9B" unicode="&#x62b;" horiz-adv-x="597" arabic-form="initial" 
d="M280 1299q-33 0 -53 20t-20 53t20 53.5t53 20.5t53 -20.5t20 -53.5t-20 -53t-53 -20zM145 1044q-33 0 -53 20.5t-20 53.5t20 53t53 20t53 -20t20 -53t-20 -53.5t-53 -20.5zM415 1044q-33 0 -53.5 20.5t-20.5 53.5t20.5 53t53.5 20t53 -20t20 -53t-20 -53.5t-53 -20.5z
M273 0h-290v104h290q78 0 108 41.5t30 151.5v478h106v-478q0 -160 -56 -228.5t-188 -68.5z" />
    <glyph glyph-name="uniFE9C" unicode="&#x62b;" horiz-adv-x="742" arabic-form="medial" 
d="M283 1299q-33 0 -53 20t-20 53t20 53.5t53 20.5t53.5 -20.5t20.5 -53.5t-20.5 -53t-53.5 -20zM148 1044q-33 0 -53 20.5t-20 53.5t20 53t53 20t53.5 -20t20.5 -53t-20.5 -53.5t-53.5 -20.5zM418 1044q-33 0 -53 20.5t-20 53.5t20 53t53 20t53.5 -20t20.5 -53t-20.5 -53.5
t-53.5 -20.5zM715 104h44v-104h-47q-79 0 -132 18.5t-109 61.5q-56 -80 -198 -80h-290v104h290q78 0 108 41.5t30 151.5v478h106v-478q0 -77 -12 -128q48 -35 95.5 -50t114.5 -15z" />
    <glyph glyph-name="uniFE9E" unicode="&#x62c;" horiz-adv-x="1114" arabic-form="final" 
d="M975 321v-217h157v-104h-782q-173 0 -173 -164t173 -164h169v-104h-162q-137 0 -211 70.5t-74 199.5q0 128 74 197t211 69h513v217q0 190 -72 274t-238 84h-243v96h243q212 0 313.5 -111t101.5 -343zM811 -297q33 0 53 -19.5t20 -52.5t-20 -53t-53 -20t-53.5 20t-20.5 53
t20.5 52.5t53.5 19.5z" />
    <glyph glyph-name="uniFE9F" unicode="&#x62c;" horiz-adv-x="878" arabic-form="initial" 
d="M116 775h242q212 0 313.5 -111t101.5 -343v-321h-790v104h686v217q0 190 -72.5 274t-238.5 84h-242v96zM355 -297q33 0 53 -19.5t20 -52.5t-20 -53t-53 -20t-52.5 20t-19.5 53t19.5 52.5t52.5 19.5z" />
    <glyph glyph-name="uniFEA0" unicode="&#x62c;" horiz-adv-x="913" arabic-form="medial" 
d="M773 321v-217h157v-104h-947v104h686v217q0 190 -72.5 274t-238.5 84h-242v96h242q212 0 313.5 -111t101.5 -343zM355 -297q33 0 53 -19.5t20 -52.5t-20 -53t-53 -20t-52.5 20t-19.5 53t19.5 52.5t52.5 19.5z" />
    <glyph glyph-name="uniFEA2" unicode="&#x62d;" horiz-adv-x="1114" arabic-form="final" 
d="M975 321v-217h157v-104h-782q-173 0 -173 -164t173 -164h437v-104h-430q-137 0 -211 70.5t-74 199.5q0 128 74 197t211 69h513v217q0 190 -72 274t-238 84h-243v96h243q212 0 313.5 -111t101.5 -343z" />
    <glyph glyph-name="uniFEA3" unicode="&#x62d;" horiz-adv-x="878" arabic-form="initial" 
d="M116 775h242q212 0 313.5 -111t101.5 -343v-321h-790v104h686v217q0 190 -72.5 274t-238.5 84h-242v96z" />
    <glyph glyph-name="uniFEA4" unicode="&#x62d;" horiz-adv-x="913" arabic-form="medial" 
d="M773 321v-217h157v-104h-947v104h686v217q0 190 -72.5 274t-238.5 84h-242v96h242q212 0 313.5 -111t101.5 -343z" />
    <glyph glyph-name="uniFEA6" unicode="&#x62e;" horiz-adv-x="1114" arabic-form="final" 
d="M524 1142q-33 0 -53 20t-20 53t20 53.5t53 20.5t53 -20.5t20 -53.5t-20 -53t-53 -20zM975 321v-217h157v-104h-782q-173 0 -173 -164t173 -164h437v-104h-430q-137 0 -211 70.5t-74 199.5q0 128 74 197t211 69h513v217q0 190 -72 274t-238 84h-243v96h243
q212 0 313.5 -111t101.5 -343z" />
    <glyph glyph-name="uniFEA7" unicode="&#x62e;" horiz-adv-x="878" arabic-form="initial" 
d="M319 1142q-33 0 -53 20t-20 53t20 53.5t53 20.5t52.5 -20.5t19.5 -53.5t-19.5 -53t-52.5 -20zM116 775h242q212 0 313.5 -111t101.5 -343v-321h-790v104h686v217q0 190 -72.5 274t-238.5 84h-242v96z" />
    <glyph glyph-name="uniFEA8" unicode="&#x62e;" horiz-adv-x="913" arabic-form="medial" 
d="M319 1142q-33 0 -53 20t-20 53t20 53.5t53 20.5t52.5 -20.5t19.5 -53.5t-19.5 -53t-52.5 -20zM773 321v-217h157v-104h-947v104h686v217q0 190 -72.5 274t-238.5 84h-242v96h242q212 0 313.5 -111t101.5 -343z" />
    <glyph glyph-name="uniFEAA" unicode="&#x62f;" horiz-adv-x="814" arabic-form="final" 
d="M787 104h44v-104h-48q-50 0 -84.5 15t-70.5 52q-73 -67 -220 -67h-345v104h345q98 0 142 40t44 129q0 21 -2 43.5t-7 50t-9.5 49.5t-14 57t-15.5 55.5t-18.5 61.5t-18.5 59t-21 64t-20 62h111q8 -25 28.5 -90t29.5 -93.5t24 -82t21.5 -86.5t12 -74.5t5.5 -75.5
q0 -75 -21 -126q47 -43 108 -43z" />
    <glyph glyph-name="uniFEAC" unicode="&#x630;" horiz-adv-x="814" arabic-form="final" 
d="M382 1142q-33 0 -53 20t-20 53t20 53.5t53 20.5t53.5 -20.5t20.5 -53.5t-20.5 -53t-53.5 -20zM787 104h44v-104h-48q-50 0 -84.5 15t-70.5 52q-73 -67 -220 -67h-345v104h345q98 0 142 40t44 129q0 21 -2 43.5t-7 50t-9.5 49.5t-14 57t-15.5 55.5t-18.5 61.5t-18.5 59
t-21 64t-20 62h111q8 -25 28.5 -90t29.5 -93.5t24 -82t21.5 -86.5t12 -74.5t5.5 -75.5q0 -75 -21 -126q47 -43 108 -43z" />
    <glyph glyph-name="uniFEAE" unicode="&#x631;" horiz-adv-x="476" arabic-form="final" 
d="M449 104h44v-104h-48q-71 0 -116 32v-1q0 -228 -97 -340t-300 -119v102q154 0 223 85.5t69 271.5v744h105v-616q55 -55 120 -55z" />
    <glyph glyph-name="uniFEB0" unicode="&#x632;" horiz-adv-x="476" arabic-form="final" 
d="M276 1142q-33 0 -53 20t-20 53t20 53.5t53 20.5t52.5 -20.5t19.5 -53.5t-19.5 -53t-52.5 -20zM449 104h44v-104h-48q-71 0 -116 32v-1q0 -228 -97 -340t-300 -119v102q154 0 223 85.5t69 271.5v744h105v-616q55 -55 120 -55z" />
    <glyph glyph-name="uniFEB2" unicode="&#x633;" horiz-adv-x="2290" arabic-form="final" 
d="M2263 104h44v-104h-47q-79 0 -132 18.5t-109 61.5q-61 -89 -195 -89h-17q-128 0 -278 106q-57 -106 -205 -106h-17q-108 0 -235 79v-75q0 -239 -122 -354t-377 -115q-252 0 -372.5 115t-120.5 354v449h104v-449q0 -195 91 -280t298 -85q209 0 302 85t93 280v780h104v-586
q121 -87 225 -87h17q82 0 118 49t36 166v458h104v-458q0 -70 -10 -121q125 -94 235 -94h17q82 0 118 49t36 166v458h106v-458q0 -89 -17 -150q47 -34 93.5 -48.5t112.5 -14.5z" />
    <glyph glyph-name="uniFEB3" unicode="&#x633;" horiz-adv-x="1578" arabic-form="initial" 
d="M1360 317v458h104v-458q0 -167 -60 -246.5t-187 -79.5h-17q-127 0 -280 106q-57 -106 -203 -106h-17q-125 0 -282 110q-61 -101 -201 -101h-234v104h234q80 0 111.5 50t31.5 172v449h104v-452q0 -77 -12 -125q126 -96 237 -96h18q82 0 117.5 49t35.5 166v458h104v-458
q0 -70 -10 -121q125 -94 236 -94h17q82 0 117.5 49t35.5 166z" />
    <glyph glyph-name="uniFEB4" unicode="&#x633;" horiz-adv-x="1681" arabic-form="medial" 
d="M1654 104h44v-104h-48q-79 0 -131.5 18.5t-108.5 61.5q-61 -89 -193 -89h-17q-127 0 -280 106q-57 -106 -203 -106h-17q-125 0 -282 110q-61 -101 -201 -101h-234v104h234q80 0 111.5 50t31.5 172v449h104v-452q0 -77 -12 -125q126 -96 237 -96h18q82 0 117.5 49
t35.5 166v458h104v-458q0 -70 -10 -121q125 -94 236 -94h17q82 0 117.5 49t35.5 166v458h104v-458q0 -89 -17 -150q87 -63 207 -63z" />
    <glyph glyph-name="uniFEB6" unicode="&#x634;" horiz-adv-x="2290" arabic-form="final" 
d="M1521 1299q-33 0 -53.5 20t-20.5 53t20.5 53.5t53.5 20.5t53 -20.5t20 -53.5t-20 -53t-53 -20zM1386 1044q-33 0 -53.5 20.5t-20.5 53.5t20.5 53t53.5 20t53 -20t20 -53t-20 -53.5t-53 -20.5zM1655 1044q-33 0 -53 20.5t-20 53.5t20 53t53 20t53.5 -20t20.5 -53
t-20.5 -53.5t-53.5 -20.5zM2263 104h44v-104h-47q-79 0 -132 18.5t-109 61.5q-61 -89 -195 -89h-17q-128 0 -278 106q-57 -106 -205 -106h-17q-108 0 -235 79v-75q0 -239 -122 -354t-377 -115q-252 0 -372.5 115t-120.5 354v449h104v-449q0 -195 91 -280t298 -85
q209 0 302 85t93 280v780h104v-586q121 -87 225 -87h17q82 0 118 49t36 166v458h104v-458q0 -70 -10 -121q125 -94 235 -94h17q82 0 118 49t36 166v458h106v-458q0 -89 -17 -150q47 -34 93.5 -48.5t112.5 -14.5z" />
    <glyph glyph-name="uniFEB7" unicode="&#x634;" horiz-adv-x="1578" arabic-form="initial" 
d="M911 1299q-33 0 -53 20t-20 53t20 53.5t53 20.5t53.5 -20.5t20.5 -53.5t-20.5 -53t-53.5 -20zM777 1044q-33 0 -53.5 20.5t-20.5 53.5t20.5 53t53.5 20t53 -20t20 -53t-20 -53.5t-53 -20.5zM1046 1044q-33 0 -53 20.5t-20 53.5t20 53t53 20t53.5 -20t20.5 -53
t-20.5 -53.5t-53.5 -20.5zM1360 317v458h104v-458q0 -167 -60 -246.5t-187 -79.5h-17q-127 0 -280 106q-57 -106 -203 -106h-17q-125 0 -282 110q-61 -101 -201 -101h-234v104h234q80 0 111.5 50t31.5 172v449h104v-452q0 -77 -12 -125q126 -96 237 -96h18q82 0 117.5 49
t35.5 166v458h104v-458q0 -70 -10 -121q125 -94 236 -94h17q82 0 117.5 49t35.5 166z" />
    <glyph glyph-name="uniFEB8" unicode="&#x634;" horiz-adv-x="1681" arabic-form="medial" 
d="M911 1299q-33 0 -53 20t-20 53t20 53.5t53 20.5t53.5 -20.5t20.5 -53.5t-20.5 -53t-53.5 -20zM777 1044q-33 0 -53.5 20.5t-20.5 53.5t20.5 53t53.5 20t53 -20t20 -53t-20 -53.5t-53 -20.5zM1046 1044q-33 0 -53 20.5t-20 53.5t20 53t53 20t53.5 -20t20.5 -53
t-20.5 -53.5t-53.5 -20.5zM1654 104h44v-104h-48q-79 0 -131.5 18.5t-108.5 61.5q-61 -89 -193 -89h-17q-127 0 -280 106q-57 -106 -203 -106h-17q-125 0 -282 110q-61 -101 -201 -101h-234v104h234q80 0 111.5 50t31.5 172v449h104v-452q0 -77 -12 -125q126 -96 237 -96h18
q82 0 117.5 49t35.5 166v458h104v-458q0 -70 -10 -121q125 -94 236 -94h17q82 0 117.5 49t35.5 166v458h104v-458q0 -89 -17 -150q87 -63 207 -63z" />
    <glyph glyph-name="uniFEBA" unicode="&#x635;" horiz-adv-x="2145" arabic-form="final" 
d="M2024 331v-227h138v-104h-1090q-7 -224 -129.5 -332t-369.5 -108q-252 0 -372.5 115t-120.5 354v449h104v-449q0 -195 91 -280t298 -85q209 0 302 85t93 280v730h104v-247q166 147 294.5 211.5t275.5 64.5q195 0 288.5 -111.5t93.5 -345.5zM1072 389v-285h845v227
q0 191 -65 274.5t-215 83.5q-133 0 -259 -68.5t-306 -231.5z" />
    <glyph glyph-name="uniFEBB" unicode="&#x635;" horiz-adv-x="1274" arabic-form="initial" 
d="M806 788q194 0 287 -111.5t93 -345.5v-331h-1203v104h148v654h105v-246q166 147 294.5 211.5t275.5 64.5zM236 389v-285h844v227q0 191 -65 274.5t-215 83.5q-134 0 -259.5 -68.5t-304.5 -231.5z" />
    <glyph glyph-name="uniFEBC" unicode="&#x635;" horiz-adv-x="1309" arabic-form="medial" 
d="M1186 331v-227h140v-104h-1343v104h148v654h105v-246q166 147 294.5 211.5t275.5 64.5q194 0 287 -111.5t93 -345.5zM236 104h844v227q0 191 -65 274.5t-215 83.5q-134 0 -259.5 -68.5t-304.5 -231.5v-285z" />
    <glyph glyph-name="uniFEBE" unicode="&#x636;" horiz-adv-x="2145" arabic-form="final" 
d="M1504 1142q-33 0 -52.5 20t-19.5 53t19.5 53.5t52.5 20.5t53 -20.5t20 -53.5t-20 -53t-53 -20zM2024 331v-227h138v-104h-1090q-7 -224 -129.5 -332t-369.5 -108q-252 0 -372.5 115t-120.5 354v449h104v-449q0 -195 91 -280t298 -85q209 0 302 85t93 280v730h104v-247
q166 147 294.5 211.5t275.5 64.5q195 0 288.5 -111.5t93.5 -345.5zM1072 389v-285h845v227q0 191 -65 274.5t-215 83.5q-133 0 -259 -68.5t-306 -231.5z" />
    <glyph glyph-name="uniFEBF" unicode="&#x636;" horiz-adv-x="1274" arabic-form="initial" 
d="M657 1142q-33 0 -52.5 20t-19.5 53t19.5 53.5t52.5 20.5t53 -20.5t20 -53.5t-20 -53t-53 -20zM806 788q194 0 287 -111.5t93 -345.5v-331h-1203v104h148v654h105v-246q166 147 294.5 211.5t275.5 64.5zM236 389v-285h844v227q0 191 -65 274.5t-215 83.5
q-134 0 -259.5 -68.5t-304.5 -231.5z" />
    <glyph glyph-name="uniFEC0" unicode="&#x636;" horiz-adv-x="1309" arabic-form="medial" 
d="M669 1142q-33 0 -52.5 20t-19.5 53t19.5 53.5t52.5 20.5t53 -20.5t20 -53.5t-20 -53t-53 -20zM1186 331v-227h140v-104h-1343v104h148v654h105v-246q166 147 294.5 211.5t275.5 64.5q194 0 287 -111.5t93 -345.5zM236 104h844v227q0 191 -65 274.5t-215 83.5
q-134 0 -259.5 -68.5t-304.5 -231.5v-285z" />
    <glyph glyph-name="uniFEC2" unicode="&#x637;" horiz-adv-x="1372" arabic-form="final" 
d="M1249 331v-227h140v-104h-1343v104h147v1174h106v-764q167 146 294.5 210t275.5 64q194 0 287 -111.5t93 -345.5zM299 104h843v227q0 191 -65 274.5t-215 83.5q-133 0 -259.5 -68t-303.5 -230v-287z" />
    <glyph glyph-name="uniFEC3" unicode="&#x637;" horiz-adv-x="1343" arabic-form="initial" 
d="M874 788q194 0 287 -111.5t93 -345.5v-331h-1271v104h217v1174h104v-766q166 147 294.5 211.5t275.5 64.5zM304 104h845v227q0 191 -65 274.5t-215 83.5q-134 0 -260.5 -68.5t-304.5 -231.5v-285z" />
    <glyph glyph-name="uniFEC4" unicode="&#x637;" horiz-adv-x="1343" arabic-form="medial" 
d="M1220 331v-227h140v-104h-1377v104h183v1174h104v-766q166 147 294.5 211.5t275.5 64.5q194 0 287 -111.5t93 -345.5zM1114 104v227q0 191 -64.5 274.5t-214.5 83.5q-134 0 -260.5 -68.5t-304.5 -231.5v-285h844z" />
    <glyph glyph-name="uniFEC6" unicode="&#x638;" horiz-adv-x="1372" arabic-form="final" 
d="M732 1142q-33 0 -53 20t-20 53t20 53.5t53 20.5t53.5 -20.5t20.5 -53.5t-20.5 -53t-53.5 -20zM1249 331v-227h140v-104h-1343v104h147v1174h106v-764q167 146 294.5 210t275.5 64q194 0 287 -111.5t93 -345.5zM299 104h843v227q0 191 -65 274.5t-215 83.5
q-133 0 -259.5 -68t-303.5 -230v-287z" />
    <glyph glyph-name="uniFEC7" unicode="&#x638;" horiz-adv-x="1343" arabic-form="initial" 
d="M725 1142q-33 0 -52 20t-19 53t19 53.5t52 20.5t53.5 -20.5t20.5 -53.5t-20.5 -53t-53.5 -20zM874 788q194 0 287 -111.5t93 -345.5v-331h-1271v104h217v1174h104v-766q166 147 294.5 211.5t275.5 64.5zM304 104h845v227q0 191 -65 274.5t-215 83.5q-134 0 -260.5 -68.5
t-304.5 -231.5v-285z" />
    <glyph glyph-name="uniFEC8" unicode="&#x638;" horiz-adv-x="1343" arabic-form="medial" 
d="M703 1142q-33 0 -52.5 20t-19.5 53t19.5 53.5t52.5 20.5t53.5 -20.5t20.5 -53.5t-20.5 -53t-53.5 -20zM1220 331v-227h140v-104h-1377v104h183v1174h104v-766q166 147 294.5 211.5t275.5 64.5q194 0 287 -111.5t93 -345.5zM1114 104v227q0 191 -64.5 274.5t-214.5 83.5
q-134 0 -260.5 -68.5t-304.5 -231.5v-285h844z" />
    <glyph glyph-name="uniFECA" unicode="&#x639;" horiz-adv-x="1343" arabic-form="final" 
d="M1166 104h194v-104h-181q-197 0 -363 75q-166 -75 -364 -75h-102q-173 0 -173 -164t173 -164h437v-104h-430q-137 0 -211 70.5t-74 199.5q0 128 74 197t211 69h111q132 0 237 34q-133 90 -208 214.5t-75 231.5q0 114 96.5 168.5t297.5 54.5q202 0 299 -54.5t97 -168.5
q0 -69 -31 -147t-97.5 -158.5t-156.5 -140.5q108 -34 239 -34zM526 568q0 -54 29 -121t98 -141t164 -123q94 49 163 123t98.5 141t29.5 121q0 74 -68 105.5t-224 31.5q-155 0 -222.5 -31.5t-67.5 -105.5z" />
    <glyph glyph-name="uniFECB" unicode="&#x639;" horiz-adv-x="870" arabic-form="initial" 
d="M474 104h291v-104h-782v104h232q-84 95 -84 287q0 197 82.5 290.5t254.5 93.5h256v-96h-256q-123 0 -177 -67t-54 -221q0 -152 56 -219.5t181 -67.5z" />
    <glyph glyph-name="uniFECC" unicode="&#x639;" horiz-adv-x="1053" arabic-form="medial" 
d="M876 104h194v-104h-181q-197 0 -363 75q-166 -75 -364 -75h-179v104h194q133 0 238 34q-133 90 -208.5 214.5t-75.5 231.5q0 114 97 168.5t298 54.5q202 0 299 -54.5t97 -168.5q0 -69 -31 -147t-97.5 -158.5t-156.5 -140.5q108 -34 239 -34zM236 568q0 -54 29 -121
t98 -141t164 -123q94 49 163 123t98 141t29 121q0 74 -67.5 105.5t-223.5 31.5q-155 0 -222.5 -31.5t-67.5 -105.5z" />
    <glyph glyph-name="uniFECE" unicode="&#x63a;" horiz-adv-x="1343" arabic-form="final" 
d="M817 1142q-33 0 -53 20t-20 53t20 53.5t53 20.5t53.5 -20.5t20.5 -53.5t-20.5 -53t-53.5 -20zM1166 104h194v-104h-181q-197 0 -363 75q-166 -75 -364 -75h-102q-173 0 -173 -164t173 -164h437v-104h-430q-137 0 -211 70.5t-74 199.5q0 128 74 197t211 69h111
q132 0 237 34q-133 90 -208 214.5t-75 231.5q0 114 96.5 168.5t297.5 54.5q202 0 299 -54.5t97 -168.5q0 -69 -31 -147t-97.5 -158.5t-156.5 -140.5q108 -34 239 -34zM526 568q0 -54 29 -121t98 -141t164 -123q94 49 163 123t98.5 141t29.5 121q0 74 -68 105.5t-224 31.5
q-155 0 -222.5 -31.5t-67.5 -105.5z" />
    <glyph glyph-name="uniFECF" unicode="&#x63a;" horiz-adv-x="870" arabic-form="initial" 
d="M447 1142q-33 0 -52.5 20t-19.5 53t19.5 53.5t52.5 20.5t53.5 -20.5t20.5 -53.5t-20.5 -53t-53.5 -20zM474 104h291v-104h-782v104h232q-84 95 -84 287q0 197 82.5 290.5t254.5 93.5h256v-96h-256q-123 0 -177 -67t-54 -221q0 -152 56 -219.5t181 -67.5z" />
    <glyph glyph-name="uniFED0" unicode="&#x63a;" horiz-adv-x="1053" arabic-form="medial" 
d="M527 1142q-33 0 -53 20t-20 53t20 53.5t53 20.5t53.5 -20.5t20.5 -53.5t-20.5 -53t-53.5 -20zM876 104h194v-104h-181q-197 0 -363 75q-166 -75 -364 -75h-179v104h194q133 0 238 34q-133 90 -208.5 214.5t-75.5 231.5q0 114 97 168.5t298 54.5q202 0 299 -54.5
t97 -168.5q0 -69 -31 -147t-97.5 -158.5t-156.5 -140.5q108 -34 239 -34zM236 568q0 -54 29 -121t98 -141t164 -123q94 49 163 123t98 141t29 121q0 74 -67.5 105.5t-223.5 31.5q-155 0 -222.5 -31.5t-67.5 -105.5z" />
    <glyph glyph-name="uniFED2" unicode="&#x641;" horiz-adv-x="1792" arabic-form="final" 
d="M1312 1142q-33 0 -52 20t-19 53t19 53.5t52 20.5t53.5 -20.5t20.5 -53.5t-20.5 -53t-53.5 -20zM1644 777v-673h165v-104h-1485q-132 0 -188 68.5t-56 228.5v323h106v-323q0 -110 30 -151.5t108 -41.5h744q-85 92 -85 289q0 196 86 290t267 94h308zM1089 393
q0 -154 57.5 -220.5t189.5 -68.5h203v567h-203q-132 0 -189.5 -64t-57.5 -214z" />
    <glyph glyph-name="uniFED3" unicode="&#x641;" horiz-adv-x="896" arabic-form="initial" 
d="M451 1142q-33 0 -52.5 20t-19.5 53t19.5 53.5t52.5 20.5t53 -20.5t20 -53.5t-20 -53t-53 -20zM474 777h308v-777h-799v104h224q-86 93 -86 289t86 290t267 94zM227 393q0 -154 57.5 -220.5t189.5 -68.5h204v567h-204q-132 0 -189.5 -64t-57.5 -214z" />
    <glyph glyph-name="uniFED4" unicode="&#x641;" horiz-adv-x="930" arabic-form="medial" 
d="M451 1142q-33 0 -52.5 20t-19.5 53t19.5 53.5t52.5 20.5t53 -20.5t20 -53.5t-20 -53t-53 -20zM782 777v-675h165v-102h-964v104h224q-86 93 -86 289t86 290t267 94h308zM227 393q0 -154 57.5 -220.5t189.5 -68.5h204v567h-204q-132 0 -189.5 -64t-57.5 -214z" />
    <glyph glyph-name="uniFED6" unicode="&#x642;" horiz-adv-x="1220" arabic-form="final" 
d="M608 1142q-33 0 -53.5 20t-20.5 53t20.5 53.5t53.5 20.5t53 -20.5t20 -53.5t-20 -53t-53 -20zM877 1142q-33 0 -53 20t-20 53t20 53.5t53 20.5t53.5 -20.5t20.5 -53.5t-20.5 -53t-53.5 -20zM1072 104h165v-104h-165v-5q0 -239 -122 -354t-377 -115q-252 0 -372.5 115
t-120.5 354v449h104v-449q0 -195 91 -280t298 -85q209 0 302 85t93 280v5h-203q-180 -1 -267 97t-87 296q0 196 86.5 290t267.5 94h307v-673zM517 393q0 -153 58 -220t190 -69h203v567h-203q-132 0 -190 -64.5t-58 -213.5z" />
    <glyph glyph-name="uniFED7" unicode="&#x642;" horiz-adv-x="896" arabic-form="initial" 
d="M317 1142q-33 0 -53 20t-20 53t20 53.5t53 20.5t53.5 -20.5t20.5 -53.5t-20.5 -53t-53.5 -20zM587 1142q-33 0 -53 20t-20 53t20 53.5t53 20.5t53 -20.5t20 -53.5t-20 -53t-53 -20zM474 777h308v-777h-799v104h224q-86 93 -86 289t86 290t267 94zM227 393
q0 -154 57.5 -220.5t189.5 -68.5h204v567h-204q-132 0 -189.5 -64t-57.5 -214z" />
    <glyph glyph-name="uniFED8" unicode="&#x642;" horiz-adv-x="930" arabic-form="medial" 
d="M317 1142q-33 0 -53 20t-20 53t20 53.5t53 20.5t53.5 -20.5t20.5 -53.5t-20.5 -53t-53.5 -20zM587 1142q-33 0 -53 20t-20 53t20 53.5t53 20.5t53 -20.5t20 -53.5t-20 -53t-53 -20zM782 777v-675h165v-102h-964v104h224q-86 93 -86 289t86 290t267 94h308zM227 393
q0 -154 57.5 -220.5t189.5 -68.5h204v567h-204q-132 0 -189.5 -64t-57.5 -214z" />
    <glyph glyph-name="uniFEDA" unicode="&#x643;" horiz-adv-x="1442" arabic-form="final" 
d="M1415 109h44v-104h-48q-49 0 -82 14t-66 48q-57 -67 -186 -67h-753q-132 0 -188 68.5t-56 228.5v323h106v-323q0 -110 30 -151.5t108 -41.5h753q78 0 108 41.5t30 151.5v981h106v-981q0 -85 -15 -143q48 -45 109 -45zM713 816h118v-63h-302v63h118q-67 128 -30 199.5
t171 71.5h67v-60h-67q-103 0 -120 -48.5t45 -162.5z" />
    <glyph glyph-name="uniFEDB" unicode="&#x643;" horiz-adv-x="1049" arabic-form="initial" 
d="M604 591h-481v93l526 605l76 -70l-452 -524h331q173 0 256.5 -85t83.5 -262t-83.5 -262.5t-256.5 -85.5h-621v104h621q124 0 179 57.5t55 186.5t-55 186t-179 57z" />
    <glyph glyph-name="uniFEDC" unicode="&#x643;" horiz-adv-x="1100" arabic-form="medial" 
d="M1073 104h45v-104h-48q-74 0 -124.5 16t-102.5 54q-82 -70 -239 -70h-621v104h621q124 0 179 57.5t55 186.5t-55 186t-179 57h-481v93l526 605l76 -70l-452 -524h331q173 0 256.5 -85t83.5 -262q0 -125 -41 -205q69 -39 170 -39z" />
    <glyph glyph-name="uniFEDE" unicode="&#x644;" horiz-adv-x="1220" arabic-form="final" 
d="M1193 104h44v-104h-47q-74 0 -118 34v-10q0 -239 -122 -354t-377 -115q-252 0 -372.5 115t-120.5 354v449h104v-449q0 -195 91 -280t298 -85q209 0 302 85t93 280v1254h104v-1118q53 -56 121 -56z" />
    <glyph glyph-name="uniFEDF" unicode="&#x644;" horiz-adv-x="494" arabic-form="initial" 
d="M137 0h-154v104h154q78 0 108 41.5t30 151.5v981h106v-981q0 -160 -56 -228.5t-188 -68.5z" />
    <glyph glyph-name="uniFEE0" unicode="&#x644;" horiz-adv-x="629" arabic-form="medial" 
d="M601 104h46v-104h-50q-86 0 -142 20t-117 69q-55 -89 -201 -89h-154v104h154q78 0 108 41.5t30 151.5v981h106v-981q0 -57 -9 -118q52 -41 103.5 -58t125.5 -17z" />
    <glyph glyph-name="uniFEE2" unicode="&#x645;" horiz-adv-x="1290" arabic-form="final" 
d="M1266 104h41v-104h-44q-73 0 -121 17.5t-98 59.5q-85 -77 -242 -77h-438q-110 0 -157.5 -47.5t-47.5 -155.5v-229h-104v229q0 156 76.5 231.5t232.5 75.5h93v297q0 207 84 306.5t261 99.5q178 0 263 -99.5t85 -306.5q0 -155 -49 -251q69 -46 165 -46zM802 104
q131 0 187.5 70t56.5 227q0 164 -57.5 235.5t-186.5 71.5q-127 0 -183 -71.5t-56 -235.5v-297h239z" />
    <glyph glyph-name="uniFEE3" unicode="&#x645;" horiz-adv-x="998" arabic-form="initial" 
d="M539 809q185 0 273.5 -100.5t88.5 -310.5t-88.5 -311t-273.5 -101q-223 0 -309 147q-21 -72 -63.5 -102.5t-115.5 -30.5h-68v104h68q69 0 96 63t27 229v2q0 210 89 310.5t276 100.5zM539 84q137 0 196.5 72.5t59.5 241.5q0 168 -60 241t-196 73q-138 0 -198.5 -73
t-60.5 -241q0 -169 60.5 -241.5t198.5 -72.5z" />
    <glyph glyph-name="uniFEE4" unicode="&#x645;" horiz-adv-x="1039" arabic-form="medial" 
d="M1015 104h41v-104h-44q-72 0 -119.5 16.5t-93.5 56.5q-90 -87 -260 -87q-223 0 -309 147q-21 -72 -63.5 -102.5t-115.5 -30.5h-68v104h68q69 0 96 63t27 229v2q0 210 89 310.5t276 100.5q185 0 273.5 -100.5t88.5 -310.5q0 -154 -48 -251q64 -43 162 -43zM539 84
q137 0 196.5 72.5t59.5 241.5q0 168 -60 241t-196 73q-138 0 -198.5 -73t-60.5 -241q0 -169 60.5 -241.5t198.5 -72.5z" />
    <glyph glyph-name="uniFEE6" unicode="&#x646;" horiz-adv-x="1206" arabic-form="final" 
d="M577 782q-33 0 -53.5 20t-20.5 53t20.5 52.5t53.5 19.5t53 -19.5t20 -52.5t-20 -53t-53 -20zM1179 104h45v-104h-48q-63 0 -104 24q0 -239 -122 -354t-377 -115q-252 0 -372.5 115t-120.5 354v449h104v-449q0 -195 91 -280t298 -85q209 0 302 85t93 280v730h104v-607
q47 -43 107 -43z" />
    <glyph glyph-name="uniFEE7" unicode="&#x646;" horiz-adv-x="512" arabic-form="initial" 
d="M208 1142q-33 0 -53 20t-20 53t20 53.5t53 20.5t52.5 -20.5t19.5 -53.5t-19.5 -53t-52.5 -20zM188 0h-205v104h205q78 0 108 41.5t30 151.5v478h106v-478q0 -160 -56 -228.5t-188 -68.5z" />
    <glyph glyph-name="uniFEE8" unicode="&#x646;" horiz-adv-x="657" arabic-form="medial" 
d="M208 1142q-33 0 -53 20t-20 53t20 53.5t53 20.5t52.5 -20.5t19.5 -53.5t-19.5 -53t-52.5 -20zM630 104h44v-104h-48q-79 0 -131.5 18t-108.5 62q-56 -80 -198 -80h-205v104h205q78 0 108 41.5t30 151.5v478h106v-478q0 -77 -12 -128q48 -35 95.5 -50t114.5 -15z" />
    <glyph glyph-name="uniFEEA" unicode="&#x647;" horiz-adv-x="930" arabic-form="final" 
d="M799 401v-297h148v-104h-493q-178 0 -263 98t-85 303q0 207 85 306.5t263 99.5q177 0 261 -99.5t84 -306.5zM454 104h239v297q0 164 -56 235.5t-183 71.5q-129 0 -186.5 -71.5t-57.5 -235.5q0 -157 56.5 -227t187.5 -70z" />
    <glyph glyph-name="uniFEEB" unicode="&#x647;" horiz-adv-x="1087" arabic-form="initial" 
d="M174 799h275q248 0 377.5 -127t129.5 -370v-302h-973v104h205q-40 58 -40 167q0 143 65.5 211.5t202.5 68.5t202.5 -68.5t65.5 -211.5v-167h166v198q0 203 -97.5 300.5t-301.5 97.5h-277v99zM416 104h164v167q0 96 -38 138.5t-126 42.5q-86 0 -124 -42t-38 -139
q0 -94 37 -130.5t125 -36.5z" />
    <glyph glyph-name="uniFEEC" unicode="&#x647;" horiz-adv-x="1121" arabic-form="medial" 
d="M956 302v-198h182v-104h-1155v104h205q-40 58 -40 167q0 143 65.5 211.5t202.5 68.5t202.5 -68.5t65.5 -211.5v-167h166v198q0 203 -97.5 300.5t-301.5 97.5h-277v99h275q248 0 377.5 -127t129.5 -370zM416 104h164v167q0 96 -38 138.5t-126 42.5q-86 0 -124 -42
t-38 -139q0 -94 37 -130.5t125 -36.5z" />
    <glyph glyph-name="uniFEEE" unicode="&#x648;" horiz-adv-x="964" arabic-form="final" 
d="M790 104h191v-104h-191v-34q0 -203 -99 -300.5t-305 -97.5h-120v97h120q157 0 228.5 71.5t71.5 229.5v34h-241q-178 0 -263 98t-85 303q0 207 85 306.5t263 99.5q177 0 261 -99.5t84 -306.5v-297zM445 104h239v297q0 164 -56 235.5t-183 71.5q-129 0 -186.5 -71.5
t-57.5 -235.5q0 -157 56.5 -227t187.5 -70z" />
    <glyph glyph-name="uniFEF0" unicode="&#x649;" horiz-adv-x="1686" arabic-form="final" 
d="M1232 631l224 -409q38 -69 70.5 -93.5t86.5 -24.5h90v-104h-90q-86 0 -140 38t-108 136l-223 408q-40 72 -89.5 98.5t-130.5 26.5q-103 0 -149 -35.5t-46 -113.5q0 -68 37.5 -107.5t128.5 -75.5q51 -21 77 -32t65.5 -28.5t58.5 -29.5t46.5 -31t40.5 -35.5t28.5 -39.5
t22 -48.5t11.5 -57t5 -68.5q0 -139 -60.5 -206t-185.5 -67h-587q-170 0 -252.5 93t-82.5 286v333h106v-333q0 -145 54.5 -210t174.5 -65h587q73 0 105.5 39.5t32.5 129.5q0 59 -10.5 96.5t-46 66t-66 43.5t-107.5 45q-12 5 -19.5 8t-19 7.5t-21.5 8.5q-124 51 -176.5 110.5
t-52.5 165.5q0 129 75 191t231 62q44 0 81 -5.5t62.5 -12t49 -22.5t36.5 -26.5t30 -35t23.5 -35.5t22.5 -41z" />
    <glyph glyph-name="uniFEF2" unicode="&#x64a;" horiz-adv-x="1686" arabic-form="final" 
d="M1232 631l224 -409q38 -69 70.5 -93.5t86.5 -24.5h90v-104h-90q-86 0 -140 38t-108 136l-223 408q-40 72 -89.5 98.5t-130.5 26.5q-103 0 -149 -35.5t-46 -113.5q0 -68 37.5 -107.5t128.5 -75.5q51 -21 77 -32t65.5 -28.5t58.5 -29.5t46.5 -31t40.5 -35.5t28.5 -39.5
t22 -48.5t11.5 -57t5 -68.5q0 -139 -60.5 -206t-185.5 -67h-587q-170 0 -252.5 93t-82.5 286v333h106v-333q0 -145 54.5 -210t174.5 -65h587q73 0 105.5 39.5t32.5 129.5q0 59 -10.5 96.5t-46 66t-66 43.5t-107.5 45q-12 5 -19.5 8t-19 7.5t-21.5 8.5q-124 51 -176.5 110.5
t-52.5 165.5q0 129 75 191t231 62q44 0 81 -5.5t62.5 -12t49 -22.5t36.5 -26.5t30 -35t23.5 -35.5t22.5 -41zM529 -596q-33 0 -52.5 20.5t-19.5 53.5t19.5 52t52.5 19t53 -19t20 -52t-20 -53.5t-53 -20.5zM799 -596q-33 0 -52.5 20.5t-19.5 53.5t19.5 52t52.5 19t53 -19
t20 -52t-20 -53.5t-53 -20.5z" />
    <glyph glyph-name="uniFEF3" unicode="&#x64a;" horiz-adv-x="597" arabic-form="initial" 
d="M273 0h-290v104h290q78 0 108 41.5t30 151.5v478h106v-478q0 -160 -56 -228.5t-188 -68.5zM85 -432q-33 0 -52 20.5t-19 53.5t19 52t52 19t53.5 -19t20.5 -52t-20.5 -53.5t-53.5 -20.5zM355 -432q-33 0 -52.5 20.5t-19.5 53.5t19.5 52t52.5 19t53 -19t20 -52t-20 -53.5
t-53 -20.5z" />
    <glyph glyph-name="uniFEF4" unicode="&#x64a;" horiz-adv-x="742" arabic-form="medial" 
d="M715 104h44v-104h-47q-79 0 -132 18.5t-109 61.5q-56 -80 -198 -80h-290v104h290q78 0 108 41.5t30 151.5v478h106v-478q0 -77 -12 -128q48 -35 95.5 -50t114.5 -15zM89 -287q33 0 53 -19t20 -52t-20 -53.5t-53 -20.5t-53.5 20.5t-20.5 53.5t20.5 52t53.5 19zM358 -287
q33 0 53.5 -19t20.5 -52t-20.5 -53.5t-53.5 -20.5t-53 20.5t-20 53.5t20 52t53 19z" />
    <glyph glyph-name=".notdef" horiz-adv-x="723" 
d="M553 0h-382v1572h382v-1572zM362 1287q48 0 83 33.5t35 80.5q0 50 -35 85t-83 35t-83 -35t-35 -85q0 -47 35 -80.5t83 -33.5zM362 1338q-26 0 -44.5 19t-18.5 44q0 29 18.5 47t44.5 18q28 0 45.5 -18t17.5 -47q0 -26 -17.5 -44.5t-45.5 -18.5zM364 1087q53 0 84.5 31
t31.5 83q1 48 -28 77l-37 -29q13 -20 13 -42q0 -28 -17 -44t-49 -16t-51 16.5t-19 43.5q0 5 1.5 13t1.5 12q5 11 14 21l-43 24q-19 -19 -19 -35l-5 -35q0 -53 34 -86.5t88 -33.5zM258 749v-8h218v61h-177q-7 28 -7 33q0 21 8.5 29t32.5 8h143v60h-148q-9 0 -29 -4
q-7 28 -7 33q0 41 41 41h143v56h-148q-43 0 -62 -15q-24 -21 -24 -70q0 -42 16 -74q-16 -30 -16 -58q0 -41 16 -92zM362 478q60 0 90 43q24 31 24 105v79h-123q-111 0 -111 -104q0 -58 35.5 -90.5t84.5 -32.5zM360 538q-30 0 -49 16.5t-19 42.5q0 53 68 53h65v-36
q0 -76 -65 -76zM360 317h116v62h-116q-65 0 -65 56q0 11 5 34l-53 14l-3 -43q0 -63 28.5 -93t87.5 -30zM362 56q61 0 90 40q15 23 19.5 45.5t4.5 65.5v78h-123q-111 0 -111 -106q0 -59 35 -91t85 -32zM360 116q-31 0 -49.5 15.5t-18.5 42.5q0 50 68 50h65v-36q0 -72 -65 -72
z" />
    <glyph glyph-name=".null" 
 />
    <glyph glyph-name="nonmarkingreturn" horiz-adv-x="682" 
 />
    <glyph glyph-name="space" unicode=" " horiz-adv-x="341" 
 />
    <glyph glyph-name="exclam" unicode="!" horiz-adv-x="428" 
d="M266 305h-102l-7 973h116zM215 -14q-37 0 -58.5 22t-21.5 59t21.5 57.5t58.5 20.5t58 -20.5t21 -57.5t-21 -59t-58 -22z" />
    <glyph glyph-name="quotedbl" unicode="&#x22;" horiz-adv-x="558" 
d="M215 915h-84l-13 360h109zM428 915h-82l-15 360h111z" />
    <glyph glyph-name="numbersign" unicode="#" horiz-adv-x="1169" 
d="M297 0h-109l80 375h-160l18 103h162l69 319h-159l20 104h161l82 374h109l-80 -374h310l81 374h111l-81 -374h162l-22 -104h-162l-68 -319h159l-21 -103h-160l-79 -375h-112l81 375h-310zM468 797l-70 -319h310l70 319h-310z" />
    <glyph glyph-name="dollar" unicode="$" horiz-adv-x="981" 
d="M915 348q0 -176 -92 -264.5t-282 -95.5v-165h-96v165q-118 7 -206 48.5t-167 123.5l63 74q69 -74 140.5 -107t169.5 -37v514l-27 5q-177 30 -252.5 99.5t-75.5 223.5q0 340 355 355v174h96v-176q191 -15 316 -136l-70 -74q-109 91 -246 104v-490l50 -8
q174 -30 249 -103.5t75 -229.5zM440 707l5 -2v478q-131 -7 -189 -65.5t-58 -185.5q0 -49 10 -84.5t27 -58t49.5 -38.5t66.5 -25t89 -19zM541 589v-499q141 9 203.5 69t62.5 184q0 64 -13.5 106t-45 69t-72.5 41t-106 25z" />
    <glyph glyph-name="percent" unicode="%" horiz-adv-x="1674" 
d="M579 -32h-106l621 1339h104zM389 560q-148 0 -238.5 93t-90.5 274q0 162 85.5 262.5t243.5 100.5q163 0 247 -100t84 -263q0 -182 -91 -274.5t-240 -92.5zM391 647q107 0 169.5 70t62.5 208q0 132 -60.5 204t-171.5 72t-172.5 -72t-61.5 -204q0 -137 63.5 -207.5
t170.5 -70.5zM1285 -26q-147 0 -237.5 93.5t-90.5 275.5q0 162 85.5 263.5t242.5 101.5q163 0 248 -100.5t85 -264.5q0 -183 -91.5 -276t-241.5 -93zM1289 65q106 0 169 69t63 206q0 134 -60.5 206t-171.5 72t-172.5 -72t-61.5 -206q0 -139 62.5 -207t171.5 -68z" />
    <glyph glyph-name="ampersand" unicode="&#x26;" horiz-adv-x="1093" 
d="M918 649h101q0 -248 -108 -432l145 -142l-58 -85l-155 141q-69 -73 -151 -111.5t-200 -38.5q-183 0 -287 92.5t-104 262.5q0 127 68 225.5t184 155.5q-63 88 -93.5 154t-30.5 138q0 126 78 206t220 80h280v-100h-263q-206 0 -206 -181q0 -95 121 -258
q59 -78 179.5 -221.5t201.5 -234.5q43 84 59.5 163t18.5 186zM495 80q98 0 174 39t109 89q-168 179 -365 432q-94 -38 -148.5 -117t-54.5 -177q0 -126 81.5 -196t203.5 -70z" />
    <glyph glyph-name="quotesingle" unicode="'" horiz-adv-x="344" 
d="M215 915h-84l-13 360h109z" />
    <glyph glyph-name="parenleft" unicode="(" horiz-adv-x="539" 
d="M473 -311l-91 -54q-148 211 -219 429.5t-71 461.5t71 461.5t219 429.5l91 -57q-139 -204 -205.5 -407.5t-66.5 -426.5t66.5 -427t205.5 -410z" />
    <glyph glyph-name="parenright" unicode=")" horiz-adv-x="539" 
d="M157 -365l-90 54q138 205 204.5 409t66.5 428t-66.5 427t-204.5 407l90 57q148 -211 219 -429.5t71 -461.5t-71 -461.5t-219 -429.5z" />
    <glyph glyph-name="asterisk" unicode="*" horiz-adv-x="621" 
d="M355 812h-109l13 164l-133 -92l-54 94l146 68l-146 68l54 94l133 -90l-12 160h110l-17 -164l138 94l53 -94l-147 -68l147 -68l-55 -94l-138 94z" />
    <glyph glyph-name="plus" unicode="+" horiz-adv-x="954" 
d="M208 693l219 116l18 222l91 -118l118 -220l218 -19l-118 -85l-218 -118l-17 -218l-92 117l-116 219l-221 17z" />
    <glyph glyph-name="comma" unicode="," horiz-adv-x="428" 
d="M123 -174l-34 53q83 50 83 99q0 16 -18.5 38t-18.5 51q0 37 21.5 57.5t58.5 20.5q79 0 79 -97q0 -139 -171 -222z" />
    <glyph glyph-name="hyphen" unicode="-" horiz-adv-x="680" 
d="M97 399v103h485v-103h-485z" />
    <glyph glyph-name="period" unicode="." horiz-adv-x="428" 
d="M215 -14q-37 0 -58.5 22t-21.5 59t21.5 57.5t58.5 20.5t58 -20.5t21 -57.5t-21 -59t-58 -22z" />
    <glyph glyph-name="slash" unicode="/" horiz-adv-x="824" 
d="M771 1278l-619 -1339h-114l619 1339h114z" />
    <glyph glyph-name="zero" unicode="0" horiz-adv-x="1198" 
d="M601 -17q-470 0 -470 647q0 332 121.5 495.5t348.5 163.5t347 -164t120 -495q0 -647 -467 -647zM601 82q173 0 262 131t89 417q0 284 -91 421t-260 137q-354 0 -354 -558q0 -284 90.5 -416t263.5 -132z" />
    <glyph glyph-name="one" unicode="1" horiz-adv-x="622" 
d="M148 1103l217 163h74v-1266h-113v1113l-119 -80z" />
    <glyph glyph-name="two" unicode="2" horiz-adv-x="1051" 
d="M918 0h-787v84q62 62 237 228t233 229q97 105 146.5 199t49.5 194q0 119 -74 185.5t-221 66.5t-294 -63l-31 94q163 72 330 72q194 0 300 -91.5t106 -252.5q0 -214 -212 -448q-59 -66 -211.5 -212t-190.5 -184h619v-101z" />
    <glyph glyph-name="three" unicode="3" horiz-adv-x="993" 
d="M681 657q98 -20 154 -99.5t56 -200.5q0 -176 -120.5 -276t-328.5 -100q-222 0 -374 106l60 89q152 -89 317 -89q160 0 245 69.5t85 203.5q0 126 -81 187t-249 61h-189v97h189q150 0 227 61t77 173q0 115 -79.5 178.5t-222.5 63.5q-145 0 -276 -61l-50 85q141 80 340 80
q191 0 297.5 -87t106.5 -246q0 -109 -46.5 -186t-137.5 -109z" />
    <glyph glyph-name="four" unicode="4" horiz-adv-x="1071" 
d="M797 0h-111v323h-526q-49 0 -74 22.5t-23.5 54.5t24.5 63l601 817h109v-857h145v-100h-145v-323zM686 1114l-505 -691h505v691z" />
    <glyph glyph-name="five" unicode="5" horiz-adv-x="1053" 
d="M471 -19q-107 0 -183 23.5t-157 79.5l53 95q63 -47 130.5 -68.5t158.5 -21.5q155 0 242 70.5t87 222.5q0 143 -75.5 204t-217.5 61h-309v450q0 86 38.5 124.5t123.5 38.5h493v-103h-468q-49 0 -62.5 -14t-13.5 -63v-329h218q180 0 284.5 -90.5t104.5 -274.5
q0 -197 -119.5 -301t-327.5 -104z" />
    <glyph glyph-name="six" unicode="6" horiz-adv-x="1109" 
d="M551 -19q-229 0 -324.5 146t-95.5 472q0 361 115 522t384 161q156 0 312 -69l-44 -97q-107 60 -270 60q-201 0 -288 -117.5t-89 -386.5q61 40 162 66.5t198 26.5q180 0 273.5 -96t93.5 -280q0 -199 -110 -303.5t-317 -104.5zM558 85q148 0 225 75.5t77 223.5
q0 276 -268 276q-92 0 -186 -29t-159 -75q2 -252 70.5 -361.5t240.5 -109.5z" />
    <glyph glyph-name="seven" unicode="7" horiz-adv-x="860" 
d="M333 0h-115l465 1174h-620v99h657q50 0 68.5 -25.5t-1.5 -81.5z" />
    <glyph glyph-name="eight" unicode="8" horiz-adv-x="1119" 
d="M560 -19q-213 0 -321 89.5t-108 262.5q0 125 62.5 204t166.5 103q-96 27 -149.5 103t-53.5 187q0 170 102 261t301 91t301.5 -91t102.5 -261q0 -111 -53.5 -187t-151.5 -103q104 -24 166.5 -103t62.5 -204q0 -173 -107.5 -262.5t-320.5 -89.5zM560 686q287 0 287 239
q0 134 -70.5 196t-216.5 62q-147 0 -218 -62t-71 -196q0 -239 289 -239zM560 80q161 0 235.5 64.5t74.5 196.5q0 131 -82.5 191t-227.5 60q-144 0 -228.5 -60.5t-84.5 -190.5q0 -132 76 -196.5t237 -64.5z" />
    <glyph glyph-name="nine" unicode="9" horiz-adv-x="1109" 
d="M474 -7q-155 0 -312 68l48 96q111 -58 266 -58q201 0 288.5 116t92.5 387q-62 -40 -164 -66t-200 -26q-180 0 -274 96.5t-94 279.5q0 198 109.5 302t316.5 104q231 0 327.5 -145t96.5 -471q0 -359 -116 -521t-385 -162zM514 614q90 0 183.5 29t159.5 77q-2 250 -71.5 358
t-239.5 108q-147 0 -224.5 -74t-77.5 -221q0 -136 69 -206.5t201 -70.5z" />
    <glyph glyph-name="colon" unicode=":" horiz-adv-x="428" 
d="M215 770q-37 0 -58.5 22.5t-21.5 59.5t21.5 57.5t58.5 20.5t58 -20.5t21 -57.5t-21.5 -59.5t-57.5 -22.5zM215 -14q-37 0 -58.5 22t-21.5 59t21.5 57.5t58.5 20.5t58 -20.5t21 -57.5t-21 -59t-58 -22z" />
    <glyph glyph-name="semicolon" unicode=";" horiz-adv-x="428" 
d="M215 770q-37 0 -58.5 22.5t-21.5 59.5t21.5 57.5t58.5 20.5t58 -20.5t21 -57.5t-21.5 -59.5t-57.5 -22.5zM123 -174l-34 53q83 50 83 99q0 16 -18.5 38t-18.5 51q0 37 21.5 57.5t58.5 20.5q79 0 79 -97q0 -139 -171 -222z" />
    <glyph glyph-name="less" unicode="&#x3c;" horiz-adv-x="890" 
d="M804 328v-121l-724 402v62l724 401v-121l-562 -311z" />
    <glyph glyph-name="equal" unicode="=" horiz-adv-x="959" 
d="M90 864h779v-106h-779v106zM90 524h779v-106h-779v106z" />
    <glyph glyph-name="greater" unicode="&#x3e;" horiz-adv-x="889" 
d="M809 609l-724 -402v121l562 312l-562 311v121l724 -401v-62z" />
    <glyph glyph-name="question" unicode="?" horiz-adv-x="762" 
d="M89 1128v101q128 65 266 65q157 0 242.5 -76t85.5 -214q0 -63 -17.5 -111.5t-45.5 -80t-62 -59t-68.5 -55t-62.5 -59.5t-45.5 -81.5t-17.5 -113.5v-133h-106v150q0 71 17.5 127t45 92t61 66t67.5 55.5t61.5 52t45 64.5t17.5 86q0 89 -61 138t-172 49q-122 0 -251 -63z
M311 -14q-37 0 -59 22t-22 59q0 36 22 57t59 21t57.5 -20.5t20.5 -57.5t-21 -59t-57 -22z" />
    <glyph glyph-name="at" unicode="@" horiz-adv-x="1800" 
d="M1319 -404h-445q-353 0 -529 213.5t-176 606.5q0 431 204.5 653.5t585.5 222.5q370 0 564 -192.5t194 -561.5q0 -257 -120.5 -402.5t-323.5 -145.5q-70 0 -100 25t-35 89q-45 -61 -107.5 -87.5t-158.5 -26.5q-152 0 -230.5 67.5t-78.5 198.5q0 126 82 198.5t227 72.5h260
v106q0 107 -51.5 153.5t-172.5 46.5q-90 0 -146.5 -25.5t-99.5 -82.5l-68 65q52 72 128.5 105t188.5 33q164 0 243.5 -70t79.5 -216v-502q0 -34 11.5 -46t51.5 -12q142 0 228 112.5t86 337.5q0 336 -162.5 499.5t-489.5 163.5q-683 0 -683 -777q0 -725 605 -725h438v-97z
M879 82q127 0 190 55t63 180v120h-258q-103 0 -156.5 -46t-53.5 -135q0 -174 215 -174z" />
    <glyph glyph-name="A" unicode="A" horiz-adv-x="1093" 
d="M1070 0h-107l-147 404h-534l-149 -404h-109l473 1278h105zM550 1135l-233 -632h463z" />
    <glyph glyph-name="B" unicode="B" horiz-adv-x="1063" 
d="M777 659q211 -63 211 -319q0 -173 -103 -256.5t-315 -83.5h-430v1114q0 87 37.5 125.5t124.5 38.5h259q188 0 277.5 -78.5t89.5 -243.5q0 -233 -151 -297zM247 1120v-420h314q139 0 198.5 60t59.5 196q0 116 -60 168t-198 52h-259q-34 0 -44.5 -10.5t-10.5 -45.5z
M247 102h323q166 0 237.5 56t71.5 182q0 139 -71.5 200t-237.5 61h-323v-499z" />
    <glyph glyph-name="C" unicode="C" horiz-adv-x="1018" 
d="M544 -14q-250 0 -357 150t-107 501t107 500.5t357 149.5q151 0 246.5 -55t160.5 -179l-94 -46q-56 97 -126.5 135.5t-186.5 38.5q-134 0 -209.5 -51.5t-109.5 -168t-34 -324.5t34 -325t109.5 -168.5t209.5 -51.5q117 0 188 38.5t128 135.5l91 -46q-65 -124 -160.5 -179
t-246.5 -55z" />
    <glyph glyph-name="D" unicode="D" horiz-adv-x="1160" 
d="M550 0h-410v1114q0 87 37.5 125.5t124.5 38.5h248q117 0 211.5 -36.5t167 -111.5t112 -200t39.5 -292q0 -166 -40 -290.5t-112.5 -199.5t-167 -111.5t-210.5 -36.5zM247 1120v-1019h303q91 0 165 28.5t133 89.5t92 167.5t33 251.5q0 116 -21.5 208t-59.5 153t-92 101.5
t-116 58t-134 17.5h-248q-34 0 -44.5 -10.5t-10.5 -45.5z" />
    <glyph glyph-name="E" unicode="E" horiz-adv-x="930" 
d="M833 1176h-531q-34 0 -44.5 -10.5t-10.5 -45.5v-424h523v-100h-523v-494h586v-102h-693v1114q0 87 37.5 125.5t124.5 38.5h531v-102z" />
    <glyph glyph-name="F" unicode="F" horiz-adv-x="930" 
d="M833 1176h-531q-34 0 -44.5 -10.5t-10.5 -45.5v-424h523v-100h-523v-596h-107v1114q0 87 37.5 125.5t124.5 38.5h531v-102z" />
    <glyph glyph-name="G" unicode="G" horiz-adv-x="1025" 
d="M838 558h-338v101h444v-565q-97 -57 -191.5 -81.5t-208.5 -24.5q-250 0 -357 149t-107 500t107 500.5t357 149.5q157 0 256.5 -57t150.5 -179l-99 -46q-38 94 -111.5 135t-196.5 41q-134 0 -209.5 -51.5t-109.5 -168t-34 -324.5t34 -324.5t109.5 -167.5t209.5 -51
q151 0 294 65v399z" />
    <glyph glyph-name="H" unicode="H" horiz-adv-x="1117" 
d="M862 693v585h107v-1278h-107v591h-606v-591h-108v1278h108v-585h606z" />
    <glyph glyph-name="I" unicode="I" horiz-adv-x="404" 
d="M256 0h-108v1278h108v-1278z" />
    <glyph glyph-name="J" unicode="J" horiz-adv-x="571" 
d="M46 -14v103h56q151 0 208 75.5t57 272.5v841h107v-841q0 -243 -87 -347t-290 -104h-51z" />
    <glyph glyph-name="K" unicode="K" horiz-adv-x="1049" 
d="M1027 0h-126l-433 647l-219 -253v-394h-107v1278h107v-723l625 723h138l-473 -548z" />
    <glyph glyph-name="L" unicode="L" horiz-adv-x="819" 
d="M790 0h-488q-87 0 -124.5 38t-37.5 124v1116h107v-1119q0 -35 10.5 -45t44.5 -10h488v-104z" />
    <glyph glyph-name="M" unicode="M" horiz-adv-x="1348" 
d="M676 316l433 962h103v-1278h-108v1010l-375 -829h-104l-383 831v-1012h-107v1278h102z" />
    <glyph glyph-name="N" unicode="N" horiz-adv-x="1218" 
d="M973 198v1080h107v-1278h-99l-739 1085v-1085h-107v1278h104z" />
    <glyph glyph-name="O" unicode="O" horiz-adv-x="1092" 
d="M544 -12q-250 0 -357 149t-107 500t107 500.5t357 149.5q252 0 360 -149.5t108 -500.5t-108 -500t-360 -149zM544 94q135 0 211.5 51t111 167.5t34.5 324.5q0 156 -18 258.5t-61 167t-109.5 91.5t-168.5 27q-134 0 -209.5 -51.5t-109.5 -168t-34 -324.5t34 -324.5
t109.5 -167.5t209.5 -51z" />
    <glyph glyph-name="P" unicode="P" horiz-adv-x="1039" 
d="M302 1278h215q248 0 353.5 -88.5t105.5 -296.5q0 -207 -105.5 -295.5t-353.5 -88.5h-270v-509h-107v1114q0 87 37.5 125.5t124.5 38.5zM247 611h270q200 0 274 58.5t74 219.5q0 165 -74.5 226t-273.5 61h-215q-34 0 -44.5 -10.5t-10.5 -45.5v-509z" />
    <glyph glyph-name="Q" unicode="Q" horiz-adv-x="1092" 
d="M1019 -24l7 -78q-35 -19 -84 -19q-73 0 -149 21t-175.5 52t-199.5 46q-180 33 -259 184t-79 455q0 351 107 500.5t357 149.5q252 0 360 -149.5t108 -500.5q0 -286 -69.5 -432t-227.5 -188q14 -4 46.5 -13.5t43.5 -12.5t35.5 -9t35.5 -7.5t32 -4.5t35.5 -2t34.5 2.5
t41 5.5zM191 637q0 -208 34 -324.5t109.5 -167.5t209.5 -51q135 0 211.5 51t111 167.5t34.5 324.5q0 156 -18 258.5t-61 167t-109.5 91.5t-168.5 27q-134 0 -209.5 -51.5t-109.5 -168t-34 -324.5z" />
    <glyph glyph-name="R" unicode="R" horiz-adv-x="1109" 
d="M725 529l313 -529h-122l-303 512q-43 -3 -96 -3h-270v-509h-107v1114q0 87 37.5 125.5t124.5 38.5h215q248 0 353.5 -88.5t105.5 -296.5q0 -157 -59.5 -244.5t-191.5 -119.5zM247 1120v-509h270q200 0 274 58.5t74 219.5q0 165 -74.5 226t-273.5 61h-215
q-34 0 -44.5 -10.5t-10.5 -45.5z" />
    <glyph glyph-name="S" unicode="S" horiz-adv-x="981" 
d="M500 -14q-139 0 -239 41.5t-189 132.5l63 74q75 -81 154 -113t197 -32q171 0 246 59.5t75 194.5q0 64 -13.5 106t-45 69t-72.5 41t-106 25l-152 25q-177 30 -252.5 99.5t-75.5 223.5q0 355 390 355q120 0 211 -33t166 -105l-70 -74q-68 57 -140 82.5t-167 25.5
q-149 0 -215.5 -58.5t-66.5 -192.5q0 -49 10 -84.5t27 -58t49.5 -38.5t66.5 -25t89 -19l151 -26q174 -30 249 -103.5t75 -229.5q0 -185 -101.5 -273.5t-313.5 -88.5z" />
    <glyph glyph-name="T" unicode="T" horiz-adv-x="853" 
d="M38 1278h778v-102h-335v-1176h-109v1176h-334v102z" />
    <glyph glyph-name="U" unicode="U" horiz-adv-x="1088" 
d="M992 1278v-807q0 -247 -109 -366t-337 -119q-229 0 -339 119t-110 366v807h110v-807q0 -203 79 -292t260 -89q180 0 259 89t79 292v807h108z" />
    <glyph glyph-name="V" unicode="V" horiz-adv-x="1093" 
d="M550 142l413 1136h107l-468 -1278h-105l-473 1278h109z" />
    <glyph glyph-name="W" unicode="W" horiz-adv-x="1498" 
d="M1092 189l270 1089h104l-321 -1278h-107l-289 1101l-288 -1101h-108l-321 1278h105l269 -1089l285 1089h116z" />
    <glyph glyph-name="X" unicode="X" horiz-adv-x="1035" 
d="M594 647l404 -647h-124l-355 584l-357 -584h-124l404 647l-401 631h126l352 -554l350 554h126z" />
    <glyph glyph-name="Y" unicode="Y" horiz-adv-x="1061" 
d="M529 628l393 650h117l-455 -751v-527h-110v524l-452 754h118z" />
    <glyph glyph-name="Z" unicode="Z" horiz-adv-x="993" 
d="M932 0h-683q-122 0 -158 74t42 179l649 861q46 62 -36 62h-630v102h625q122 0 155.5 -70.5t-43.5 -173.5l-658 -865q-20 -29 -10.5 -48t42.5 -19h705v-102z" />
    <glyph glyph-name="bracketleft" unicode="[" horiz-adv-x="474" 
d="M411 -391h-297v1833h297v-99h-193v-1637h193v-97z" />
    <glyph glyph-name="backslash" unicode="\" horiz-adv-x="824" 
d="M787 -61h-115l-619 1339h114z" />
    <glyph glyph-name="bracketright" unicode="]" horiz-adv-x="474" 
d="M360 1442v-1833h-297v97h193v1637h-193v99h297z" />
    <glyph glyph-name="underscore" unicode="_" horiz-adv-x="909" 
d="M90 -253v106h750v-106h-750z" />
    <glyph glyph-name="grave" unicode="`" horiz-adv-x="363" 
d="M46 1273l282 -200l-53 -69l-282 197z" />
    <glyph glyph-name="a" unicode="a" horiz-adv-x="839" 
d="M724 300v-152q0 -41 11.5 -53t61.5 -11v-87q-30 -6 -53 -6q-93 0 -111 101q-87 -106 -278 -106q-151 0 -223 65.5t-72 202.5q0 140 72 206.5t223 66.5h266v115q0 107 -47 148t-171 41q-88 0 -146.5 -25.5t-99.5 -81.5l-70 63q54 75 125.5 108t191.5 33q170 0 245.5 -67
t75.5 -219v-338zM355 82q266 0 266 247v103h-266q-103 0 -146 -39.5t-43 -134.5q0 -96 43 -136t146 -40z" />
    <glyph glyph-name="b" unicode="b" horiz-adv-x="925" 
d="M526 927q168 0 247.5 -115t79.5 -355t-85 -355.5t-258 -115.5q-196 0 -286 133l-7 -119h-86v1278h105v-440q149 89 290 89zM505 82q126 0 184.5 88.5t58.5 286.5t-53.5 285t-173.5 87q-131 0 -285 -95v-359q0 -144 72.5 -218.5t196.5 -74.5z" />
    <glyph glyph-name="c" unicode="c" horiz-adv-x="776" 
d="M445 -14q-194 0 -283.5 113t-89.5 358q0 243 89.5 356.5t283.5 113.5q168 0 292 -99l-53 -72q-96 73 -233 73q-150 0 -212 -84.5t-62 -287.5t62 -288t212 -85q75 0 126.5 18t106.5 55l53 -72q-124 -99 -292 -99z" />
    <glyph glyph-name="d" unicode="d" horiz-adv-x="930" 
d="M795 338v-190q0 -42 12 -54t62 -10v-87q-35 -7 -53 -7q-106 0 -113 129q-93 -133 -288 -133q-173 0 -258 115.5t-85 355.5t79.5 355t247.5 115q141 0 290 -89v440h105v-940h1zM420 82q124 0 196.5 74.5t72.5 218.5v359q-154 95 -285 95q-120 0 -173.5 -87t-53.5 -285
t58.5 -286.5t184.5 -88.5z" />
    <glyph glyph-name="e" unicode="e" horiz-adv-x="872" 
d="M806 464v-29h-622q4 -189 71.5 -270t208.5 -81q137 0 260 75l54 -74q-146 -99 -322 -99q-196 0 -286.5 120.5t-90.5 349.5q0 472 368 472q186 0 272.5 -117.5t86.5 -346.5zM445 836q-127 0 -188.5 -75.5t-70.5 -233.5h514q-7 157 -67 233t-188 76z" />
    <glyph glyph-name="f" unicode="f" horiz-adv-x="428" 
d="M343 1191q-58 0 -77 -31t-19 -88v-157h192v-92h-192v-823h-104v823h-71v92h71v157q0 110 45.5 163.5t139.5 53.5q92 0 157 -43l-29 -80q-60 25 -113 25z" />
    <glyph glyph-name="g" unicode="g" horiz-adv-x="907" 
d="M695 835l6 80h93v-898q0 -234 -99.5 -343t-307.5 -109q-158 0 -286 75l36 92q121 -67 252 -67q167 0 236.5 81.5t67.5 270.5l-2 89q-92 -120 -276 -120q-173 0 -258 115.5t-85 355.5t79.5 355t247.5 115q145 0 296 -92zM420 82q124 0 196.5 74.5t72.5 218.5v359
q-154 95 -285 95q-120 0 -173.5 -87t-53.5 -285t58.5 -286.5t184.5 -88.5z" />
    <glyph glyph-name="h" unicode="h" horiz-adv-x="972" 
d="M836 148q0 -42 13 -54t64 -10v-89q-43 -5 -55 -5q-126 0 -126 160v454q0 126 -40.5 177.5t-138.5 51.5q-163 0 -317 -113v-720h-105v1278h105v-457q161 109 329 109q138 0 204.5 -81t66.5 -250v-451z" />
    <glyph glyph-name="i" unicode="i" horiz-adv-x="361" 
d="M242 1215q0 -33 -20 -53t-53 -20t-52.5 20t-19.5 53t19.5 53.5t52.5 20.5t53 -20.5t20 -53.5zM222 148q0 -42 13 -54t64 -10v-89q-42 -5 -55 -5q-126 0 -126 160v765h104v-767z" />
    <glyph glyph-name="j" unicode="j" horiz-adv-x="390" 
d="M195 1142q-33 0 -52.5 20t-19.5 53t19.5 53.5t52.5 20.5t53 -20.5t20 -53.5t-20 -53t-53 -20zM-82 -440v92q129 11 177 83.5t48 252.5v927h104v-927q0 -224 -74.5 -322.5t-254.5 -105.5z" />
    <glyph glyph-name="k" unicode="k" horiz-adv-x="887" 
d="M858 0h-116l-305 514l-201 -203v-311h-105v1278h105v-827l459 464h140l-326 -330z" />
    <glyph glyph-name="l" unicode="l" horiz-adv-x="363" 
d="M247 -10q-124 0 -124 160v1128h104v-1130q0 -42 12 -54t61 -10v-89q-38 -5 -53 -5z" />
    <glyph glyph-name="m" unicode="m" horiz-adv-x="1500" 
d="M1364 148q0 -42 13 -54t63 -10v-89q-42 -5 -54 -5q-126 0 -126 160v454q0 127 -41 179t-139 52q-154 0 -290 -118q10 -51 10 -118v-599h-100v604q0 126 -42.5 178.5t-140.5 52.5q-154 0 -290 -105v-730h-104v915h92l9 -91q146 106 303 106q177 0 238 -130
q148 130 327 130q138 0 205 -81t67 -250v-451z" />
    <glyph glyph-name="n" unicode="n" horiz-adv-x="964" 
d="M828 148q0 -42 13 -54t64 -10v-89q-43 -5 -55 -5q-126 0 -126 160v454q0 126 -40.5 177.5t-139.5 51.5q-163 0 -317 -113v-720h-104v915h92l9 -98q165 113 332 113q138 0 205 -81t67 -250v-451z" />
    <glyph glyph-name="o" unicode="o" horiz-adv-x="870" 
d="M437 -14q-190 0 -277.5 113t-87.5 358t87.5 358t277.5 113q188 0 275 -113t87 -358t-87 -358t-275 -113zM437 84q140 0 198 85t58 288t-58 288.5t-198 85.5q-143 0 -201.5 -85.5t-58.5 -288.5t58.5 -288t201.5 -85z" />
    <glyph glyph-name="p" unicode="p" horiz-adv-x="925" 
d="M526 927q168 0 247.5 -115t79.5 -355t-85 -355.5t-258 -115.5q-180 0 -274 116v-534h-105v1347h93l6 -80q151 92 296 92zM505 82q126 0 184.5 88.5t58.5 286.5t-53.5 285t-173.5 87q-131 0 -285 -95v-359q0 -144 72.5 -218.5t196.5 -74.5z" />
    <glyph glyph-name="q" unicode="q" horiz-adv-x="925" 
d="M695 835l6 80h93v-1347h-105v534q-94 -116 -274 -116q-173 0 -258 115.5t-85 355.5t79.5 355t247.5 115q145 0 296 -92zM420 82q124 0 196.5 74.5t72.5 218.5v359q-154 95 -285 95q-120 0 -173.5 -87t-53.5 -285t58.5 -286.5t184.5 -88.5z" />
    <glyph glyph-name="r" unicode="r" horiz-adv-x="576" 
d="M539 927v-103q-161 -5 -312 -126v-698h-104v915h92l10 -121q147 129 314 133z" />
    <glyph glyph-name="s" unicode="s" horiz-adv-x="723" 
d="M669 251q0 -124 -81.5 -194.5t-230.5 -70.5q-99 0 -175 29.5t-139 98.5l65 79q61 -61 118.5 -83.5t137.5 -22.5q93 0 149.5 40.5t56.5 119.5q0 74 -40.5 109.5t-123.5 47.5l-97 14q-111 15 -175 77.5t-64 168.5q0 124 79 194t218 70q153 0 258 -88l-53 -86
q-89 75 -207 75q-89 0 -141.5 -41t-52.5 -117q0 -73 42.5 -109t122.5 -47l97 -15q118 -17 177 -76.5t59 -172.5z" />
    <glyph glyph-name="t" unicode="t" horiz-adv-x="501" 
d="M427 109l29 -82q-62 -41 -159 -41q-93 0 -138 53t-45 164v963h104v-251h181v-94h-181v-618q0 -59 18.5 -90t77.5 -31q55 0 113 27z" />
    <glyph glyph-name="u" unicode="u" horiz-adv-x="947" 
d="M809 148q0 -42 11.5 -54t61.5 -10v-89q-38 -5 -53 -5q-52 0 -78.5 28.5t-33.5 89.5q-177 -122 -343 -122q-138 0 -205 81t-67 250v598h105v-603q0 -126 40 -177t139 -51q159 0 317 112v719h106v-767z" />
    <glyph glyph-name="v" unicode="v" horiz-adv-x="829" 
d="M413 143l283 772h111l-341 -915h-102l-342 915h113z" />
    <glyph glyph-name="w" unicode="w" horiz-adv-x="1320" 
d="M951 152l228 763h108l-282 -915h-112l-233 742l-232 -742h-112l-282 915h108l228 -763l238 763h105z" />
    <glyph glyph-name="x" unicode="x" horiz-adv-x="837" 
d="M485 469l307 -469h-125l-247 389l-249 -389h-125l307 469l-297 446h125l239 -367l237 367h125z" />
    <glyph glyph-name="y" unicode="y" horiz-adv-x="896" 
d="M681 196v719h106v-898q0 -234 -100 -343t-308 -109q-159 0 -287 75l36 92q121 -67 253 -67q166 0 233 81t67 271v80q-171 -111 -329 -111q-138 0 -205 81t-67 250v598h104v-603q0 -126 40.5 -177t139.5 -51q159 0 317 112z" />
    <glyph glyph-name="z" unicode="z" horiz-adv-x="769" 
d="M116 915h587v-101q-285 -381 -490 -717h490v-97h-618v90q236 380 494 727h-463v98z" />
    <glyph glyph-name="braceleft" unicode="{" horiz-adv-x="619" 
d="M92 481v91q78 20 107.5 86t29.5 223q0 116 3.5 192t14.5 145t29.5 108t50 68t75.5 40t107 10l59 -2v-99h-59q-124 0 -150 -80.5t-26 -357.5q0 -163 -27 -244t-98 -135q71 -53 98 -134t27 -244q0 -278 26 -359t150 -81h59v-99h-59q-63 -1 -107 9.5t-75.5 39.5t-50 68
t-29.5 108t-14.5 145t-3.5 192q0 157 -29.5 222.5t-107.5 87.5z" />
    <glyph glyph-name="bar" unicode="|" horiz-adv-x="496" 
d="M189 -428v1896h110v-1896h-110z" />
    <glyph glyph-name="braceright" unicode="}" horiz-adv-x="619" 
d="M527 572v-91q-78 -22 -107 -87.5t-29 -222.5q0 -116 -3.5 -192t-14.5 -145t-29.5 -108t-50 -68t-75.5 -39.5t-107 -9.5h-60v99h60q124 0 150 81t26 359q0 163 26.5 244t97.5 134q-71 54 -97.5 135t-26.5 244q0 277 -26 357.5t-150 80.5h-60v99l60 2q63 1 107 -10
t75.5 -40t50 -68t29.5 -108t14.5 -145t3.5 -192q0 -157 29 -223t107 -86z" />
    <glyph glyph-name="exclamdown" unicode="&#xa1;" horiz-adv-x="428" 
d="M215 932q36 0 57.5 -22.5t21.5 -59.5t-21 -58t-58 -21t-58.5 21t-21.5 58t21.5 59.5t58.5 22.5zM157 -360l7 973h102l7 -973h-116z" />
    <glyph glyph-name="sterling" unicode="&#xa3;" horiz-adv-x="972" 
d="M375 584q0 -95 -26 -229.5t-81 -255.5h611v-99h-729l2 97q58 124 86 256.5t28 226.5v11h-126v85h118q-4 26 -14 80t-16 99.5t-6 91.5q0 171 90.5 254.5t279.5 85.5q160 3 301 -68l-40 -89q-120 58 -259 58q-261 0 -261 -236q0 -39 6 -84.5t16 -101.5t14 -90h413v-85h-407
v-7z" />
    <glyph glyph-name="guillemotleft" unicode="&#xab;" horiz-adv-x="865" 
d="M474 130h-121l-235 329l235 324h121l-230 -324zM794 130h-123l-236 329l236 324h123l-231 -324z" />
    <glyph glyph-name="guillemotright" unicode="&#xbb;" horiz-adv-x="865" 
d="M430 459l-235 -329h-123l230 329l-230 324h123zM748 459l-236 -329h-121l230 329l-230 324h121z" />
    <glyph glyph-name="questiondown" unicode="&#xbf;" horiz-adv-x="762" 
d="M452 928q37 0 58.5 -21.5t21.5 -58.5t-21.5 -58.5t-58.5 -21.5t-57.5 21.5t-20.5 58.5t20.5 58.5t57.5 21.5zM674 -215v-99q-128 -65 -266 -65q-158 0 -243 75.5t-85 214.5q0 63 17.5 111.5t45.5 80t62.5 58.5t68.5 54.5t62 59.5t45.5 82t17.5 114v133h106v-150
q0 -71 -17.5 -127.5t-45.5 -92.5t-61.5 -66t-67 -55t-61.5 -52t-45.5 -64.5t-17.5 -85.5q0 -89 61.5 -138t172.5 -49q126 0 251 61z" />
    <glyph glyph-name="multiply" unicode="&#xd7;" horiz-adv-x="887" 
d="M358 672l-34 29l-19 144zM490 742l31 35l145 20zM454 700l-26 22l62 20zM399 637l55 63l65 -55l-55 -65zM399 637l-22 -28l-19 63zM519 645l22 26l19 -60zM560 611l36 -31l18 -145zM464 580l26 -22l-62 -19zM428 539l-29 -34l-145 -20z" />
    <glyph glyph-name="divide" unicode="&#xf7;" horiz-adv-x="955" 
d="M531 913q0 -20 -15 -34t-35 -14q-19 0 -33.5 14t-14.5 34q0 16 15.5 31t32.5 15q20 0 35 -14.5t15 -31.5zM89 693h778v-104h-778v104zM531 352q0 -20 -15 -34t-35 -14q-19 0 -33.5 14t-14.5 34q0 18 15.5 32t32.5 14q20 0 35 -14t15 -32z" />
    <glyph glyph-name="circumflex" unicode="&#x2c6;" horiz-adv-x="488" 
d="M305 1094l-56 84l-27 -137h-118l89 183l53 -41l107 -142z" />
    <glyph glyph-name="uni060C" unicode="&#x60c;" horiz-adv-x="428" 
d="M305 309l35 -55q-84 -51 -84 -99q0 -16 19 -37.5t19 -50.5q0 -37 -22 -58t-59 -21q-78 0 -78 97q0 137 170 224z" />
    <glyph glyph-name="uni061B" unicode="&#x61b;" horiz-adv-x="428" 
d="M305 935l35 -54q-84 -48 -84 -99q0 -15 19 -37.5t19 -51.5q0 -36 -22 -57.5t-59 -21.5q-78 0 -78 98q0 136 170 223zM215 -14q-37 0 -58.5 22t-21.5 59t21.5 57.5t58.5 20.5t58 -20.5t21 -57.5t-21 -59t-58 -22z" />
    <glyph glyph-name="uni061F" unicode="&#x61f;" horiz-adv-x="762" 
d="M674 1229v-101q-129 63 -251 63q-111 0 -172.5 -49t-61.5 -138q0 -48 17.5 -86t45.5 -64.5t61.5 -52t67 -55.5t61.5 -66t45.5 -92t17.5 -127v-150h-106v133q0 64 -17.5 113.5t-45.5 81.5t-62 59.5t-68.5 55t-62.5 59t-45.5 80t-17.5 111.5q0 138 85.5 214t242.5 76
q138 0 266 -65zM452 -14q-36 0 -57 22t-21 59t20.5 57.5t57.5 20.5t58.5 -20.5t21.5 -57.5t-21.5 -59t-58.5 -22z" />
    <glyph glyph-name="uni0621" unicode="&#x621;" horiz-adv-x="810" 
d="M756 625h-224q-109 0 -166 -61.5t-57 -177.5q0 -141 104 -282h343v-104h-718v104h254q-91 136 -91 282q0 163 85.5 250.5t245.5 87.5h224v-99z" />
    <glyph glyph-name="uni0622" unicode="&#x622;" horiz-adv-x="593" 
d="M39 1128v96q77 53 132.5 61.5t132.5 -25.5q48 -22 83.5 -30.5t78.5 -4t89 27.5v-98q-46 -24 -89.5 -28.5t-78 4.5t-83.5 30q-77 34 -132.5 26t-132.5 -59zM372 0h-104v915h104v-915z" />
    <glyph glyph-name="uni0623" unicode="&#x623;" horiz-adv-x="469" 
d="M379 1056h-302v64h118q-67 128 -30 199.5t171 71.5h67v-60h-67q-103 0 -120 -48.5t45 -162.5h118v-64zM287 0h-104v915h104v-915z" />
    <glyph glyph-name="uni0624" unicode="&#x624;" horiz-adv-x="870" 
d="M457 1120h118v-64h-302v64h118q-67 128 -30 199.5t171 71.5h67v-60h-67q-103 0 -120 -48.5t45 -162.5zM445 807q177 0 261 -99.5t84 -306.5v-435q0 -203 -99 -300.5t-305 -97.5h-120v97h120q157 0 228.5 71.5t71.5 229.5v34h-241q-178 0 -263 98t-85 303q0 207 85 306.5
t263 99.5zM201 401q0 -157 56.5 -227t187.5 -70h239v297q0 164 -56 235.5t-183 71.5q-129 0 -186.5 -71.5t-57.5 -235.5z" />
    <glyph glyph-name="uni0625" unicode="&#x625;" horiz-adv-x="469" 
d="M287 0h-104v1278h104v-1278zM370 -432h-303v63h117q-67 128 -29.5 200t171.5 72h68v-60h-68q-103 0 -120 -49t45 -163h119v-63z" />
    <glyph glyph-name="uni0626" unicode="&#x626;" horiz-adv-x="1315" 
d="M295 572h-302v63h118q-67 128 -29.5 199.5t171.5 71.5h66v-59h-66q-103 0 -120.5 -49t44.5 -163h118v-63zM1140 5q0 59 -10.5 96.5t-46 66t-66 43.5t-107.5 45q-12 5 -19.5 8t-19 7.5t-21.5 8.5q-124 51 -176.5 110.5t-52.5 165.5q0 129 75 191t231 62q140 0 278 -48
l-21 -101q-139 47 -262 47q-103 0 -149 -35.5t-46 -113.5q0 -68 37.5 -107.5t128.5 -75.5q51 -21 77 -32t65.5 -28.5t58.5 -29.5t46.5 -31t40.5 -35.5t28.5 -39.5t22 -48.5t11.5 -57t5 -68.5q0 -139 -60.5 -206t-185.5 -67h-587q-170 0 -252.5 93t-82.5 286v333h106v-333
q0 -145 54.5 -210t174.5 -65h587q73 0 105.5 39.5t32.5 129.5z" />
    <glyph glyph-name="uni0627" unicode="&#x627;" horiz-adv-x="469" 
d="M287 0h-104v1278h104v-1278z" />
    <glyph glyph-name="uni0628" unicode="&#x628;" horiz-adv-x="1518" 
d="M1324 297v478h106v-478q0 -160 -56 -228.5t-188 -68.5h-862q-132 0 -188 68.5t-56 228.5v323h106v-323q0 -110 30 -151.5t108 -41.5h862q78 0 108 41.5t30 151.5zM756 -287q33 0 53 -19t20 -52t-20 -53.5t-53 -20.5t-53 20.5t-20 53.5t20 52t53 19z" />
    <glyph glyph-name="uni0629" unicode="&#x629;" horiz-adv-x="921" 
d="M300 1142q-33 0 -53 20t-20 53t20 53.5t53 20.5t53.5 -20.5t20.5 -53.5t-20.5 -53t-53.5 -20zM570 1142q-33 0 -53 20t-20 53t20 53.5t53 20.5t53 -20.5t20 -53.5t-20 -53t-53 -20zM463 -14q-187 0 -276.5 101t-89.5 311t89.5 310.5t276.5 100.5q184 0 272.5 -100.5
t88.5 -310.5t-88.5 -311t-272.5 -101zM463 84q137 0 196.5 72.5t59.5 241.5q0 168 -60 241t-196 73q-138 0 -199 -73t-61 -241q0 -169 61 -241.5t199 -72.5z" />
    <glyph glyph-name="uni062A" unicode="&#x62a;" horiz-adv-x="1518" 
d="M621 1142q-33 0 -53 20t-20 53t20 53.5t53 20.5t53.5 -20.5t20.5 -53.5t-20.5 -53t-53.5 -20zM891 1142q-33 0 -53.5 20t-20.5 53t20.5 53.5t53.5 20.5t53 -20.5t20 -53.5t-20 -53t-53 -20zM1324 297v478h106v-478q0 -160 -56 -228.5t-188 -68.5h-862q-132 0 -188 68.5
t-56 228.5v323h106v-323q0 -110 30 -151.5t108 -41.5h862q78 0 108 41.5t30 151.5z" />
    <glyph glyph-name="uni062B" unicode="&#x62b;" horiz-adv-x="1518" 
d="M756 1299q-33 0 -53 20t-20 53t20 53.5t53 20.5t53 -20.5t20 -53.5t-20 -53t-53 -20zM621 1044q-33 0 -53 20.5t-20 53.5t20 53t53 20t53.5 -20t20.5 -53t-20.5 -53.5t-53.5 -20.5zM891 1044q-33 0 -53.5 20.5t-20.5 53.5t20.5 53t53.5 20t53 -20t20 -53t-20 -53.5
t-53 -20.5zM1324 297v478h106v-478q0 -160 -56 -228.5t-188 -68.5h-862q-132 0 -188 68.5t-56 228.5v323h106v-323q0 -110 30 -151.5t108 -41.5h862q78 0 108 41.5t30 151.5z" />
    <glyph glyph-name="uni062C" unicode="&#x62c;" horiz-adv-x="1080" 
d="M317 775h243q212 0 313.5 -111t101.5 -343v-321h-625q-173 0 -173 -164t173 -164h169v-104h-162q-137 0 -211 70.5t-74 199.5q0 128 74 197t211 69h513v217q0 190 -72 274t-238 84h-243v96zM811 -297q33 0 53 -19.5t20 -52.5t-20 -53t-53 -20t-53.5 20t-20.5 53
t20.5 52.5t53.5 19.5z" />
    <glyph glyph-name="uni062D" unicode="&#x62d;" horiz-adv-x="1080" 
d="M317 775h243q212 0 313.5 -111t101.5 -343v-321h-625q-173 0 -173 -164t173 -164h437v-104h-430q-137 0 -211 70.5t-74 199.5q0 128 74 197t211 69h513v217q0 190 -72 274t-238 84h-243v96z" />
    <glyph glyph-name="uni062E" unicode="&#x62e;" horiz-adv-x="1080" 
d="M524 1142q-33 0 -53 20t-20 53t20 53.5t53 20.5t53 -20.5t20 -53.5t-20 -53t-53 -20zM317 775h243q212 0 313.5 -111t101.5 -343v-321h-625q-173 0 -173 -164t173 -164h437v-104h-430q-137 0 -211 70.5t-74 199.5q0 128 74 197t211 69h513v217q0 190 -72 274t-238 84
h-243v96z" />
    <glyph glyph-name="uni062F" unicode="&#x62f;" horiz-adv-x="779" 
d="M468 775h111q8 -25 28.5 -90t29.5 -93.5t24 -82t21.5 -86.5t12 -74.5t5.5 -75.5q0 -139 -71.5 -206t-220.5 -67h-345v104h345q98 0 142 40t44 129q0 21 -2 43.5t-7 50t-9.5 49.5t-14 57t-15.5 55.5t-18.5 61.5t-18.5 59t-21 64t-20 62z" />
    <glyph glyph-name="uni0630" unicode="&#x630;" horiz-adv-x="779" 
d="M382 1142q-33 0 -53 20t-20 53t20 53.5t53 20.5t53.5 -20.5t20.5 -53.5t-20.5 -53t-53.5 -20zM468 775h111q8 -25 28.5 -90t29.5 -93.5t24 -82t21.5 -86.5t12 -74.5t5.5 -75.5q0 -139 -71.5 -206t-220.5 -67h-345v104h345q98 0 142 40t44 129q0 21 -2 43.5t-7 50
t-9.5 49.5t-14 57t-15.5 55.5t-18.5 61.5t-18.5 59t-21 64t-20 62z" />
    <glyph glyph-name="uni0631" unicode="&#x631;" horiz-adv-x="416" 
d="M-68 -428v102q154 0 223 85.5t69 271.5v744h105v-744q0 -228 -97 -340t-300 -119z" />
    <glyph glyph-name="uni0632" unicode="&#x632;" horiz-adv-x="416" 
d="M276 1142q-33 0 -53 20t-20 53t20 53.5t53 20.5t52.5 -20.5t19.5 -53.5t-19.5 -53t-52.5 -20zM-68 -428v102q154 0 223 85.5t69 271.5v744h105v-744q0 -228 -97 -340t-300 -119z" />
    <glyph glyph-name="uni0633" unicode="&#x633;" horiz-adv-x="2186" 
d="M1968 317v458h106v-458q0 -166 -61.5 -246t-188.5 -80h-17q-128 0 -278 106q-57 -106 -205 -106h-17q-108 0 -235 79v-75q0 -239 -122 -354t-377 -115q-252 0 -372.5 115t-120.5 354v449h104v-449q0 -195 91 -280t298 -85q209 0 302 85t93 280v780h104v-586
q121 -87 225 -87h17q82 0 118 49t36 166v458h104v-458q0 -70 -10 -121q125 -94 235 -94h17q82 0 118 49t36 166z" />
    <glyph glyph-name="uni0634" unicode="&#x634;" horiz-adv-x="2186" 
d="M1519 1299q-33 0 -52.5 20t-19.5 53t19.5 53.5t52.5 20.5t53 -20.5t20 -53.5t-20 -53t-53 -20zM1384 1044q-33 0 -52.5 20.5t-19.5 53.5t19.5 53t52.5 20t53 -20t20 -53t-20 -53.5t-53 -20.5zM1654 1044q-33 0 -52.5 20.5t-19.5 53.5t19.5 53t52.5 20t53 -20t20 -53
t-20 -53.5t-53 -20.5zM1968 317v458h106v-458q0 -166 -61.5 -246t-188.5 -80h-17q-128 0 -278 106q-57 -106 -205 -106h-17q-108 0 -235 79v-75q0 -239 -122 -354t-377 -115q-252 0 -372.5 115t-120.5 354v449h104v-449q0 -195 91 -280t298 -85q209 0 302 85t93 280v780h104
v-586q121 -87 225 -87h17q82 0 118 49t36 166v458h104v-458q0 -70 -10 -121q125 -94 235 -94h17q82 0 118 49t36 166z" />
    <glyph glyph-name="uni0635" unicode="&#x635;" horiz-adv-x="2111" 
d="M2024 331v-331h-952q-7 -224 -129.5 -332t-369.5 -108q-252 0 -372.5 115t-120.5 354v449h104v-449q0 -195 91 -280t298 -85q209 0 302 85t93 280v730h104v-247q166 147 294.5 211.5t275.5 64.5q195 0 288.5 -111.5t93.5 -345.5zM1072 389v-285h845v227q0 191 -65 274.5
t-215 83.5q-133 0 -259 -68.5t-306 -231.5z" />
    <glyph glyph-name="uni0636" unicode="&#x636;" horiz-adv-x="2111" 
d="M1497 1143q-33 0 -53.5 20.5t-20.5 53.5t20.5 53t53.5 20t52 -20t19 -53t-19 -53.5t-52 -20.5zM2024 331v-331h-952q-7 -224 -129.5 -332t-369.5 -108q-252 0 -372.5 115t-120.5 354v449h104v-449q0 -195 91 -280t298 -85q209 0 302 85t93 280v730h104v-247
q166 147 294.5 211.5t275.5 64.5q195 0 288.5 -111.5t93.5 -345.5zM1072 389v-285h845v227q0 191 -65 274.5t-215 83.5q-133 0 -259 -68.5t-306 -231.5z" />
    <glyph glyph-name="uni0637" unicode="&#x637;" horiz-adv-x="1372" 
d="M903 788q194 0 287 -111.5t93 -345.5v-331h-1203v104h147v1174h106v-764q167 146 294.5 210t275.5 64zM333 391v-287h843v227q0 191 -65 274.5t-215 83.5q-133 0 -259.5 -68t-303.5 -230z" />
    <glyph glyph-name="uni0638" unicode="&#x638;" horiz-adv-x="1372" 
d="M754 1142q-33 0 -53 20t-20 53t20 53.5t53 20.5t53.5 -20.5t20.5 -53.5t-20.5 -53t-53.5 -20zM903 788q194 0 287 -111.5t93 -345.5v-331h-1203v104h147v1174h106v-764q167 146 294.5 210t275.5 64zM333 391v-287h843v227q0 191 -65 274.5t-215 83.5q-133 0 -259.5 -68
t-303.5 -230z" />
    <glyph glyph-name="uni0639" unicode="&#x639;" horiz-adv-x="1126" 
d="M730 104h291v-104h-671q-173 0 -173 -164t173 -164h437v-104h-430q-137 0 -211 70.5t-74 199.5q0 128 74 197t211 69h114q-84 95 -84 287q0 197 82.5 290.5t254.5 93.5h256v-96h-256q-123 0 -177 -67t-54 -221q0 -152 56 -219.5t181 -67.5z" />
    <glyph glyph-name="uni063A" unicode="&#x63a;" horiz-adv-x="1126" 
d="M705 1142q-33 0 -53.5 20t-20.5 53t20.5 53.5t53.5 20.5t53 -20.5t20 -53.5t-20 -53t-53 -20zM730 104h291v-104h-671q-173 0 -173 -164t173 -164h437v-104h-430q-137 0 -211 70.5t-74 199.5q0 128 74 197t211 69h114q-84 95 -84 287q0 197 82.5 290.5t254.5 93.5h256
v-96h-256q-123 0 -177 -67t-54 -221q0 -152 56 -219.5t181 -67.5z" />
    <glyph glyph-name="uni0640" unicode="&#x640;" horiz-adv-x="517" 
d="M534 104v-104h-551v104h551z" />
    <glyph glyph-name="uni0641" unicode="&#x641;" horiz-adv-x="1757" 
d="M1312 1142q-33 0 -52 20t-19 53t19 53.5t52 20.5t53.5 -20.5t20.5 -53.5t-20.5 -53t-53.5 -20zM1336 777h308v-777h-1320q-132 0 -188 68.5t-56 228.5v323h106v-323q0 -110 30 -151.5t108 -41.5h744q-85 92 -85 289q0 196 86 290t267 94zM1089 393q0 -154 57.5 -220.5
t189.5 -68.5h203v567h-203q-132 0 -189.5 -64t-57.5 -214z" />
    <glyph glyph-name="uni0642" unicode="&#x642;" horiz-adv-x="1186" 
d="M608 1142q-33 0 -53.5 20t-20.5 53t20.5 53.5t53.5 20.5t53 -20.5t20 -53.5t-20 -53t-53 -20zM877 1142q-33 0 -53 20t-20 53t20 53.5t53 20.5t53.5 -20.5t20.5 -53.5t-20.5 -53t-53.5 -20zM765 777h307v-782q0 -239 -122 -354t-377 -115q-252 0 -372.5 115t-120.5 354
v449h104v-449q0 -195 91 -280t298 -85q209 0 302 85t93 280v5h-203q-180 -1 -267 97t-87 296q0 196 86.5 290t267.5 94zM517 393q0 -153 58 -220t190 -69h203v567h-203q-132 0 -190 -64.5t-58 -213.5z" />
    <glyph glyph-name="uni0643" unicode="&#x643;" horiz-adv-x="1435" 
d="M1215 1278h106v-981q0 -160 -56 -228.5t-188 -68.5h-753q-132 0 -188 68.5t-56 228.5v323h106v-323q0 -110 30 -151.5t108 -41.5h753q78 0 108 41.5t30 151.5v981zM713 816h118v-63h-302v63h118q-67 128 -30 199.5t171 71.5h67v-60h-67q-103 0 -120 -48.5t45 -162.5z" />
    <glyph glyph-name="uni0644" unicode="&#x644;" horiz-adv-x="1186" 
d="M968 1278h104v-1254q0 -239 -122 -354t-377 -115q-252 0 -372.5 115t-120.5 354v449h104v-449q0 -195 91 -280t298 -85q209 0 302 85t93 280v1254z" />
    <glyph glyph-name="uni0645" unicode="&#x645;" horiz-adv-x="1256" 
d="M802 807q178 0 263 -99.5t85 -306.5q0 -205 -85 -303t-263 -98h-438q-110 0 -157.5 -47.5t-47.5 -155.5v-229h-104v229q0 156 76.5 231.5t232.5 75.5h93v297q0 207 84 306.5t261 99.5zM802 104q131 0 187.5 70t56.5 227q0 164 -57.5 235.5t-186.5 71.5q-127 0 -183 -71.5
t-56 -235.5v-297h239z" />
    <glyph glyph-name="uni0646" unicode="&#x646;" horiz-adv-x="1186" 
d="M577 782q-33 0 -53.5 20t-20.5 53t20.5 52.5t53.5 19.5t53 -19.5t20 -52.5t-20 -53t-53 -20zM1072 725v-730q0 -239 -122 -354t-377 -115q-252 0 -372.5 115t-120.5 354v449h104v-449q0 -195 91 -280t298 -85q209 0 302 85t93 280v730h104z" />
    <glyph glyph-name="uni0647" unicode="&#x647;" horiz-adv-x="921" 
d="M463 -14q-187 0 -276.5 101t-89.5 311t89.5 310.5t276.5 100.5q184 0 272.5 -100.5t88.5 -310.5t-88.5 -311t-272.5 -101zM463 84q137 0 196.5 72.5t59.5 241.5q0 168 -60 241t-196 73q-138 0 -199 -73t-61 -241q0 -169 61 -241.5t199 -72.5z" />
    <glyph glyph-name="uni0648" unicode="&#x648;" horiz-adv-x="870" 
d="M445 807q177 0 261 -99.5t84 -306.5v-435q0 -203 -99 -300.5t-305 -97.5h-120v97h120q157 0 228.5 71.5t71.5 229.5v34h-241q-178 0 -263 98t-85 303q0 207 85 306.5t263 99.5zM201 401q0 -157 56.5 -227t187.5 -70h239v297q0 164 -56 235.5t-183 71.5
q-129 0 -186.5 -71.5t-57.5 -235.5z" />
    <glyph glyph-name="uni0649" unicode="&#x649;" horiz-adv-x="1315" 
d="M1140 5q0 59 -10.5 96.5t-46 66t-66 43.5t-107.5 45q-12 5 -19.5 8t-19 7.5t-21.5 8.5q-124 51 -176.5 110.5t-52.5 165.5q0 129 75 191t231 62q140 0 278 -48l-21 -101q-139 47 -262 47q-103 0 -149 -35.5t-46 -113.5q0 -68 37.5 -107.5t128.5 -75.5q51 -21 77 -32
t65.5 -28.5t58.5 -29.5t46.5 -31t40.5 -35.5t28.5 -39.5t22 -48.5t11.5 -57t5 -68.5q0 -139 -60.5 -206t-185.5 -67h-587q-170 0 -252.5 93t-82.5 286v333h106v-333q0 -145 54.5 -210t174.5 -65h587q73 0 105.5 39.5t32.5 129.5z" />
    <glyph glyph-name="uni064A" unicode="&#x64a;" horiz-adv-x="1315" 
d="M1140 5q0 59 -10.5 96.5t-46 66t-66 43.5t-107.5 45q-12 5 -19.5 8t-19 7.5t-21.5 8.5q-124 51 -176.5 110.5t-52.5 165.5q0 129 75 191t231 62q140 0 278 -48l-21 -101q-139 47 -262 47q-103 0 -149 -35.5t-46 -113.5q0 -68 37.5 -107.5t128.5 -75.5q51 -21 77 -32
t65.5 -28.5t58.5 -29.5t46.5 -31t40.5 -35.5t28.5 -39.5t22 -48.5t11.5 -57t5 -68.5q0 -139 -60.5 -206t-185.5 -67h-587q-170 0 -252.5 93t-82.5 286v333h106v-333q0 -145 54.5 -210t174.5 -65h587q73 0 105.5 39.5t32.5 129.5zM529 -596q-33 0 -52.5 20.5t-19.5 53.5
t19.5 52t52.5 19t53 -19t20 -52t-20 -53.5t-53 -20.5zM799 -596q-33 0 -52.5 20.5t-19.5 53.5t19.5 52t52.5 19t53 -19t20 -52t-20 -53.5t-53 -20.5z" />
    <glyph glyph-name="uni064B" unicode="&#x64b;" 
d="M261 1282l-227 -135v51l227 135v-51zM261 1147l-227 -135v51l227 135v-51z" />
    <glyph glyph-name="uni064C" unicode="&#x64c;" 
d="M365 1207q0 -36 -21.5 -60.5t-67.5 -50.5v-2l-76 -46q-59 -35 -92 24l-23 36q-7 14 -17 14t-34 -13v43q56 31 80 -10l24 -39q10 -16 16 -19.5t22 3.5l58 34q-46 36 -46 86q0 40 24 63.5t64 23.5t64.5 -23.5t24.5 -63.5zM276 1147q24 17 33.5 28t9.5 30q0 20 -11.5 32
t-31.5 12q-19 0 -30.5 -12t-11.5 -32q0 -35 42 -58z" />
    <glyph glyph-name="uni064D" unicode="&#x64d;" 
d="M261 -171l-227 -134v52l227 135v-53zM261 -305l-227 -135v53l227 134v-52z" />
    <glyph glyph-name="uni064E" unicode="&#x64e;" 
d="M261 1147l-227 -135v51l227 135v-51z" />
    <glyph glyph-name="uni064F" unicode="&#x64f;" 
d="M218 1294q40 0 64.5 -23.5t24.5 -63.5q0 -36 -21 -60.5t-68 -52.5l-184 -109v54l142 82q-46 36 -46 86q0 40 24 63.5t64 23.5zM218 1147q24 17 33.5 28t9.5 30q0 20 -11.5 32t-31.5 12q-19 0 -30.5 -12t-11.5 -32q0 -35 42 -58z" />
    <glyph glyph-name="uni0650" unicode="&#x650;" 
d="M261 -299l-227 -134v52l227 135v-53z" />
    <glyph glyph-name="uni0651" unicode="&#x651;" 
d="M259 1220v62l41 25v-61q0 -103 -63 -140q-40 -23 -63 -12q-14 -33 -48 -55q-42 -24 -67 -10.5t-25 58.5v62l43 25v-61q0 -49 37 -28q33 19 33 69v61l41 26v-2l1 2v-62v-15q5 -30 38 -12q32 19 32 68z" />
    <glyph glyph-name="uni0652" unicode="&#x652;" 
d="M123 1256v-2q46 -26 67.5 -49.5t21.5 -59.5q0 -40 -24.5 -63.5t-64.5 -23.5t-64.5 23.5t-24.5 63.5q0 50 46 86l-27 15l19 41zM123 1103q20 0 31.5 12t11.5 32q0 18 -10 30t-33 28q-43 -27 -43 -58q0 -20 11.5 -32t31.5 -12z" />
    <glyph glyph-name="uni0653" unicode="&#x653;" 
d="M56 1128v96q77 53 132.5 61.5t132.5 -25.5q48 -22 83.5 -30.5t78.5 -4t89 27.5v-98q-46 -24 -89.5 -28.5t-78 4.5t-83.5 30q-77 34 -132.5 26t-132.5 -59z" />
    <glyph glyph-name="uni0654" unicode="&#x654;" 
d="M340 1056h-302v64h117q-67 128 -29.5 199.5t171.5 71.5h67v-60h-67q-103 0 -120 -48.5t45 -162.5h118v-64z" />
    <glyph glyph-name="uni0655" unicode="&#x655;" 
d="M340 -432h-302v63h117q-67 128 -29.5 200t171.5 72h67v-60h-67q-103 0 -120 -49t45 -163h118v-63z" />
    <glyph glyph-name="uni0656" unicode="&#x656;" 
d="M447 -1324l-95 -11l-31 401l126 16v-406z" />
    <glyph glyph-name="uni0660" unicode="&#x660;" horiz-adv-x="1198" 
d="M601 -17q-470 0 -470 647q0 332 121.5 495.5t348.5 163.5t347 -164t120 -495q0 -647 -467 -647zM601 82q173 0 262 131t89 417q0 284 -91 421t-260 137q-354 0 -354 -558q0 -284 90.5 -416t263.5 -132z" />
    <glyph glyph-name="uni0661" unicode="&#x661;" horiz-adv-x="622" 
d="M148 1103l217 163h74v-1266h-113v1113l-119 -80z" />
    <glyph glyph-name="uni0662" unicode="&#x662;" horiz-adv-x="1051" 
d="M918 0h-787v84q62 62 237 228t233 229q97 105 146.5 199t49.5 194q0 119 -74 185.5t-221 66.5t-294 -63l-31 94q163 72 330 72q194 0 300 -91.5t106 -252.5q0 -214 -212 -448q-59 -66 -211.5 -212t-190.5 -184h619v-101z" />
    <glyph glyph-name="uni0663" unicode="&#x663;" horiz-adv-x="993" 
d="M681 657q98 -20 154 -99.5t56 -200.5q0 -176 -120.5 -276t-328.5 -100q-222 0 -374 106l60 89q152 -89 317 -89q160 0 245 69.5t85 203.5q0 126 -81 187t-249 61h-189v97h189q150 0 227 61t77 173q0 115 -79.5 178.5t-222.5 63.5q-145 0 -276 -61l-50 85q141 80 340 80
q191 0 297.5 -87t106.5 -246q0 -109 -46.5 -186t-137.5 -109z" />
    <glyph glyph-name="uni0664" unicode="&#x664;" horiz-adv-x="1071" 
d="M797 0h-111v323h-526q-49 0 -74 22.5t-23.5 54.5t24.5 63l601 817h109v-857h145v-100h-145v-323zM686 1114l-505 -691h505v691z" />
    <glyph glyph-name="uni0665" unicode="&#x665;" horiz-adv-x="1053" 
d="M471 -19q-107 0 -183 23.5t-157 79.5l53 95q63 -47 130.5 -68.5t158.5 -21.5q155 0 242 70.5t87 222.5q0 143 -75.5 204t-217.5 61h-309v351q0 140 61 201t200 61h394v-103h-456q-55 0 -71.5 -17t-16.5 -72v-317h218q180 0 284.5 -90.5t104.5 -274.5q0 -197 -119.5 -301
t-327.5 -104z" />
    <glyph glyph-name="uni0666" unicode="&#x666;" horiz-adv-x="1109" 
d="M551 -19q-229 0 -324.5 146t-95.5 472q0 361 115 522t384 161q156 0 312 -69l-44 -97q-107 60 -270 60q-201 0 -288 -117.5t-89 -386.5q61 40 162 66.5t198 26.5q180 0 273.5 -96t93.5 -280q0 -199 -110 -303.5t-317 -104.5zM558 85q148 0 225 75.5t77 223.5
q0 276 -268 276q-92 0 -186 -29t-159 -75q2 -252 70.5 -361.5t240.5 -109.5z" />
    <glyph glyph-name="uni0667" unicode="&#x667;" horiz-adv-x="860" 
d="M333 0h-115l465 1174h-620v99h657q50 0 68.5 -25.5t-1.5 -81.5z" />
    <glyph glyph-name="uni0668" unicode="&#x668;" horiz-adv-x="1119" 
d="M560 -19q-213 0 -321 89.5t-108 262.5q0 125 62.5 204t166.5 103q-96 27 -149.5 103t-53.5 187q0 170 102 261t301 91t301.5 -91t102.5 -261q0 -111 -53.5 -187t-151.5 -103q104 -24 166.5 -103t62.5 -204q0 -173 -107.5 -262.5t-320.5 -89.5zM560 686q287 0 287 239
q0 134 -70.5 196t-216.5 62q-147 0 -218 -62t-71 -196q0 -239 289 -239zM560 80q161 0 235.5 64.5t74.5 196.5q0 131 -82.5 191t-227.5 60q-144 0 -228.5 -60.5t-84.5 -190.5q0 -132 76 -196.5t237 -64.5z" />
    <glyph glyph-name="uni0669" unicode="&#x669;" horiz-adv-x="1109" 
d="M474 -7q-155 0 -312 68l48 96q111 -58 266 -58q201 0 288.5 116t92.5 387q-62 -40 -164 -66t-200 -26q-180 0 -274 96.5t-94 279.5q0 198 109.5 302t316.5 104q231 0 327.5 -145t96.5 -471q0 -359 -116 -521t-385 -162zM514 614q90 0 183.5 29t159.5 77q-2 250 -71.5 358
t-239.5 108q-147 0 -224.5 -74t-77.5 -221q0 -136 69 -206.5t201 -70.5z" />
    <glyph glyph-name="uni066A" unicode="&#x66a;" horiz-adv-x="1674" 
d="M579 -32h-106l621 1339h104zM389 560q-148 0 -238.5 93t-90.5 274q0 162 85.5 262.5t243.5 100.5q163 0 247 -100t84 -263q0 -182 -91 -274.5t-240 -92.5zM391 647q107 0 169.5 70t62.5 208q0 132 -60.5 204t-171.5 72t-172.5 -72t-61.5 -204q0 -137 63.5 -207.5
t170.5 -70.5zM1285 -26q-147 0 -237.5 93.5t-90.5 275.5q0 162 85.5 263.5t242.5 101.5q163 0 248 -100.5t85 -264.5q0 -183 -91.5 -276t-241.5 -93zM1289 65q106 0 169 69t63 206q0 134 -60.5 206t-171.5 72t-172.5 -72t-61.5 -206q0 -139 62.5 -207t171.5 -68z" />
    <glyph glyph-name="uni066C" unicode="&#x66c;" horiz-adv-x="474" 
d="M399 1188h-216v172q0 259 182 352l26 -55q-126 -68 -126 -246h134v-223z" />
    <glyph glyph-name="uni066E" unicode="&#x66e;" horiz-adv-x="1518" 
d="M1324 297v478h106v-478q0 -160 -56 -228.5t-188 -68.5h-862q-132 0 -188 68.5t-56 228.5v323h106v-323q0 -110 30 -151.5t108 -41.5h862q78 0 108 41.5t30 151.5z" />
    <glyph glyph-name="uni0670" unicode="&#x670;" 
d="M58 2031v476h79v-476h-79z" />
    <glyph glyph-name="uni0671" unicode="&#x671;" horiz-adv-x="469" 
d="M287 0h-104v1278h104v-1278z" />
    <glyph glyph-name="uni067E" unicode="&#x67e;" horiz-adv-x="1518" 
d="M1324 297v478h106v-478q0 -160 -56 -228.5t-188 -68.5h-862q-132 0 -188 68.5t-56 228.5v323h106v-323q0 -110 30 -151.5t108 -41.5h862q78 0 108 41.5t30 151.5zM621 -195q33 0 53.5 -20t20.5 -53t-20.5 -52.5t-53.5 -19.5t-53 19.5t-20 52.5t20 53t53 20zM891 -195
q33 0 53 -20t20 -53t-20 -52.5t-53 -19.5t-53.5 19.5t-20.5 52.5t20.5 53t53.5 20zM756 -449q33 0 53 -20t20 -53t-20 -52.5t-53 -19.5t-53 19.5t-20 52.5t20 53t53 20z" />
    <glyph glyph-name="uni0686" unicode="&#x686;" horiz-adv-x="1080" 
d="M177 -164q0 -164 173 -164h169v-104h-162q-137 0 -211 70.5t-74 199.5q0 128 74 197t211 69h513v217q0 190 -72 274t-238 84h-243v96h243q212 0 313.5 -111t101.5 -343v-321h-625q-173 0 -173 -164zM707 -195q33 0 53 -20t20 -53t-20 -52.5t-53 -19.5t-53.5 19.5
t-20.5 52.5t20.5 53t53.5 20zM976 -195q33 0 53.5 -20t20.5 -53t-20.5 -52.5t-53.5 -19.5t-53 19.5t-20 52.5t20 53t53 20zM841 -449q33 0 53.5 -20t20.5 -53t-20.5 -52.5t-53.5 -19.5t-53 19.5t-20 52.5t20 53t53 20z" />
    <glyph glyph-name="uni0698" unicode="&#x698;" horiz-adv-x="416" 
d="M276 1299q-33 0 -53 20t-20 53t20 53.5t53 20.5t52.5 -20.5t19.5 -53.5t-19.5 -53t-52.5 -20zM142 1044q-33 0 -53.5 20.5t-20.5 53.5t20.5 53t53.5 20t52 -20t19 -53t-19 -53.5t-52 -20.5zM411 1044q-33 0 -53 20.5t-20 53.5t20 53t53 20t52.5 -20t19.5 -53t-19.5 -53.5
t-52.5 -20.5zM-68 -428v102q154 0 223 85.5t69 271.5v744h105v-744q0 -228 -97 -340t-300 -119z" />
    <glyph glyph-name="uni06A1" unicode="&#x6a1;" horiz-adv-x="1757" 
d="M1336 777h308v-777h-1320q-132 0 -188 68.5t-56 228.5v323h106v-323q0 -110 30 -151.5t108 -41.5h744q-85 92 -85 289q0 196 86 290t267 94zM1089 393q0 -154 57.5 -220.5t189.5 -68.5h203v567h-203q-132 0 -189.5 -64t-57.5 -214z" />
    <glyph glyph-name="uni06A9" unicode="&#x6a9;" horiz-adv-x="1561" 
d="M785 695h331q173 0 256.5 -85t83.5 -262t-83.5 -262.5t-256.5 -85.5h-792q-132 0 -188 68.5t-56 228.5v323h106v-323q0 -110 30 -151.5t108 -41.5h792q124 0 179 57.5t55 186.5t-55 186t-179 57h-481v93l526 605l76 -70z" />
    <glyph glyph-name="uni06AF" unicode="&#x6af;" horiz-adv-x="1561" 
d="M785 695h331q173 0 256.5 -85t83.5 -262t-83.5 -262.5t-256.5 -85.5h-792q-132 0 -188 68.5t-56 228.5v323h106v-323q0 -110 30 -151.5t108 -41.5h792q124 0 179 57.5t55 186.5t-55 186t-179 57h-481v93l526 605l76 -70zM930 1289l56 -50l-334 -381l-56 48z" />
    <glyph glyph-name="uni06BA" unicode="&#x6ba;" horiz-adv-x="1186" 
d="M1072 725v-730q0 -239 -122 -354t-377 -115q-252 0 -372.5 115t-120.5 354v449h104v-449q0 -195 91 -280t298 -85q209 0 302 85t93 280v730h104z" />
    <glyph glyph-name="uni06BE" unicode="&#x6be;" horiz-adv-x="1087" 
d="M174 799h275q248 0 377.5 -127t129.5 -370v-302h-973v104h205q-40 58 -40 167q0 143 65.5 211.5t202.5 68.5t202.5 -68.5t65.5 -211.5v-167h166v198q0 203 -97.5 300.5t-301.5 97.5h-277v99zM416 104h164v167q0 96 -38 138.5t-126 42.5q-86 0 -124 -42t-38 -139
q0 -94 37 -130.5t125 -36.5z" />
    <glyph glyph-name="uni06C1" unicode="&#x6c1;" horiz-adv-x="921" 
d="M463 -14q-187 0 -276.5 101t-89.5 311t89.5 310.5t276.5 100.5q184 0 272.5 -100.5t88.5 -310.5t-88.5 -311t-272.5 -101zM463 84q137 0 196.5 72.5t59.5 241.5q0 168 -60 241t-196 73q-138 0 -199 -73t-61 -241q0 -169 61 -241.5t199 -72.5z" />
    <glyph glyph-name="uni06C3" unicode="&#x6c3;" horiz-adv-x="921" 
d="M300 1142q-33 0 -53 20t-20 53t20 53.5t53 20.5t53.5 -20.5t20.5 -53.5t-20.5 -53t-53.5 -20zM570 1142q-33 0 -53 20t-20 53t20 53.5t53 20.5t53 -20.5t20 -53.5t-20 -53t-53 -20zM463 -14q-187 0 -276.5 101t-89.5 311t89.5 310.5t276.5 100.5q184 0 272.5 -100.5
t88.5 -310.5t-88.5 -311t-272.5 -101zM463 84q137 0 196.5 72.5t59.5 241.5q0 168 -60 241t-196 73q-138 0 -199 -73t-61 -241q0 -169 61 -241.5t199 -72.5z" />
    <glyph glyph-name="uni06CC" unicode="&#x6cc;" horiz-adv-x="1315" 
d="M1140 5q0 59 -10.5 96.5t-46 66t-66 43.5t-107.5 45q-12 5 -19.5 8t-19 7.5t-21.5 8.5q-124 51 -176.5 110.5t-52.5 165.5q0 129 75 191t231 62q140 0 278 -48l-21 -101q-139 47 -262 47q-103 0 -149 -35.5t-46 -113.5q0 -68 37.5 -107.5t128.5 -75.5q51 -21 77 -32
t65.5 -28.5t58.5 -29.5t46.5 -31t40.5 -35.5t28.5 -39.5t22 -48.5t11.5 -57t5 -68.5q0 -139 -60.5 -206t-185.5 -67h-587q-170 0 -252.5 93t-82.5 286v333h106v-333q0 -145 54.5 -210t174.5 -65h587q73 0 105.5 39.5t32.5 129.5z" />
    <glyph glyph-name="uni06D4" unicode="&#x6d4;" horiz-adv-x="428" 
d="M215 -14q-37 0 -58.5 22t-21.5 59t21.5 57.5t58.5 20.5t58 -20.5t21 -57.5t-21 -59t-58 -22z" />
    <glyph glyph-name="uni200C" unicode="&#x200c;" horiz-adv-x="59" 
d="M60 0h-60v2171h60v-2171z" />
    <glyph glyph-name="uni200D" unicode="&#x200d;" horiz-adv-x="85" 
d="M225 1993l-41 -37l-112 111v-2067h-60v2067l-113 -111l-41 37l145 145l-145 142l41 41l144 -145l141 145l41 -41l-141 -142z" />
    <glyph glyph-name="uni200E" unicode="&#x200e;" horiz-adv-x="88" 
d="M404 2138l-182 -182l-41 41l114 114h-235v-2111h-60v2171h290l-109 109l41 41z" />
    <glyph glyph-name="uni200F" unicode="&#x200f;" horiz-adv-x="88" 
d="M85 0h-59v2111h-234l114 -114l-41 -41l-182 182l182 183l41 -41l-109 -109h288v-2171z" />
    <glyph glyph-name="uni2010" unicode="&#x2010;" horiz-adv-x="783" 
d="M688 0h-563v102h563v-102z" />
    <glyph glyph-name="endash" unicode="&#x2013;" horiz-adv-x="1035" 
d="M99 538h780v-106h-780v106z" />
    <glyph glyph-name="emdash" unicode="&#x2014;" horiz-adv-x="1989" 
d="M38 433v103h1913v-103h-1913z" />
    <glyph glyph-name="quoteleft" unicode="&#x2018;" horiz-adv-x="428" 
d="M305 1289l35 -53q-84 -51 -84 -99q0 -16 19 -38t19 -51q0 -37 -22 -58t-59 -21q-78 0 -78 98q0 139 170 222z" />
    <glyph glyph-name="quoteright" unicode="&#x2019;" horiz-adv-x="428" 
d="M123 968l-34 53q83 50 83 99q0 16 -18.5 37.5t-18.5 50.5q0 37 21.5 58t58.5 21q79 0 79 -97q0 -139 -171 -222z" />
    <glyph glyph-name="quotedblleft" unicode="&#x201c;" horiz-adv-x="762" 
d="M305 1289l35 -55q-84 -51 -84 -99q0 -16 19 -38t19 -51q0 -36 -22 -57t-59 -21q-78 0 -78 97q0 137 170 224zM640 1289l34 -55q-83 -50 -83 -99q0 -16 18.5 -38t18.5 -51q0 -37 -21.5 -57.5t-58.5 -20.5q-79 0 -79 97q0 136 171 224z" />
    <glyph glyph-name="quotedblright" unicode="&#x201d;" horiz-adv-x="762" 
d="M123 968l-34 54q83 47 83 99q0 15 -18.5 37.5t-18.5 51.5q0 36 21.5 57.5t58.5 21.5q40 0 59.5 -26.5t19.5 -71.5q0 -80 -48 -132t-123 -91zM457 968l-34 54q84 48 84 99q0 15 -19 37.5t-19 51.5q0 36 22 57.5t59 21.5q78 0 78 -98q0 -80 -48 -132t-123 -91z" />
    <glyph glyph-name="bullet" unicode="&#x2022;" horiz-adv-x="588" 
d="M304 353q-49 0 -77.5 28.5t-28.5 77.5q0 48 28.5 75t77.5 27t75.5 -26.5t26.5 -75.5t-27 -77.5t-75 -28.5z" />
    <glyph glyph-name="ellipsis" unicode="&#x2026;" horiz-adv-x="1210" 
d="M215 -14q-37 0 -58.5 22t-21.5 59t21.5 57.5t58.5 20.5t58 -20.5t21 -57.5t-21 -59t-58 -22zM606 -14q-37 0 -58.5 22t-21.5 59t21.5 57.5t58.5 20.5t57.5 -20.5t20.5 -57.5t-21 -59t-57 -22zM997 -14q-37 0 -59 22t-22 59q0 36 22 57t59 21t57.5 -20.5t20.5 -57.5
t-21 -59t-57 -22z" />
    <glyph glyph-name="Euro" unicode="&#x20ac;" horiz-adv-x="1018" 
d="M544 92q117 0 188 38.5t128 135.5l91 -46q-65 -124 -160.5 -179t-246.5 -55q-222 0 -330.5 117.5t-128.5 384.5h-73v85h68v64v59h-68v86h73q20 269 128.5 387t330.5 118q151 0 246.5 -55t160.5 -179l-94 -46q-56 97 -126.5 135.5t-186.5 38.5q-174 0 -253.5 -89.5
t-94.5 -309.5h555v-86h-560v-59v-64h560v-85h-555q16 -219 95.5 -307.5t252.5 -88.5z" />
    <glyph glyph-name="uni25CC" unicode="&#x25cc;" horiz-adv-x="1756" 
d="M807 1567q15 3 33 3h58q12 0 27 -3h27q18 0 28 -2l-9 -73q-53 5 -101 5h-27q-11 0 -31 -4q-36 0 -58 -8l-15 75q5 1 16.5 1.5t17.5 1.5zM1208 1497q4 -2 25.5 -13t29 -15.5t22 -14.5t24.5 -20l-41 -55q-43 29 -92 51q-20 12 -101 39l21 69q57 -17 112 -41zM517 1485
q5 3 25.5 12.5t29.5 14.5l54 21l26 -69q-112 -37 -195 -99l-46 63q4 2 55 29q7 5 51 28zM1485 1280q27 -31 68 -97l-63 -40q-26 51 -60 91q-40 47 -75 80l50 51l41 -44q17 -14 39 -41zM324 1355l51 -58q-22 -17 -76 -77q-25 -35 -31 -44q-3 -5 -9.5 -15t-12 -18t-10.5 -15
l-60 36q68 111 148 191zM1645 964q14 -67 14 -117l-65 -9q-6 62 -20 107q-16 56 -35 106l69 24q28 -58 37 -111zM126 1056l69 -23q-15 -35 -29 -105q-9 -47 -14 -105h-73q8 120 47 233zM1615 495l-65 24q23 84 27 104q14 67 17 106h70q-5 -127 -49 -234zM99 587
q-15 57 -15 118l68 8q7 -102 55 -213l-72 -26q-20 46 -36 113zM1500 290q-35 -43 -82 -90l-49 54q37 29 75 79q32 38 60 90l64 -36q-33 -54 -68 -97zM258 270q-24 30 -36 47l-34 52l65 35q44 -68 59 -87l36 -41l41 -39l-49 -51q-54 46 -82 84zM1227 63q-21 -11 -56 -24
l-53 -20l-27 68q69 25 104 44q20 10 53.5 29.5t38.5 22.5l44 -60q-6 -3 -23.5 -14.5t-27.5 -16.5t-27.5 -15t-25.5 -14zM536 55q-9 5 -26 13.5t-27.5 14t-24.5 14t-25 17.5l38 58l48 -27q12 -8 48 -27q34 -18 100 -33l-15 -71q-53 15 -116 41zM940 -17q-10 -2 -32 -2h-31
q-61 0 -114 9l12 70q52 -9 95 -9q49 0 116 12l18 -73q-31 -7 -64 -7z" />
    <glyph glyph-name="uniF8FF" unicode="&#xf8ff;" horiz-adv-x="6222" 
d="M2917 891v-891h245v730q75 23 137 23q88 0 121 -35t33 -129v-589h245v606q0 85 -10 121q73 26 130 26q169 0 169 -164v-589h242v608q0 90 -17 148t-56 101q-97 107 -289 107q-168 0 -300 -59q-99 59 -237 59q-201 0 -388 -65zM4816 -19h21.5t54 5t78.5 15t85.5 34
t84.5 57l-121 154q-52 -30 -90.5 -41.5t-88.5 -11.5q-121 0 -186.5 72t-65.5 203q0 136 66.5 208.5t190.5 72.5q50 0 89 -10q48 -16 94 -50l101 175q-13 11 -28 21.5t-27.5 17.5t-28 14t-24 10t-21.5 7.5t-15 5.5q-27 8 -66 13.5t-64 6.5l-25 1q-220 0 -354 -139t-134 -366
q0 -217 129 -346t345 -129zM705 0h331v505q0 220 -111 336t-321 116q-127 0 -227.5 -41.5t-160.5 -111t-91 -154t-31 -177.5q0 -129 41.5 -226.5t118.5 -150.5q87 -58 180.5 -77t270.5 -19zM2446 0h332v505q0 220 -112 336t-323 116q-126 0 -226 -41.5t-160 -111t-91 -154
t-31 -177.5q0 -130 41 -227.5t119 -149.5q87 -58 180.5 -77t270.5 -19zM1169 476v-476h251v480q0 122 63.5 193t171.5 71q74 0 139 -19l59 217q-43 6 -87 9.5t-66 4.5h-22q-259 0 -384 -117.5t-125 -362.5zM5644 -19q132 0 243.5 65t176.5 176.5t65 243.5t-65 244
t-176.5 177t-243.5 65q-130 0 -241.5 -65t-176.5 -177t-65 -244t65 -243.5t176.5 -176.5t241.5 -65zM785 203h-147q-155 0 -228.5 67.5t-73.5 210.5q0 121 65 194.5t172 73.5q110 0 161 -66t51 -207v-273zM2538 203h-154q-155 0 -226.5 67t-71.5 211q0 122 63.5 195
t173.5 73q215 0 215 -273v-273zM5644 201q-109 0 -185 78.5t-76 186.5q0 109 75.5 185t185.5 76q109 0 185 -76t76 -185q0 -108 -76.5 -186.5t-184.5 -78.5z" />
    <glyph glyph-name="CR" horiz-adv-x="699" 
 />
    <glyph glyph-name="B.ss10" horiz-adv-x="1063" 
d="M777 659q211 -63 211 -319q0 -173 -103 -256.5t-315 -83.5h-430v1278h421q188 0 277.5 -78.5t89.5 -243.5q0 -233 -151 -297zM247 1176v-476h314q139 0 198.5 60t59.5 196q0 116 -60 168t-198 52h-314zM247 102h323q166 0 237.5 56t71.5 182q0 139 -71.5 200t-237.5 61
h-323v-499z" />
    <glyph glyph-name="D.ss10" horiz-adv-x="1160" 
d="M550 0h-410v1278h410q117 0 211.5 -36.5t167 -111.5t112 -200t39.5 -292q0 -166 -40 -290.5t-112.5 -199.5t-167 -111.5t-210.5 -36.5zM247 101h303q91 0 165 28.5t133 89.5t92 167.5t33 251.5q0 116 -21.5 208t-59.5 153t-92 101.5t-116 58t-134 17.5h-303v-1075z" />
    <glyph glyph-name="E.ss10" horiz-adv-x="930" 
d="M247 1176v-480h523v-100h-523v-494h586v-102h-693v1278h693v-102h-586z" />
    <glyph glyph-name="F.ss10" horiz-adv-x="930" 
d="M247 1176v-480h523v-100h-523v-596h-107v1278h693v-102h-586z" />
    <glyph glyph-name="P.ss10" horiz-adv-x="1039" 
d="M517 1278q248 0 353.5 -88.5t105.5 -296.5q0 -207 -105.5 -295.5t-353.5 -88.5h-270v-509h-107v1278h377zM247 611h270q200 0 274 58.5t74 219.5q0 165 -74.5 226t-273.5 61h-270v-565z" />
    <glyph glyph-name="R.ss10" horiz-adv-x="1109" 
d="M725 529l313 -529h-122l-303 512q-43 -3 -96 -3h-270v-509h-107v1278h377q248 0 353.5 -88.5t105.5 -296.5q0 -157 -59.5 -244.5t-191.5 -119.5zM247 611h270q200 0 274 58.5t74 219.5q0 165 -74.5 226t-273.5 61h-270v-565z" />
    <glyph glyph-name="B.ss11" horiz-adv-x="1063" 
d="M777 659q211 -63 211 -319q0 -173 -103 -256.5t-315 -83.5h-430v1278h421q188 0 277.5 -78.5t89.5 -243.5q0 -233 -151 -297zM247 1176v-476h314q139 0 198.5 60t59.5 196q0 116 -60 168t-198 52h-314zM247 102h323q166 0 237.5 56t71.5 182q0 139 -71.5 200t-237.5 61
h-323v-499z" />
    <glyph glyph-name="D.ss11" horiz-adv-x="1160" 
d="M550 0h-410v1278h410q117 0 211.5 -36.5t167 -111.5t112 -200t39.5 -292q0 -166 -40 -290.5t-112.5 -199.5t-167 -111.5t-210.5 -36.5zM247 101h303q91 0 165 28.5t133 89.5t92 167.5t33 251.5q0 116 -21.5 208t-59.5 153t-92 101.5t-116 58t-134 17.5h-303v-1075z" />
    <glyph glyph-name="E.ss11" horiz-adv-x="930" 
d="M247 1176v-480h523v-100h-523v-494h586v-102h-693v1278h693v-102h-586z" />
    <glyph glyph-name="F.ss11" horiz-adv-x="930" 
d="M247 1176v-480h523v-100h-523v-596h-107v1278h693v-102h-586z" />
    <glyph glyph-name="P.ss11" horiz-adv-x="1039" 
d="M517 1278q248 0 353.5 -88.5t105.5 -296.5q0 -207 -105.5 -295.5t-353.5 -88.5h-270v-509h-107v1278h377zM247 611h270q200 0 274 58.5t74 219.5q0 165 -74.5 226t-273.5 61h-270v-565z" />
    <glyph glyph-name="R.ss11" horiz-adv-x="1109" 
d="M725 529l313 -529h-122l-303 512q-43 -3 -96 -3h-270v-509h-107v1278h377q248 0 353.5 -88.5t105.5 -296.5q0 -157 -59.5 -244.5t-191.5 -119.5zM247 611h270q200 0 274 58.5t74 219.5q0 165 -74.5 226t-273.5 61h-270v-565z" />
    <glyph glyph-name="a.ss09" horiz-adv-x="822" 
d="M404 928q170 0 245.5 -67t75.5 -219v-642h-88l-16 92q-91 -106 -266 -106q-151 0 -223 65.5t-72 202.5q0 140 72 206.5t223 66.5h266v115q0 107 -47 148t-171 41q-88 0 -146.5 -25.5t-99.5 -81.5l-70 63q54 75 125.5 108t191.5 33zM355 82q48 0 92 13.5t85 42.5t65 84
t24 130v80h-266q-103 0 -146 -39.5t-43 -134.5q0 -96 43 -136t146 -40z" />
    <glyph glyph-name="d.ss09" horiz-adv-x="925" 
d="M689 838v440h105v-1278h-89l-16 94v8q-94 -116 -274 -116q-173 0 -258 115.5t-85 355.5t79.5 355t247.5 115q141 0 290 -89zM689 375v359q-154 95 -285 95q-120 0 -173.5 -87t-53.5 -285t58.5 -286.5t184.5 -88.5q124 0 196.5 74.5t72.5 218.5z" />
    <glyph glyph-name="h.ss09" horiz-adv-x="933" 
d="M565 930q138 0 204.5 -81t66.5 -250v-599h-104v604q0 126 -40.5 177.5t-138.5 51.5q-163 0 -317 -113v-720h-105v1278h105v-457q161 109 329 109z" />
    <glyph glyph-name="i.ss09" horiz-adv-x="358" 
d="M179 1142q-33 0 -53 20t-20 53t20 53.5t53 20.5t53.5 -20.5t20.5 -53.5t-20.5 -53t-53.5 -20zM232 0h-104v915h104v-915z" />
    <glyph glyph-name="m.ss09" horiz-adv-x="1460" 
d="M1092 930q138 0 205 -81t67 -250v-599h-104v604q0 127 -41 179t-139 52q-154 0 -290 -118q10 -51 10 -118v-599h-100v604q0 126 -42.5 178.5t-140.5 52.5q-154 0 -290 -105v-730h-104v915h92l9 -91q146 106 303 106q177 0 238 -130q148 130 327 130z" />
    <glyph glyph-name="n.ss09" horiz-adv-x="925" 
d="M556 930q138 0 205 -81t67 -250v-599h-104v604q0 126 -40.5 177.5t-139.5 51.5q-163 0 -317 -113v-720h-104v915h92l9 -98q165 113 332 113z" />
    <glyph glyph-name="t.ss09" horiz-adv-x="501" 
d="M218 915h181v-94h-181v-821h-104v1166h104v-251z" />
    <glyph glyph-name="u.ss09" horiz-adv-x="913" 
d="M703 915h106v-915h-89l-17 94v3q-171 -111 -329 -111q-138 0 -205 81t-67 250v598h105v-603q0 -126 40 -177t139 -51q159 0 317 112v719z" />
    <glyph glyph-name="a.ss11" horiz-adv-x="822" 
d="M404 928q170 0 245.5 -67t75.5 -219v-642h-88l-16 92q-91 -106 -266 -106q-151 0 -223 65.5t-72 202.5q0 140 72 206.5t223 66.5h266v115q0 107 -47 148t-171 41q-88 0 -146.5 -25.5t-99.5 -81.5l-70 63q54 75 125.5 108t191.5 33zM355 82q48 0 92 13.5t85 42.5t65 84
t24 130v80h-266q-103 0 -146 -39.5t-43 -134.5q0 -96 43 -136t146 -40z" />
    <glyph glyph-name="d.ss11" horiz-adv-x="925" 
d="M689 838v440h105v-1278h-89l-16 94v8q-94 -116 -274 -116q-173 0 -258 115.5t-85 355.5t79.5 355t247.5 115q141 0 290 -89zM689 375v359q-154 95 -285 95q-120 0 -173.5 -87t-53.5 -285t58.5 -286.5t184.5 -88.5q124 0 196.5 74.5t72.5 218.5z" />
    <glyph glyph-name="h.ss11" horiz-adv-x="933" 
d="M565 930q138 0 204.5 -81t66.5 -250v-599h-104v604q0 126 -40.5 177.5t-138.5 51.5q-163 0 -317 -113v-720h-105v1278h105v-457q161 109 329 109z" />
    <glyph glyph-name="i.ss11" horiz-adv-x="358" 
d="M179 1142q-33 0 -53 20t-20 53t20 53.5t53 20.5t53.5 -20.5t20.5 -53.5t-20.5 -53t-53.5 -20zM232 0h-104v915h104v-915z" />
    <glyph glyph-name="m.ss11" horiz-adv-x="1460" 
d="M1092 930q138 0 205 -81t67 -250v-599h-104v604q0 127 -41 179t-139 52q-154 0 -290 -118q10 -51 10 -118v-599h-100v604q0 126 -42.5 178.5t-140.5 52.5q-154 0 -290 -105v-730h-104v915h92l9 -91q146 106 303 106q177 0 238 -130q148 130 327 130z" />
    <glyph glyph-name="n.ss11" horiz-adv-x="925" 
d="M556 930q138 0 205 -81t67 -250v-599h-104v604q0 126 -40.5 177.5t-139.5 51.5q-163 0 -317 -113v-720h-104v915h92l9 -98q165 113 332 113z" />
    <glyph glyph-name="t.ss11" horiz-adv-x="501" 
d="M218 915h181v-94h-181v-821h-104v1166h104v-251z" />
    <glyph glyph-name="u.ss11" horiz-adv-x="913" 
d="M703 915h106v-915h-89l-17 94v3q-171 -111 -329 -111q-138 0 -205 81t-67 250v598h105v-603q0 -126 40 -177t139 -51q159 0 317 112v719z" />
    <glyph glyph-name="a.ss13" horiz-adv-x="856" 
d="M695 835l6 80h93v-915h-89l-16 94v8q-94 -116 -274 -116q-173 0 -258 115.5t-85 355.5t79.5 355t247.5 115q145 0 296 -92zM420 82q124 0 196.5 74.5t72.5 218.5v359q-154 95 -285 95q-120 0 -173.5 -87t-53.5 -285t58.5 -286.5t184.5 -88.5z" />
    <glyph glyph-name="a.ss14" horiz-adv-x="907" 
d="M795 338v-190q0 -42 12 -54t62 -10v-89q-37 -5 -53 -5q-55 0 -82 31t-31 98q-93 -133 -288 -133q-173 0 -258 115.5t-85 355.5t79.5 355t247.5 115q145 0 296 -92l6 80h93v-577h1zM420 82q124 0 196.5 74.5t72.5 218.5v359q-154 95 -285 95q-120 0 -173.5 -87t-53.5 -285
t58.5 -286.5t184.5 -88.5z" />
    <glyph glyph-name="i.ss15" horiz-adv-x="368" 
d="M205 1137h-51q-33 0 -33 32v87q0 33 33 33h51q32 0 32 -33v-87q0 -32 -32 -32zM232 148q0 -42 13 -54t64 -10v-89q-43 -5 -56 -5q-125 0 -125 160v765h104v-767z" />
    <glyph glyph-name="j.ss15" horiz-adv-x="390" 
d="M138 1169v87q0 33 33 33h49q33 0 33 -33v-87q0 -32 -33 -32h-49q-33 0 -33 32zM-82 -440v92q129 11 177 83.5t48 252.5v927h104v-927q0 -224 -74.5 -322.5t-254.5 -105.5z" />
    <glyph glyph-name="uni0627.Short" horiz-adv-x="469" 
d="M287 0h-104v915h104v-915z" />
    <glyph glyph-name="uniFE8E.Short" horiz-adv-x="614" 
d="M427 104h204v-104h-204q-132 0 -188 68.5t-56 228.5v618h105v-618q0 -110 30.5 -151.5t108.5 -41.5z" />
    <glyph glyph-name="uni066E.medi.LONG" horiz-adv-x="896" 
d="M869 104h44v-104h-48q-79 0 -131.5 18t-108.5 62q-56 -80 -198 -80h-444v104h444q78 0 108 41.5t30 151.5v478h106v-478q0 -77 -12 -128q48 -35 95.5 -50t114.5 -15z" />
    <glyph glyph-name="uni066E.medi.MED" horiz-adv-x="742" 
d="M715 104h44v-104h-47q-79 0 -132 18.5t-109 61.5q-56 -80 -198 -80h-290v104h290q78 0 108 41.5t30 151.5v478h106v-478q0 -77 -12 -128q48 -35 95.5 -50t114.5 -15z" />
    <glyph glyph-name="uni066E.medi.SML" horiz-adv-x="657" 
d="M630 104h44v-104h-48q-79 0 -131.5 18t-108.5 62q-56 -80 -198 -80h-205v104h205q78 0 108 41.5t30 151.5v478h106v-478q0 -77 -12 -128q48 -35 95.5 -50t114.5 -15z" />
    <glyph glyph-name="uni066E.medi.TALL" horiz-adv-x="742" 
d="M715 104h44v-104h-47q-79 0 -132 18.5t-109 61.5q-56 -80 -198 -80h-290v104h290q78 0 108 41.5t30 151.5v618h106v-618q0 -77 -12 -128q48 -35 95.5 -50t114.5 -15z" />
    <glyph glyph-name="uni066E.init.MED" horiz-adv-x="597" 
d="M273 0h-290v104h290q78 0 108 41.5t30 151.5v478h106v-478q0 -160 -56 -228.5t-188 -68.5z" />
    <glyph glyph-name="uni062D.SHORT" horiz-adv-x="1080" 
d="M317 775h243q212 0 313.5 -111t101.5 -343v-321h-625q-173 0 -173 -164t173 -164h169v-104h-162q-137 0 -211 70.5t-74 199.5q0 128 74 197t211 69h513v217q0 190 -72 274t-238 84h-243v96z" />
    <glyph glyph-name="uniFEA2.SHORT" horiz-adv-x="1114" 
d="M975 321v-217h157v-104h-782q-173 0 -173 -164t173 -164h169v-104h-162q-137 0 -211 70.5t-74 199.5q0 128 74 197t211 69h513v217q0 190 -72 274t-238 84h-243v96h243q212 0 313.5 -111t101.5 -343z" />
    <glyph glyph-name="uni0627FEE0FEEA.liga" horiz-adv-x="2471" 
d="M1341 1413l-5 -148l-30 -16l-16 135zM1884 297v981h106v-981q0 -160 -56 -228.5t-188 -68.5h-154q-85 0 -140.5 20t-115.5 69q-55 -89 -201 -89h-681q-178 0 -263 98t-85 303q0 207 85 306.5t263 99.5q177 0 261 -99.5t84 -306.5v-297h336q78 0 108 41.5t30 151.5v618
h106v-618q0 -57 -9 -118q52 -41 103.5 -58t125.5 -17h147q78 0 108 41.5t30 151.5zM2287 0v1278h104v-1278h-104zM1289 1002q-42 -24 -67.5 -11t-25.5 59v61l43 24v-62q0 -46 38 -25q32 19 32 68v62l43 25v-63v-15q5 -28 37 -11q33 19 33 69v61l41 26v-63q0 -101 -64 -139
q-40 -23 -63 -12q-14 -33 -47 -54zM454 104h239v297q0 164 -56 235.5t-183 71.5q-129 0 -186.5 -71.5t-57.5 -235.5q0 -157 56.5 -227t187.5 -70z" />
    <glyph glyph-name="uniFEFC.SHORT" horiz-adv-x="1174" 
d="M1145 104h46v-104h-49q-86 0 -141 20t-115 69q-55 -89 -203 -89h-620v104h405l-219 811h109l219 -811h106q78 0 108 41.5t30 151.5v981h106v-981q0 -58 -9 -116q52 -42 102.5 -59.5t124.5 -17.5z" />
    <glyph glyph-name="uniFEFB.SHORT" horiz-adv-x="1041" 
d="M821 297v981h106v-981q0 -160 -56 -228.5t-188 -68.5h-620v104h405l-219 811h109l219 -811h106q78 0 108 41.5t30 151.5z" />
    <glyph glyph-name="zero.ss03" horiz-adv-x="501" 
d="M249 389l-97 101l97 109l101 -106z" />
    <glyph glyph-name="one.ss03" horiz-adv-x="465" 
d="M288 0h-111v1280h111v-1280z" />
    <glyph glyph-name="two.ss03" horiz-adv-x="846" 
d="M792 1280v-106l-359 2q-131 0 -184 -63t-15 -181l304 -932h-116l-294 894q-59 177 26.5 281.5t282.5 104.5h355z" />
    <glyph glyph-name="three.ss03" horiz-adv-x="1087" 
d="M889 981v299h111v-305q0 -129 -50.5 -194.5t-145.5 -65.5h-14q-93 0 -193 79q-48 -79 -153 -79h-169v-715h-111v1280h111v-449h148q53 0 78.5 36.5t25.5 113.5v299h111v-305q0 -39 -5 -79q69 -65 137 -65h15q104 0 104 150z" />
    <glyph glyph-name="four.ss03" horiz-adv-x="870" 
d="M352 109h464v-109h-463q-131 0 -201 64.5t-70 182.5v89q0 195 154 294q-137 60 -137 218v92q0 165 122 255t347 90h190v-109h-200q-348 0 -348 -242v-77q0 -69 43 -105.5t126 -36.5h351v-116h-163q-374 0 -374 -270v-71q0 -72 41 -110.5t118 -38.5z" />
    <glyph glyph-name="five.ss03" horiz-adv-x="979" 
d="M68 319q0 91 69 266.5t191 399.5q73 138 164.5 138t161.5 -138q261 -505 257 -666q-2 -103 -61 -165t-162 -69q-198 -12 -396 0q-104 7 -164 69t-60 165zM179 326q0 -126 125 -137q187 -16 370 0q61 5 93.5 40t32.5 97q0 184 -247 637q-29 53 -63 53t-63 -52
q-116 -211 -182 -378.5t-66 -259.5z" />
    <glyph glyph-name="six.ss03" horiz-adv-x="977" 
d="M814 0h-111v1171h-607v107h646q72 0 72 -83v-1195z" />
    <glyph glyph-name="seven.ss03" horiz-adv-x="1070" 
d="M68 1280h120l348 -1125l351 1125h115l-384 -1220q-15 -48 -48.5 -66.5t-67 -0.5t-48.5 67z" />
    <glyph glyph-name="eight.ss03" horiz-adv-x="1070" 
d="M536 1125l-348 -1123h-120l386 1218q15 49 48.5 67.5t67 0t48.5 -67.5l384 -1218h-115z" />
    <glyph glyph-name="nine.ss03" horiz-adv-x="1025" 
d="M862 889v-889h-114v563q-159 -51 -289 -51q-192 0 -284.5 92t-92.5 283q0 206 95 304t294 98q200 0 295.5 -97.5t95.5 -302.5zM469 620q141 0 279 63v208q0 149 -67 220.5t-208 71.5t-210.5 -71.5t-69.5 -218.5q0 -139 67.5 -206t208.5 -67z" />
    <glyph glyph-name="zero.ss04" horiz-adv-x="942" 
d="M473 -17q-185 0 -285.5 117t-100.5 357q0 241 101 359t285 118q181 0 281.5 -118t100.5 -359q0 -239 -100 -356.5t-282 -117.5zM473 82q132 0 199 90t67 285q0 198 -67 289.5t-199 91.5q-134 0 -202 -90.5t-68 -290.5q0 -197 68 -286t202 -89z" />
    <glyph glyph-name="one.ss04" horiz-adv-x="529" 
d="M369 0h-111v787l-156 -92l-46 70l229 146h84v-911z" />
    <glyph glyph-name="two.ss04" horiz-adv-x="846" 
d="M758 0h-666v67q43 37 114 92t122 93.5t110 92t96 99t62 101.5t25 110q0 85 -57.5 132.5t-167.5 47.5q-125 0 -253 -57l-27 92q140 65 292 65q160 0 244.5 -70.5t84.5 -200.5q0 -44 -11.5 -87t-28 -79t-49.5 -78t-62 -73.5t-79.5 -76.5t-88.5 -77t-102 -84q-10 -8 -16 -13
h458v-96z" />
    <glyph glyph-name="three.ss04" horiz-adv-x="844" 
d="M393 -17q-191 0 -323 75l39 89q121 -63 287 -63q254 0 254 163q0 82 -61.5 122.5t-189.5 40.5h-186v95h174q117 0 178 47t61 129q0 154 -232 154q-147 0 -251 -43l-32 90q137 55 295 55q159 0 248.5 -64t89.5 -182q0 -84 -43.5 -146.5t-116.5 -78.5q87 -18 134.5 -76
t47.5 -151q0 -130 -97 -193t-276 -63z" />
    <glyph glyph-name="four.ss04" horiz-adv-x="885" 
d="M717 0h-111v201h-410q-95 0 -95 69q0 41 30 71l482 570h104v-614h104v-96h-104v-201zM606 759l-389 -462h389v462z" />
    <glyph glyph-name="five.ss04" horiz-adv-x="877" 
d="M425 -17q-171 0 -300 94l47 90q106 -78 251 -78q128 0 188 49.5t60 148.5q0 93 -51 133.5t-164 40.5h-280v307q0 67 37.5 105t102.5 38h418v-102h-386q-34 0 -47 -13.5t-13 -46.5v-189h175q168 0 246.5 -68.5t78.5 -203.5q0 -148 -92.5 -226.5t-270.5 -78.5z" />
    <glyph glyph-name="six.ss04" horiz-adv-x="887" 
d="M445 -17q-180 0 -268 107t-88 350q0 265 96.5 381t312.5 116q160 0 272 -55l-40 -95q-85 48 -235 48q-159 0 -224.5 -76.5t-67.5 -258.5q149 72 290 72q145 0 225.5 -75t80.5 -207q0 -145 -91 -226t-263 -81zM444 85q237 0 237 200q0 94 -51 139t-156 45q-126 0 -271 -68
q4 -175 60 -245.5t181 -70.5z" />
    <glyph glyph-name="seven.ss04" horiz-adv-x="768" 
d="M285 0h-116l413 812h-546v99h595q76 0 76 -54q0 -17 -12 -43z" />
    <glyph glyph-name="eight.ss04" horiz-adv-x="887" 
d="M452 -17q-179 0 -266 63.5t-87 195.5q0 197 167 222q-73 13 -110 70.5t-37 151.5q0 127 82 189t251 62t250 -62t81 -189q0 -194 -148 -222q171 -25 171 -222q0 -132 -87 -195.5t-267 -63.5zM452 514q115 0 166 39.5t51 127.5q0 84 -50 119t-167 35q-118 0 -167 -34.5
t-49 -119.5q0 -88 50 -127.5t166 -39.5zM452 82q126 0 181 40t55 131q0 87 -54.5 123.5t-181.5 36.5q-128 0 -181.5 -36.5t-53.5 -123.5q0 -91 54 -131t181 -40z" />
    <glyph glyph-name="nine.ss04" horiz-adv-x="887" 
d="M391 -10q-161 0 -273 54l39 96q88 -50 237 -50q156 0 222 75.5t68 247.5q-144 -68 -288 -68q-145 0 -226 75.5t-81 207.5q0 148 90 227.5t263 79.5q181 0 269 -107.5t88 -353.5q0 -256 -96.5 -370t-311.5 -114zM413 445q134 0 271 70q-4 177 -60 248.5t-182 71.5
q-122 0 -178.5 -48.5t-56.5 -151.5q0 -96 50.5 -143t155.5 -47z" />
    <glyph glyph-name="zero.ss12" horiz-adv-x="1198" 
d="M1065 1312l-113 -191q116 -169 116 -490q0 -646 -467 -646q-168 0 -273 82l-63 -106h-123l109 182q-120 161 -120 488q0 331 121.5 495t348.5 164q168 0 276 -89l65 111h123zM247 631q0 -241 69 -377l503 850q-86 86 -218 86q-354 0 -354 -559zM601 84q173 0 262 130.5
t89 416.5q0 241 -66 378l-504 -849q83 -76 219 -76z" />
    <glyph glyph-name="colon.ss06" horiz-adv-x="428" 
d="M215 952q-37 0 -58.5 22t-21.5 59t21.5 58.5t58.5 21.5t58 -21.5t21 -58.5t-21 -59t-58 -22zM215 167q-37 0 -58.5 22.5t-21.5 59.5t21.5 58t58.5 21t58 -21t21 -58t-21.5 -59.5t-57.5 -22.5z" />
    <glyph glyph-name="semicolon.ss06" horiz-adv-x="428" 
d="M215 952q-37 0 -58.5 22.5t-21.5 59.5t21.5 58t58.5 21t58 -21t21 -58t-21.5 -59.5t-57.5 -22.5zM123 9l-34 52q83 50 83 99q0 16 -18.5 38t-18.5 51q0 37 21.5 58t58.5 21q79 0 79 -98q0 -138 -171 -221z" />
    <glyph glyph-name="slash.ss06" horiz-adv-x="824" 
d="M771 1309l-619 -1340h-114l619 1340h114z" />
    <glyph glyph-name="backslash.ss06" horiz-adv-x="824" 
d="M787 -31h-115l-619 1340h114z" />
    <glyph glyph-name="colon.ss07" horiz-adv-x="428" 
d="M215 952q-37 0 -58.5 22t-21.5 59t21.5 58.5t58.5 21.5t58 -21.5t21 -58.5t-21 -59t-58 -22zM215 167q-37 0 -58.5 22.5t-21.5 59.5t21.5 58t58.5 21t58 -21t21 -58t-21.5 -59.5t-57.5 -22.5z" />
    <glyph glyph-name="semicolon.ss07" horiz-adv-x="428" 
d="M215 952q-37 0 -58.5 22.5t-21.5 59.5t21.5 58t58.5 21t58 -21t21 -58t-21.5 -59.5t-57.5 -22.5zM123 9l-34 52q83 50 83 99q0 16 -18.5 38t-18.5 51q0 37 21.5 58t58.5 21q79 0 79 -98q0 -138 -171 -221z" />
    <glyph glyph-name="period.ss15" horiz-adv-x="428" 
d="M157 31v87q0 32 32 32h50q32 0 32 -32v-87q0 -33 -32 -33h-50q-32 0 -32 33z" />
    <glyph glyph-name="comma.ss15" horiz-adv-x="406" 
d="M189 150h50q32 0 32 -32v-70q0 -89 -38.5 -138.5t-109.5 -83.5l-34 53q40 28 54 65.5t14 103.5v70q0 32 32 32z" />
    <glyph glyph-name="colon.ss15" horiz-adv-x="384" 
d="M135 809v85q0 18 7 25.5t25 7.5h50q18 0 25 -7.5t7 -25.5v-85q0 -32 -32 -32h-50q-32 0 -32 32zM135 31v87q0 32 32 32h50q32 0 32 -32v-87q0 -33 -32 -33h-50q-32 0 -32 33z" />
    <glyph glyph-name="semicolon.ss15" horiz-adv-x="406" 
d="M189 928h50q32 0 32 -32v-87q0 -32 -32 -32h-50q-32 0 -32 32v87q0 32 32 32zM189 150h50q32 0 32 -32v-70q0 -89 -38.5 -138.5t-109.5 -83.5l-34 53q40 28 54 65.5t14 103.5v70q0 32 32 32z" />
    <glyph glyph-name="exclam.ss15" horiz-adv-x="389" 
d="M246 305h-101l-7 973h115zM137 31v87q0 32 32 32h51q33 0 33 -32v-87q0 -33 -33 -33h-51q-32 0 -32 33z" />
    <glyph glyph-name="question.ss15" horiz-adv-x="762" 
d="M89 1128v101q128 65 266 65q157 0 242.5 -76t85.5 -214q0 -63 -17.5 -111.5t-45.5 -80t-62 -59t-68.5 -55t-62.5 -59.5t-45.5 -81.5t-17.5 -113.5v-133h-106v150q0 71 17.5 127t45 92t61 66t67.5 55.5t61.5 52t45 64.5t17.5 86q0 89 -61 138t-172 49q-122 0 -251 -63z
M253 31v87q0 32 32 32h50q32 0 32 -32v-87q0 -33 -32 -33h-50q-32 0 -32 33z" />
    <glyph glyph-name="parenleft.ss06" horiz-adv-x="539" 
d="M473 -198l-91 -55q-148 211 -219 429.5t-71 461.5t71 461.5t219 429.5l91 -56q-139 -204 -205.5 -408t-66.5 -427t66.5 -426.5t205.5 -409.5z" />
    <glyph glyph-name="parenright.ss06" horiz-adv-x="539" 
d="M157 -253l-90 55q139 206 205 409.5t66 426.5q0 224 -66.5 427.5t-204.5 407.5l90 56q148 -211 219 -429.5t71 -461.5t-71 -461.5t-219 -429.5z" />
    <glyph glyph-name="braceleft.ss06" horiz-adv-x="619" 
d="M92 594v90q78 20 107.5 86t29.5 223q0 116 3.5 192t14.5 145t29.5 108t50 68t75.5 40t107 10l59 -1v-99h-59q-124 0 -150 -80.5t-26 -358.5q0 -163 -27 -244t-98 -135q71 -53 98 -133.5t27 -243.5q0 -278 26 -359t150 -81h59v-99h-59q-63 -1 -107 9t-75.5 39.5t-50 68.5
t-29.5 107.5t-14.5 144.5t-3.5 192q0 157 -29.5 223t-107.5 88z" />
    <glyph glyph-name="braceright.ss06" horiz-adv-x="619" 
d="M527 684v-90q-78 -22 -107 -88t-29 -223q0 -116 -3.5 -192t-14.5 -144.5t-29.5 -107.5t-50 -68.5t-75.5 -39.5t-107 -9h-60v99h60q124 0 150 81t26 359q0 163 26.5 243.5t97.5 133.5q-71 54 -97.5 135t-26.5 244q0 278 -26 358.5t-150 80.5h-60v99l60 1q63 1 107 -10
t75.5 -40t50 -68t29.5 -108t14.5 -145t3.5 -192q0 -157 29 -223t107 -86z" />
    <glyph glyph-name="bracketleft.ss06" horiz-adv-x="474" 
d="M411 -278h-297v1833h297v-99h-193v-1637h193v-97z" />
    <glyph glyph-name="bracketright.ss06" horiz-adv-x="474" 
d="M360 1555v-1833h-297v97h193v1637h-193v99h297z" />
    <glyph glyph-name="hyphen.ss06" horiz-adv-x="680" 
d="M97 589v102h485v-102h-485z" />
    <glyph glyph-name="endash.ss06" horiz-adv-x="1035" 
d="M99 691h780v-104h-780v104z" />
    <glyph glyph-name="emdash.ss06" horiz-adv-x="1989" 
d="M38 589v102h1913v-102h-1913z" />
    <glyph glyph-name="guillemotleft.ss06" horiz-adv-x="865" 
d="M474 312h-121l-235 330l235 324h121l-230 -324zM794 312h-123l-236 330l236 324h123l-231 -324z" />
    <glyph glyph-name="guillemotright.ss06" horiz-adv-x="865" 
d="M430 642l-235 -330h-123l230 330l-230 324h123zM748 642l-236 -330h-121l230 330l-230 324h121z" />
    <glyph glyph-name="quotedblleft.ss15" horiz-adv-x="762" 
d="M157 1000v70q0 89 38.5 138.5t109.5 83.5l35 -53q-40 -28 -54.5 -65.5t-14.5 -103.5v-70q0 -32 -32 -32h-50q-32 0 -32 32zM640 1292l34 -53q-40 -28 -54 -65.5t-14 -103.5v-70q0 -32 -33 -32h-49q-32 0 -32 32v70q0 89 38.5 138.5t109.5 83.5z" />
    <glyph glyph-name="quotedblright.ss15" horiz-adv-x="740" 
d="M189 1287h50q18 0 25 -7.5t7 -25.5v-68q0 -47 -11 -83.5t-33.5 -62t-46 -43t-57.5 -34.5l-34 54q40 28 54 65.5t14 103.5v68q0 18 7 25.5t25 7.5zM524 1287h49q18 0 25.5 -7.5t7.5 -25.5v-68q0 -89 -38.5 -137.5t-110.5 -85.5l-34 54q40 28 54.5 65.5t14.5 103.5v68
q0 18 7 25.5t25 7.5z" />
    <glyph glyph-name="quoteleft.ss15" horiz-adv-x="428" 
d="M305 1289l35 -53q-40 -28 -54.5 -65.5t-14.5 -103.5v-70q0 -33 -32 -33h-50q-32 0 -32 33v70q0 89 38.5 138.5t109.5 83.5z" />
    <glyph glyph-name="quoteright.ss15" horiz-adv-x="428" 
d="M189 1285h50q18 0 25 -7t7 -25v-69q0 -47 -11 -83.5t-33.5 -62t-46 -43t-57.5 -34.5l-34 54q40 28 54 65.5t14 103.5v69q0 18 7 25t25 7z" />
    <glyph glyph-name="space.002" horiz-adv-x="1638" 
 />
    <glyph glyph-name="trademark.ss08" horiz-adv-x="936" 
d="M152 1207h-114v71h305v-71h-114v-398h-77v398zM596 961l131 317h73v-469h-73v276l12 41l-106 -252h-73l-108 252l11 -41v-276h-74v469h74z" />
    <glyph glyph-name="dotabovear" 
d="M244 1142q-33 0 -53 20t-20 53t20 53.5t53 20.5t52.5 -20.5t19.5 -53.5t-19.5 -53t-52.5 -20z" />
    <glyph glyph-name="dotbelowar" 
d="M244 -432q-33 0 -53 20.5t-20 53.5t20 52t53 19t52.5 -19t19.5 -52t-19.5 -53.5t-52.5 -20.5z" />
    <glyph glyph-name="dotcenterar" 
 />
    <glyph glyph-name="twodotsverticalabovear" 
 />
    <glyph glyph-name="twodotsverticalbelowar" 
 />
    <glyph glyph-name="twodotshorizontalabovear" 
d="M207 1142q-33 0 -53.5 20t-20.5 53t20.5 53.5t53.5 20.5t53 -20.5t20 -53.5t-20 -53t-53 -20zM476 1142q-33 0 -53 20t-20 53t20 53.5t53 20.5t53.5 -20.5t20.5 -53.5t-20.5 -53t-53.5 -20z" />
    <glyph glyph-name="twodotshorizontalbelowar" 
d="M207 -432q-33 0 -53.5 20.5t-20.5 53.5t20.5 52t53.5 19t53 -19t20 -52t-20 -53.5t-53 -20.5zM476 -432q-33 0 -53 20.5t-20 53.5t20 52t53 19t53.5 -19t20.5 -52t-20.5 -53.5t-53.5 -20.5z" />
    <glyph glyph-name="threedotsdownbelowar" 
d="M207 -195q33 0 53 -20t20 -53t-20 -52.5t-53 -19.5t-53.5 19.5t-20.5 52.5t20.5 53t53.5 20zM476 -195q33 0 53.5 -20t20.5 -53t-20.5 -52.5t-53.5 -19.5t-53 19.5t-20 52.5t20 53t53 20zM341 -449q33 0 53.5 -20t20.5 -53t-20.5 -52.5t-53.5 -19.5t-53 19.5t-20 52.5
t20 53t53 20z" />
    <glyph glyph-name="threedotsupabovear" 
d="M341 1299q-33 0 -53 20t-20 53t20 53.5t53 20.5t53.5 -20.5t20.5 -53.5t-20.5 -53t-53.5 -20zM207 1044q-33 0 -53.5 20.5t-20.5 53.5t20.5 53t53.5 20t53 -20t20 -53t-20 -53.5t-53 -20.5zM476 1044q-33 0 -53 20.5t-20 53.5t20 53t53 20t53.5 -20t20.5 -53t-20.5 -53.5
t-53.5 -20.5z" />
    <glyph glyph-name="miniKehehar" 
 />
    <glyph glyph-name="gafsarkashabovear" 
 />
    <glyph glyph-name="gafsarkashcenterar" 
 />
    <glyph glyph-name="doublestrokear" 
 />
    <glyph glyph-name="uni064B.ss05" 
 />
    <glyph glyph-name="uni064C.ss05" 
 />
    <glyph glyph-name="uni064D.ss05" 
 />
    <glyph glyph-name="uni064E.ss05" 
 />
    <glyph glyph-name="uni064F.ss05" 
 />
    <glyph glyph-name="uni0650.ss05" 
 />
    <glyph glyph-name="uni0651.ss05" 
 />
    <glyph glyph-name="uni0652.ss05" 
 />
    <glyph glyph-name="uni0651064F" 
d="M307 1463q0 -36 -21 -60.5t-68 -52.5l-184 -109v54l142 82q-46 36 -46 86q0 40 24 63.5t64 23.5t64.5 -23.5t24.5 -63.5zM176 1461q0 -35 42 -58q24 17 33.5 28t9.5 30q0 20 -11.5 32t-31.5 12q-19 0 -30.5 -12t-11.5 -32zM259 1220v62l41 25v-61q0 -103 -63 -140
q-40 -23 -63 -12q-14 -33 -48 -55q-42 -24 -67 -10.5t-25 58.5v62l43 25v-61q0 -49 37 -28q33 19 33 69v61l41 26v-2l1 2v-62v-15q5 -30 38 -12q32 19 32 68z" />
    <glyph glyph-name="uni0651064F.ss05" 
 />
    <glyph glyph-name="uni0651064C" 
d="M218 1350l-76 -46q-60 -35 -93 24l-22 36q-7 14 -17 14t-34 -13v43q56 31 80 -10l24 -39q10 -16 16 -19.5t22 3.5l58 34q-46 36 -46 86q0 40 24 63.5t64 23.5t64.5 -23.5t24.5 -63.5q0 -36 -21.5 -60.5t-67.5 -50.5v-2zM176 1461q0 -35 42 -58q24 17 33.5 28t9.5 30
q0 20 -11.5 32t-31.5 12q-19 0 -30.5 -12t-11.5 -32zM259 1220v62l41 25v-61q0 -103 -63 -140q-40 -23 -63 -12q-14 -33 -48 -55q-42 -24 -67 -10.5t-25 58.5v62l43 25v-61q0 -49 37 -28q33 19 33 69v61l41 26v-2l1 2v-62v-15q5 -30 38 -12q32 19 32 68z" />
    <glyph glyph-name="uni0651064C.ss05" 
 />
    <glyph glyph-name="uni0651064E" 
d="M48 1300l227 135v-51l-227 -135v51zM259 1220v62l41 25v-61q0 -103 -63 -140q-40 -23 -63 -12q-14 -33 -48 -55q-42 -24 -67 -10.5t-25 58.5v62l43 25v-61q0 -49 37 -28q33 19 33 69v61l41 26v-2l1 2v-62v-15q5 -30 38 -12q32 19 32 68z" />
    <glyph glyph-name="uni0651064E.ss05" 
 />
    <glyph glyph-name="uni0651064B.1" 
d="M61 1435l227 135v-51l-227 -135v51zM61 1300l227 135v-51l-227 -135v51zM259 1220v62l41 25v-61q0 -103 -63 -140q-40 -23 -63 -12q-14 -33 -48 -55q-42 -24 -67 -10.5t-25 58.5v62l43 25v-61q0 -49 37 -28q33 19 33 69v61l41 26v-2l1 2v-62v-15q5 -30 38 -12
q32 19 32 68z" />
    <glyph glyph-name="uni0651064B.1.ss05" 
 />
    <glyph glyph-name="uni06510650" 
d="M259 1220v62l41 25v-61q0 -103 -63 -140q-40 -23 -63 -12q-14 -33 -48 -55q-42 -24 -67 -10.5t-25 58.5v62l43 25v-61q0 -49 37 -28q33 19 33 69v61l41 26v-2l1 2v-62v-15q5 -30 38 -12q32 19 32 68zM283 1024l-227 -135v51l227 135v-51z" />
    <glyph glyph-name="uni06510650.ss05" 
 />
    <glyph glyph-name="uni0651064D" 
d="M259 1220v62l41 25v-61q0 -103 -63 -140q-40 -23 -63 -12q-14 -33 -48 -55q-42 -24 -67 -10.5t-25 58.5v62l43 25v-61q0 -49 37 -28q33 19 33 69v61l41 26v-2l1 2v-62v-15q5 -30 38 -12q32 19 32 68zM282 990l-227 -135v51l227 135v-51zM282 855l-227 -135v51l227 135
v-51z" />
    <glyph glyph-name="uni0651064D.ss05" 
 />
    <glyph glyph-name="arabicalefsuperscript.001" 
d="M73 1270h-34v297h34v-297z" />
    <glyph glyph-name="arabicalefsuperscript.002" 
d="M118 2031h-55v476h55v-476z" />
    <glyph glyph-name="logo" horiz-adv-x="12651" 
d="M12230 3308h135v-108h-365v108h46q-12 29 -12 58q0 82 51 124.5t147 42.5q47 0 88 -17l21 -9v-119q-52 37 -108 37q-44 0 -60 -11t-16 -45q0 -33 14.5 -45t58.5 -16zM7506 1814h-244v1422h244v-1422zM8113 1910q-78 52 -120 150t-42 227q0 93 31.5 178t92 154.5t160 111
t225.5 41.5q213 0 325 -115.5t112 -337.5v-295h394q163 0 230 55t67 186q0 56 -14.5 98.5t-36.5 67.5t-54 41t-63 21.5t-66 5.5h-348v213q38 34 481 524h299l-481 -528h32q133 0 234.5 -40.5t158.5 -107.5t84.5 -144t27.5 -160q0 -128 -51 -232h222v295q0 222 112.5 337.5
t324.5 115.5q126 0 225 -41.5t158.5 -111t90.5 -154.5t31 -178q0 -110 -25.5 -191t-73.5 -135t-124 -87t-169 -46.5t-217 -13.5h-1441q-8 -464 -513 -464q-126 0 -308 32v239l16 -5q144 -48 276 -48q267 0 270 246h-82q-178 0 -271.5 19t-179.5 77zM11116 3236h245v-1422
h-245v1422zM6663 1814h-24q-187 0 -297 53q-87 -61 -237 -61q-162 0 -301 56q-92 -56 -233 -56q-93 0 -146 8h-1694q-8 -464 -511 -464q-125 0 -307 32v239l16 -5q144 -48 274 -48q270 0 273 246h-83q-177 0 -269.5 19t-182.5 77q-76 52 -116.5 149.5t-40.5 227.5
q0 94 30 178.5t89.5 154t159 111t226.5 41.5q214 0 323.5 -115t109.5 -338v-295h384q-36 37 -70 79t-71 98.5t-59.5 119t-22.5 118.5q0 107 80 186t200 116t257 37q102 0 196.5 -22t171 -63t122.5 -107t46 -147q0 -88 -57.5 -198t-160.5 -217h421v655h249v-634q0 -21 60 -21
h132q52 10 72.5 44.5t20.5 107.5v503h250v-517q0 -77 -9 -123q55 -18 126 -18q84 0 122.5 37.5t38.5 117.5v503h246v-520q0 -67 -9 -111q78 -24 128 -24h63q91 0 128.5 35t37.5 122v1053h252v-1061q0 -96 -10 -134q-7 -39 -36.5 -86.5t-82.5 -78.5q-43 -27 -119.5 -43.5
t-155.5 -16.5zM539 2901q-58 0 -95.5 38.5t-37.5 96.5q0 55 38.5 92.5t94.5 37.5q54 0 93 -38t39 -92q0 -57 -38.5 -96t-93.5 -39zM847 2901q-58 0 -97.5 38.5t-39.5 96.5q0 54 40 92t97 38q51 0 89.5 -38t38.5 -92q0 -58 -37 -96.5t-91 -38.5zM12305 3086v-1272h-246v1272
h246zM1423 2181v591h253v-599q0 -190 -102.5 -274.5t-303.5 -84.5h-488q-178 0 -270.5 19t-178.5 77q-78 52 -120 150t-42 227q0 93 31.5 178t91.5 154.5t159.5 111t224.5 41.5q214 0 326 -115.5t112 -337.5v-295h140q92 0 129.5 35t37.5 122zM2671 2287v-473h-903v210h650
v275q0 120 -63 191.5t-170 71.5h-216v210h198q126 0 225 -41.5t158.5 -111t90 -154.5t30.5 -178zM11196 1369v240l30 -13q4 -1 25.5 -6.5t41 -10t51.5 -8.5t63 -4q106 0 168.5 68.5t62.5 188.5v855h256v-851q0 -241 -124 -359.5t-381 -118.5q-82 0 -193 19zM4420 2039
q19 0 68 42.5t101 102t92.5 132t40.5 123.5q0 58 -88.5 92t-204.5 34q-122 0 -214 -34t-92 -92q0 -52 41 -124.5t94 -131.5t100.5 -101.5t61.5 -42.5zM722 2024h147v266q0 138 -51.5 205t-158.5 67q-106 0 -169 -71.5t-63 -191.5q0 -145 70 -210t225 -65zM3333 2024h143v266
q0 138 -50.5 205t-155.5 67q-106 0 -169 -71.5t-63 -191.5q0 -145 69 -210t226 -65zM8441 2562q-107 0 -169.5 -71.5t-62.5 -191.5q0 -145 68.5 -210t223.5 -65h143v266q0 139 -48.5 205.5t-154.5 66.5zM10262 2290v-266h147q154 0 224 65t70 210q0 119 -63 191t-168 72
q-108 0 -159 -66.5t-51 -205.5zM1225 1609q54 0 93 -39.5t39 -94.5q0 -53 -39 -91.5t-93 -38.5q-55 0 -94 38t-39 92q0 57 39 95.5t94 38.5zM1527 1609q56 0 96.5 -39.5t40.5 -94.5q0 -53 -40.5 -91.5t-96.5 -38.5q-54 0 -91.5 38t-37.5 92q0 57 37.5 95.5t91.5 38.5z
M5550 0v1307h-234v-406q-82 55 -174 55h-24q-215 0 -348 -132t-133 -351q0 -129 42 -227t120 -150q86 -58 179 -77t270 -19h302zM5827 1289q54 0 92.5 -40.5t38.5 -94.5t-37.5 -92t-93.5 -38q-55 0 -93.5 38t-38.5 92q0 56 38.5 95.5t93.5 39.5zM2186 577
q172 -50 243 -115.5t71 -171.5q0 -144 -120.5 -227t-334.5 -83q-158 0 -314 66v227q185 -89 319 -89q90 0 154 29.5t64 73.5q0 9 -2 16t-7.5 13.5t-11.5 11t-18.5 10t-23 9t-30 9.5t-36 10.5t-43.5 12t-50 14.5q-78 22 -135.5 51.5t-88 57t-48 62t-22 60t-4.5 57.5
q0 134 106.5 215.5t299.5 81.5q138 0 295 -36l-53 -213q-143 42 -249 42q-71 0 -118.5 -20.5t-47.5 -57.5q0 -33 44.5 -57t160.5 -59zM10220 964q191 0 288 -107q39 -43 55.5 -101t16.5 -148v-608h-243v589q0 83 -41 123.5t-126 40.5q-58 0 -131 -26q10 -36 10 -121v-606
h-244v589q0 93 -33.5 128.5t-120.5 35.5q-61 0 -136 -23v-730h-246v891l26 8q186 65 385 65q140 0 239 -59q132 59 301 59zM11192 193q50 0 89 11.5t91 41.5l119 -154q-58 -53 -138.5 -80.5t-132.5 -29.5l-52 -1q-216 0 -345 129t-129 346q0 227 134 366t354 139
q94 -2 155 -21q2 -1 15 -5.5t21.5 -7.5t24 -10t28 -14t27.5 -17.5t28 -21.5l-101 -175q-20 15 -43.5 27.5t-36.5 17.5l-14 5q-39 10 -90 10q-123 0 -190.5 -73t-67.5 -208q0 -131 66.5 -203t187.5 -72zM3528 0v505q0 220 -112.5 336t-324.5 116q-101 0 -185.5 -27.5
t-143 -73.5t-99 -108.5t-59 -131.5t-18.5 -143q0 -130 40.5 -227.5t119.5 -149.5q87 -58 178.5 -77t268.5 -19h335zM7386 0v505q0 221 -110 336.5t-321 115.5q-127 0 -227.5 -41.5t-161 -111t-91.5 -154t-31 -177.5q0 -129 42.5 -226.5t120.5 -150.5q86 -58 179 -77t269 -19
h331zM9129 0v505q0 220 -112 336t-322 116q-127 0 -227 -41.5t-160 -111t-90.5 -154t-30.5 -177.5q0 -130 40.5 -227.5t118.5 -149.5q89 -58 181.5 -77t268.5 -19h333zM8028 956q80 0 176 -14l-58 -217q-65 19 -140 19q-108 0 -171 -70.5t-63 -193.5v-480h-251v476
q0 245 124 362.5t383 117.5zM11996 952q132 0 243.5 -65t176.5 -177t65 -244t-65 -243.5t-176.5 -176.5t-243.5 -65q-199 0 -342 142.5t-143 342.5q0 132 65.5 244t177.5 177t242 65zM4263 353v592h251v-607q0 -104 -26.5 -174.5t-81.5 -110t-127 -56t-174 -16.5h-43
q-94 0 -163.5 17t-124 56.5t-82.5 110.5t-28 173v607h244v-592q0 -89 37.5 -124.5t131.5 -35.5h12q96 0 135 36t39 124zM5948 0h-243v915h243v-915zM3285 476v-273h-152q-154 0 -226 67.5t-72 210.5q0 121 65 194.5t172 73.5q213 0 213 -273zM5316 473v-270h-131
q-155 0 -226 67t-71 211q0 122 64.5 195t174.5 73q102 0 145.5 -63.5t43.5 -212.5zM7136 476v-273h-147q-155 0 -228 67.5t-73 210.5q0 121 65.5 194.5t172.5 73.5q109 0 159.5 -66t50.5 -207zM8888 476v-273h-152q-155 0 -226.5 67t-71.5 211q0 122 63.5 195t173.5 73
q213 0 213 -273zM11996 201q108 0 184.5 78.5t76.5 186.5q0 109 -76 185t-185 76q-110 0 -185.5 -76t-75.5 -185q0 -108 76 -186.5t185 -78.5z" />
    <glyph glyph-name="ps" horiz-adv-x="1194" 
 />
    </font>
</defs>
</svg>
