<?xml version="1.0" encoding="utf-8"?>
<!-- Generator: Adobe Illustrator 28.0.0, SVG Export Plug-In . SVG Version: 6.00 Build 0)  -->
<svg version="1.1" id="Layer_1" xmlns="http://www.w3.org/2000/svg" xmlns:xlink="http://www.w3.org/1999/xlink" x="0px" y="0px"
	 viewBox="0 0 810.7 387.3" style="enable-background:new 0 0 810.7 387.3;" xml:space="preserve">
<style type="text/css">
	.st0{fill:#404245;}
	.st1{fill:#0066CC;}
	.st2{fill:#FFFFFF;}
</style>
<g id="Group_37146" transform="translate(120.257 -137.195)">
	<path id="Path_48266" class="st0" d="M323.5,256.8c0,19.8,13.9,29.2,30.2,29.2c16.2,0,30.6-9.4,30.6-29.2v-49.4h-12.8v49.6
		c0,12.1-6.8,17.8-17.7,17.8c-10.8,0-17.6-5.7-17.6-17.8v-49.6h-12.8V256.8z M447,268c-0.7-22.3-35.5-15.3-35.5-27.8
		c0-4.1,3.6-6.9,10.4-6.9c6.9,0,11.1,3.7,11.5,9.1h12.8c-0.7-12.3-9.9-19.8-23.9-19.8c-14.6,0-23.7,8-23.7,17.8
		c0,22.6,35.8,15.7,35.8,27.8c0,4.3-3.9,7.4-11.3,7.4c-7.1,0-11.9-4.1-12.3-9.2h-13.2c0.6,11.2,11,19.9,25.8,19.9
		C437.9,286.3,447,278.4,447,268z M486.7,233.3c9.5,0,17,6,17.2,15.6h-34.2C471.1,239.1,478.1,233.3,486.7,233.3z M515.6,266.9
		h-13.8c-2.4,4.8-6.7,8.6-14.6,8.6c-9.4,0-16.7-6.2-17.6-16.4h47.2c0.3-2.1,0.5-4.2,0.4-6.3c0-18.1-12.4-30.4-30-30.4
		c-18.3,0-30.8,12.4-30.8,31.8s13.1,31.9,30.8,31.9C502.4,286.3,512.1,277.7,515.6,266.9L515.6,266.9z M542.6,252.8
		c0-13.1,5.8-17,15.2-17h3.2v-13.2c-8.7,0-14.9,3.8-18.5,10v-9h-12.8v61.7h12.8V252.8z M359.1,374.4c-22,0-39.8,16.5-39.8,39.8
		c0,23.4,17.8,39.8,39.8,39.8c19.4,0.2,36-14.1,38.5-33.4v-10h-42.9v10.2H384c-1.9,13.1-10.8,21.6-24.9,21.6
		c-15.5,0-26.7-11.1-26.7-28.2c0-17.1,11.2-28.1,26.7-28.1c9.3,0,16.7,3.9,20.8,11.8h15.3C389.4,382.6,375.4,374.4,359.1,374.4z
		 M466.1,391.6h-12.8v34.4c0,11.3-6.2,17.1-15.6,17.1c-9.3,0-15.5-5.8-15.5-17.1v-34.4h-12.7v36.3c0,17.2,11,26.3,25.4,26.3
		c7.3,0,14.2-3,18.3-8.3v7.4h12.8L466.1,391.6z M482.9,453.3h12.8v-61.7h-12.8V453.3z M489.4,383.4c4.5,0,8.2-3.7,8.2-8.2
		s-3.7-8.2-8.2-8.2c-4.5,0-8.2,3.7-8.2,8.2l0,0c-0.1,4.4,3.5,8.1,7.9,8.2C489.2,383.4,489.3,383.4,489.4,383.4L489.4,383.4z
		 M508.2,422.1c0,19,12.9,32.1,29.1,32.1c10.1,0,17.5-4.7,21.4-10.3v9.3h12.9v-82.9h-12.9v29.8c-4.7-5.8-13.2-9.6-21.3-9.6
		C521.1,390.6,508.2,403.1,508.2,422.1L508.2,422.1z M558.7,422.4c0,13.3-9.1,20.8-18.7,20.8c-9.5,0-18.7-7.7-18.7-21.1
		s9.2-20.5,18.7-20.5C549.7,401.6,558.7,409.1,558.7,422.4L558.7,422.4z M614.4,401.3c9.5,0,17,6,17.2,15.6h-34.2
		C598.8,407.1,605.8,401.3,614.4,401.3L614.4,401.3z M643.3,434.9h-13.8c-2.4,4.8-6.7,8.6-14.6,8.6c-9.4,0-16.7-6.2-17.6-16.4h47.2
		c0.3-2.1,0.5-4.2,0.4-6.3c0-18.1-12.4-30.4-30-30.4c-18.3,0-30.8,12.4-30.8,31.8s13.1,31.9,30.8,31.9
		C630.1,454.3,639.8,445.7,643.3,434.9L643.3,434.9z"/>
	<g id="Group_39740" transform="translate(5.982)">
		<g id="Group_39739" transform="translate(1797.018 33)">
			<path id="Path_40000" class="st1" d="M-1845.8,104.2h232.4c42.8,0,77.5,34.7,77.5,77.5V414c0,42.8-34.7,77.5-77.5,77.5l0,0
				h-232.4c-42.8,0-77.5-34.7-77.5-77.5l0,0V181.7C-1923.3,138.9-1888.6,104.2-1845.8,104.2z"/>
			<g id="drop" transform="translate(26.215 21.246)">
				<g id="Group_4013" transform="translate(17.908 7.138)">
					<g id="Group_4012" transform="translate(0)">
						<path id="Path_5360" class="st2" d="M-1706,245.1l-0.3-0.4l-0.1-0.1l-26.5-39.4l-26.5,39.4l-0.1,0.1l-0.3,0.4
							c-10.9,14.8-7.8,35.7,7.1,46.7c14.8,10.9,35.7,7.8,46.7-7.1C-1697.4,272.9-1697.4,256.8-1706,245.1L-1706,245.1z"/>
					</g>
				</g>
				<g id="Group_4015">
					<g id="Group_4014">
						<path id="Path_5361" class="st2" d="M-1715,316.7c-24.7,0-44.7-20-44.7-44.7c0-9.5,3-18.8,8.6-26.4l17.4-25.9l-26.9-39.9
							l-56,83.1c-22.7,30.9-16,74.4,14.9,97.1c30.9,22.7,74.4,16,97.1-14.9c7.5-10.3,12.1-22.4,13.2-35.1
							C-1698.4,314.4-1706.6,316.7-1715,316.7z"/>
					</g>
				</g>
			</g>
		</g>
	</g>
</g>
<rect x="805.3" y="15.8" class="st0" width="5.3" height="355.7"/>
</svg>
